<svg width="24" height="24" viewBox="0 0 24 24" fill="none" xmlns="http://www.w3.org/2000/svg">
<path d="M22.875 6.75H20.625C20.5255 6.75 20.4302 6.78951 20.3598 6.85983C20.2895 6.93016 20.25 7.02554 20.25 7.125V21.375C20.25 21.4745 20.2895 21.5698 20.3598 21.6402C20.4302 21.7105 20.5255 21.75 20.625 21.75H22.875C22.9745 21.75 23.0698 21.7105 23.1402 21.6402C23.2105 21.5698 23.25 21.4745 23.25 21.375V7.125C23.25 7.02554 23.2105 6.93016 23.1402 6.85983C23.0698 6.78951 22.9745 6.75 22.875 6.75ZM22.5 21H21V7.5H22.5V21ZM19.125 21.75C19.2245 21.75 19.3198 21.7105 19.3902 21.6402C19.4605 21.5698 19.5 21.4745 19.5 21.375V10.125C19.5 10.0255 19.4605 9.93016 19.3902 9.85983C19.3198 9.78951 19.2245 9.75 19.125 9.75H16.875C16.7755 9.75 16.6802 9.78951 16.6098 9.85983C16.5395 9.93016 16.5 10.0255 16.5 10.125V21.375C16.5 21.4745 16.5395 21.5698 16.6098 21.6402C16.6802 21.7105 16.7755 21.75 16.875 21.75H19.125ZM17.25 10.5H18.75V21H17.25V10.5ZM15.375 21.75C15.4745 21.75 15.5698 21.7105 15.6402 21.6402C15.7105 21.5698 15.75 21.4745 15.75 21.375V12.75C15.75 12.6505 15.7105 12.5552 15.6402 12.4848C15.5698 12.4145 15.4745 12.375 15.375 12.375H13.125C13.0255 12.375 12.9302 12.4145 12.8598 12.4848C12.7895 12.5552 12.75 12.6505 12.75 12.75V21.375C12.75 21.4745 12.7895 21.5698 12.8598 21.6402C12.9302 21.7105 13.0255 21.75 13.125 21.75H15.375ZM13.5 13.125H15V21H13.5V13.125ZM11.625 21.75C11.7245 21.75 11.8198 21.7105 11.8902 21.6402C11.9605 21.5698 12 21.4745 12 21.375V15.75C12 15.6505 11.9605 15.5552 11.8902 15.4848C11.8198 15.4145 11.7245 15.375 11.625 15.375H9.375C9.27554 15.375 9.18016 15.4145 9.10983 15.4848C9.03951 15.5552 9 15.6505 9 15.75V21.375C9 21.4745 9.03951 21.5698 9.10983 21.6402C9.18016 21.7105 9.27554 21.75 9.375 21.75H11.625ZM9.75 16.125H11.25V21H9.75V16.125ZM7.875 21.75C7.97446 21.75 8.06984 21.7105 8.14017 21.6402C8.21049 21.5698 8.25 21.4745 8.25 21.375V17.25C8.25 17.1505 8.21049 17.0552 8.14017 16.9848C8.06984 16.9145 7.97446 16.875 7.875 16.875H5.625C5.52554 16.875 5.43016 16.9145 5.35984 16.9848C5.28951 17.0552 5.25 17.1505 5.25 17.25V21.375C5.25 21.4745 5.28951 21.5698 5.35984 21.6402C5.43016 21.7105 5.52554 21.75 5.625 21.75H7.875ZM6 17.625H7.5V21H6V17.625ZM4.125 21.75C4.22446 21.75 4.31984 21.7105 4.39016 21.6402C4.46049 21.5698 4.5 21.4745 4.5 21.375V19.125C4.5 19.0255 4.46049 18.9302 4.39016 18.8598C4.31984 18.7895 4.22446 18.75 4.125 18.75H1.875C1.77554 18.75 1.68016 18.7895 1.60984 18.8598C1.53951 18.9302 1.5 19.0255 1.5 19.125V21.375C1.5 21.4745 1.53951 21.5698 1.60984 21.6402C1.68016 21.7105 1.77554 21.75 1.875 21.75H4.125ZM2.25 19.5H3.75V21H2.25V19.5ZM10.125 6.75H10.875C10.9745 6.75 11.0698 6.71049 11.1402 6.64017C11.2105 6.56984 11.25 6.47446 11.25 6.375C11.25 6.27554 11.2105 6.18016 11.1402 6.10983C11.0698 6.03951 10.9745 6 10.875 6H10.5V5.625C10.5 5.52554 10.4605 5.43016 10.3902 5.35984C10.3198 5.28951 10.2245 5.25 10.125 5.25C10.0255 5.25 9.93016 5.28951 9.85983 5.35984C9.78951 5.43016 9.75 5.52554 9.75 5.625V6.0645C9.49991 6.15304 9.28915 6.32712 9.15497 6.55598C9.02078 6.78485 8.97179 7.05377 9.01666 7.31525C9.06152 7.57673 9.19736 7.81395 9.40016 7.98499C9.60297 8.15603 9.8597 8.24989 10.125 8.25C10.2245 8.25 10.3198 8.28951 10.3902 8.35983C10.4605 8.43016 10.5 8.52554 10.5 8.625C10.5 8.72446 10.4605 8.81984 10.3902 8.89017C10.3198 8.96049 10.2245 9 10.125 9H9.375C9.27554 9 9.18016 9.03951 9.10983 9.10983C9.03951 9.18016 9 9.27554 9 9.375C9 9.47446 9.03951 9.56984 9.10983 9.64017C9.18016 9.71049 9.27554 9.75 9.375 9.75H9.75V10.125C9.75 10.2245 9.78951 10.3198 9.85983 10.3902C9.93016 10.4605 10.0255 10.5 10.125 10.5C10.2245 10.5 10.3198 10.4605 10.3902 10.3902C10.4605 10.3198 10.5 10.2245 10.5 10.125V9.6855C10.7501 9.59696 10.9608 9.42288 11.095 9.19402C11.2292 8.96515 11.2782 8.69623 11.2333 8.43475C11.1885 8.17327 11.0526 7.93605 10.8498 7.76501C10.647 7.59397 10.3903 7.50011 10.125 7.5C10.0255 7.5 9.93016 7.46049 9.85983 7.39017C9.78951 7.31984 9.75 7.22446 9.75 7.125C9.75 7.02554 9.78951 6.93016 9.85983 6.85983C9.93016 6.78951 10.0255 6.75 10.125 6.75Z" fill="white"/>
<path d="M22.875 2.25H20.625C20.5256 2.25 20.4302 2.28951 20.3598 2.35984C20.2895 2.43016 20.25 2.52554 20.25 2.625C20.25 2.72446 20.2895 2.81984 20.3598 2.89016C20.4302 2.96049 20.5256 3 20.625 3H21.9697L16.7197 8.25H14.6093C14.6197 8.12527 14.6249 8.00016 14.625 7.875C14.625 7.02045 14.3816 6.18357 13.9234 5.46225C13.4652 4.74094 12.8111 4.165 12.0375 3.80181C11.264 3.43862 10.4031 3.30319 9.55538 3.41136C8.7077 3.51954 7.90835 3.86684 7.25081 4.41265C6.59328 4.95846 6.10476 5.68021 5.84237 6.49349C5.57999 7.30676 5.55461 8.17793 5.76918 9.0051C5.98376 9.83228 6.42943 10.5813 7.05406 11.1644C7.67869 11.7476 8.45646 12.1409 9.2964 12.2982L7.71971 13.875H4.87501C4.82576 13.875 4.777 13.8847 4.7315 13.9035C4.686 13.9224 4.64466 13.95 4.60984 13.9848L0.859838 17.7348C0.78951 17.8052 0.75 17.9005 0.75 18C0.75 18.0995 0.78951 18.1948 0.859838 18.2652C0.930166 18.3355 1.02555 18.375 1.12501 18.375C1.22447 18.375 1.31985 18.3355 1.39018 18.2652L5.03031 14.625H7.87501C7.92426 14.625 7.97302 14.6153 8.01852 14.5965C8.06402 14.5776 8.10536 14.55 8.14018 14.5152L10.2834 12.3719C11.253 12.3365 12.1853 11.9892 12.9418 11.3817C13.6983 10.7743 14.2386 9.93902 14.4827 9H16.875C16.9243 9 16.973 8.9903 17.0185 8.97146C17.064 8.95261 17.1054 8.92499 17.1402 8.89017L22.5 3.53034V4.875C22.5 4.97446 22.5395 5.06984 22.6098 5.14016C22.6802 5.21049 22.7756 5.25 22.875 5.25C22.9745 5.25 23.0698 5.21049 23.1402 5.14016C23.2105 5.06984 23.25 4.97446 23.25 4.875V2.625C23.25 2.52554 23.2105 2.43016 23.1402 2.35984C23.0698 2.28951 22.9745 2.25 22.875 2.25ZM10.125 11.625C9.38333 11.625 8.65831 11.4051 8.04162 10.993C7.42494 10.581 6.94429 9.99529 6.66046 9.31006C6.37663 8.62484 6.30237 7.87084 6.44706 7.14341C6.59176 6.41598 6.94891 5.7478 7.47336 5.22335C7.99781 4.6989 8.66599 4.34175 9.39342 4.19706C10.1208 4.05236 10.8748 4.12662 11.5601 4.41045C12.2453 4.69428 12.831 5.17493 13.243 5.79161C13.6551 6.4083 13.875 7.13332 13.875 7.875C13.8739 8.86922 13.4784 9.82239 12.7754 10.5254C12.0724 11.2284 11.1192 11.6239 10.125 11.625Z" fill="white"/>
</svg>
