<svg width="24" height="24" viewBox="0 0 24 24" fill="none" xmlns="http://www.w3.org/2000/svg">
<path d="M19.3367 15.1055C19.6924 14.881 19.9855 14.5703 20.189 14.2022C20.3924 13.8341 20.4994 13.4205 20.5002 13C20.5002 11.6215 19.3787 10.5 18.0002 10.5C16.6217 10.5 15.5002 11.6215 15.5002 13C15.5002 13.8865 15.9677 14.6625 16.6657 15.1065C15.9476 15.2861 15.3044 15.6876 14.8277 16.254C14.4153 15.9575 13.9499 15.7426 13.4567 15.621C13.9241 15.3613 14.3136 14.9814 14.585 14.5207C14.8564 14.06 14.9997 13.5352 15.0002 13.0005C15.0002 11.346 13.6547 10.0005 12.0002 10.0005C10.3457 10.0005 9.0002 11.346 9.0002 13.0005C9.0007 13.5352 9.14405 14.06 9.41541 14.5207C9.68678 14.9814 10.0763 15.3613 10.5437 15.621C10.0505 15.7425 9.58509 15.9574 9.1727 16.254C8.69595 15.6877 8.0528 15.2862 7.3347 15.1065C7.69089 14.8822 7.98455 14.5714 8.18833 14.2031C8.39211 13.8348 8.4994 13.4209 8.5002 13C8.5002 11.6215 7.3787 10.5 6.0002 10.5C4.6217 10.5 3.5002 11.6215 3.5002 13C3.5002 13.886 3.9667 14.661 4.6637 15.1055C3.1372 15.482 2.0002 16.859 2.0002 18.5V19.5C2.0002 20.327 2.6732 21 3.5002 21H7.5002C7.5002 21.827 8.1732 22.5 9.0002 22.5H15.0002C15.8272 22.5 16.5002 21.827 16.5002 21H20.5002C21.3272 21 22.0002 20.327 22.0002 19.5V18.5C22.0002 16.859 20.8632 15.4815 19.3367 15.1055ZM18.0002 11.5C18.8272 11.5 19.5002 12.173 19.5002 13C19.5002 13.827 18.8272 14.5 18.0002 14.5C17.1732 14.5 16.5002 13.827 16.5002 13C16.5002 12.173 17.1732 11.5 18.0002 11.5ZM12.0002 11C13.1032 11 14.0002 11.897 14.0002 13C14.0002 14.103 13.1032 15 12.0002 15C10.8972 15 10.0002 14.103 10.0002 13C10.0002 11.897 10.8972 11 12.0002 11ZM6.0002 11.5C6.8272 11.5 7.5002 12.173 7.5002 13C7.5002 13.827 6.8272 14.5 6.0002 14.5C5.1732 14.5 4.5002 13.827 4.5002 13C4.5002 12.173 5.1732 11.5 6.0002 11.5ZM3.5002 20C3.2242 20 3.0002 19.7755 3.0002 19.5V18.5C3.0002 17.1215 4.1217 16 5.5002 16H6.5002C7.2552 16 7.9687 16.35 8.4392 16.9305C7.83239 17.6491 7.49972 18.5594 7.5002 19.5V20H3.5002ZM15.5002 21C15.5002 21.2755 15.2762 21.5 15.0002 21.5H9.0002C8.7242 21.5 8.5002 21.2755 8.5002 21V19.5C8.5002 17.8455 9.8457 16.5 11.5002 16.5H12.5002C14.1547 16.5 15.5002 17.8455 15.5002 19.5V21ZM21.0002 19.5C21.0002 19.7755 20.7762 20 20.5002 20H16.5002V19.5C16.5007 18.5594 16.168 17.6491 15.5612 16.9305C15.7951 16.6412 16.0904 16.4076 16.4258 16.2467C16.7612 16.0857 17.1282 16.0015 17.5002 16H18.5002C19.8787 16 21.0002 17.1215 21.0002 18.5V19.5ZM16.8027 7.31798L16.7757 8.30348C16.7716 8.46096 16.8059 8.61708 16.8756 8.75836C16.9453 8.89964 17.0483 9.02185 17.1758 9.11446C17.3032 9.20707 17.4513 9.26729 17.6072 9.28994C17.7631 9.31259 17.9222 9.29699 18.0707 9.24448L18.9997 8.91398L19.9287 9.24448C20.0774 9.29695 20.2366 9.31258 20.3926 9.29003C20.5487 9.26747 20.697 9.20741 20.8247 9.11498C21.0837 8.92698 21.2322 8.62348 21.2237 8.30398L21.1967 7.31798L21.7982 6.53598C21.8944 6.41117 21.9588 6.26476 21.9857 6.10946C22.0125 5.95416 22.0011 5.79465 21.9524 5.64476C21.9037 5.49487 21.8191 5.35912 21.7061 5.24929C21.5931 5.13946 21.4549 5.05886 21.3037 5.01448L20.3572 4.73548L19.7997 3.92198C19.7108 3.79171 19.5914 3.68511 19.4519 3.61142C19.3124 3.53774 19.1571 3.4992 18.9993 3.49916C18.8416 3.49911 18.6862 3.53755 18.5467 3.61114C18.4072 3.68474 18.2877 3.79126 18.1987 3.92148L17.6412 4.73498L16.6952 5.01398C16.544 5.05847 16.4059 5.13914 16.2929 5.24901C16.1799 5.35888 16.0953 5.49463 16.0466 5.64452C15.9978 5.79441 15.9863 5.95392 16.0131 6.10925C16.0399 6.26458 16.1041 6.41105 16.2002 6.53598L16.8017 7.31748L16.8027 7.31798ZM18.0957 5.64398C18.206 5.61143 18.3017 5.54186 18.3667 5.44698L18.9752 4.48698L19.6332 5.44698C19.6987 5.54148 19.7937 5.61148 19.9042 5.64398L21.0057 5.92648L20.2957 6.84898C20.2257 6.93998 20.1892 7.05248 20.1922 7.16748L20.2642 8.30248L19.1677 7.91248C19.0594 7.87396 18.941 7.87396 18.8327 7.91248L17.7762 8.33148L17.8077 7.16748C17.8108 7.05258 17.7742 6.94013 17.7042 6.84898L16.9792 5.97348L18.0957 5.64398ZM2.8027 7.31798L2.7757 8.30348C2.77164 8.46096 2.80594 8.61708 2.87564 8.75836C2.94534 8.89964 3.04835 9.02185 3.1758 9.11446C3.30324 9.20707 3.4513 9.26729 3.6072 9.28994C3.7631 9.31259 3.92217 9.29699 4.0707 9.24448L4.9997 8.91398L5.9287 9.24448C6.07739 9.29695 6.23659 9.31258 6.39264 9.29003C6.5487 9.26747 6.69696 9.20741 6.8247 9.11498C7.0837 8.92698 7.2322 8.62348 7.2237 8.30398L7.1967 7.31798L7.7982 6.53598C7.89444 6.41117 7.95879 6.26476 7.98566 6.10946C8.01253 5.95416 8.00111 5.79465 7.95239 5.64476C7.90368 5.49487 7.81913 5.35912 7.7061 5.24929C7.59306 5.13946 7.45493 5.05886 7.3037 5.01448L6.3572 4.73548L5.7997 3.92198C5.71076 3.79171 5.59137 3.68511 5.45189 3.61142C5.31242 3.53774 5.15707 3.4992 4.99933 3.49916C4.84159 3.49911 4.68622 3.53755 4.5467 3.61114C4.40718 3.68474 4.28773 3.79126 4.1987 3.92148L3.6412 4.73498L2.6952 5.01398C2.54399 5.05847 2.40591 5.13914 2.29289 5.24901C2.17987 5.35888 2.09533 5.49463 2.04658 5.64452C1.99783 5.79441 1.98635 5.95392 2.01311 6.10925C2.03988 6.26458 2.1041 6.41105 2.2002 6.53598L2.8017 7.31748L2.8027 7.31798ZM4.0957 5.64398C4.206 5.61143 4.30171 5.54186 4.3667 5.44698L4.9752 4.48698L5.6332 5.44698C5.6987 5.54148 5.7937 5.61148 5.9042 5.64398L7.0057 5.92648L6.2957 6.84898C6.2257 6.93998 6.1892 7.05248 6.1922 7.16748L6.2642 8.30248L5.1677 7.91248C5.05936 7.87396 4.94105 7.87396 4.8327 7.91248L3.7762 8.33148L3.8077 7.16748C3.81076 7.05258 3.77422 6.94013 3.7042 6.84898L2.9792 5.97348L4.0957 5.64398ZM9.4647 5.94898L9.4312 7.16798C9.42753 7.31007 9.45233 7.45146 9.50414 7.58383C9.55595 7.71619 9.63372 7.83685 9.73286 7.9387C9.83201 8.04056 9.95054 8.12154 10.0815 8.17689C10.2124 8.23223 10.3531 8.26083 10.4952 8.26098C10.6147 8.26098 10.7352 8.24048 10.8517 8.19948L12.0007 7.79098L13.1497 8.19948C13.3126 8.2571 13.4871 8.27432 13.6581 8.24968C13.8292 8.22503 13.9917 8.15925 14.1317 8.05798C14.2715 7.95624 14.3845 7.82202 14.4609 7.66688C14.5373 7.51174 14.5748 7.34034 14.5702 7.16748L14.5367 5.94898L15.2802 4.98248C15.3855 4.84536 15.4558 4.68467 15.4851 4.51428C15.5144 4.3439 15.5018 4.16895 15.4483 4.00454C15.3949 3.84013 15.3022 3.6912 15.1783 3.57063C15.0544 3.45005 14.903 3.36145 14.7372 3.31248L13.5677 2.96748L12.8787 1.96198C12.7809 1.81946 12.6498 1.7029 12.4968 1.62237C12.3439 1.54184 12.1736 1.49976 12.0007 1.49976C11.8278 1.49976 11.6576 1.54184 11.5046 1.62237C11.3516 1.7029 11.2205 1.81946 11.1227 1.96198L10.4337 2.96748L9.2637 3.31248C9.09794 3.36151 8.94661 3.45016 8.82277 3.57076C8.69894 3.69136 8.60632 3.84029 8.55291 4.00469C8.4995 4.16909 8.48692 4.34403 8.51624 4.51438C8.54556 4.68473 8.6159 4.84539 8.7212 4.98248L9.4647 5.94898ZM9.5037 4.31398C9.5142 4.28148 9.5382 4.27448 9.5462 4.27198L10.8867 3.87698C10.9972 3.84453 11.0931 3.77495 11.1582 3.67998L11.9477 2.52748C11.9522 2.52048 11.9667 2.49948 12.0002 2.49948C12.0337 2.49948 12.0487 2.52048 12.0527 2.52748L12.8422 3.67998C12.9072 3.77448 13.0032 3.84448 13.1137 3.87698L14.4537 4.27198C14.4622 4.27448 14.4862 4.28148 14.4967 4.31398C14.5003 4.32386 14.5013 4.33453 14.4994 4.3449C14.4976 4.35526 14.493 4.36495 14.4862 4.37298L13.6342 5.47998C13.5642 5.57098 13.5277 5.68398 13.5307 5.79898L13.5692 7.19498C13.5692 7.20348 13.5702 7.22848 13.5427 7.24848C13.5152 7.26798 13.4912 7.25948 13.4837 7.25698L12.1672 6.78898C12.0589 6.75046 11.9405 6.75046 11.8322 6.78898L10.5157 7.25698C10.506 7.26082 10.4954 7.26206 10.4851 7.26057C10.4747 7.25908 10.4649 7.25491 10.4567 7.24848C10.448 7.24269 10.4409 7.23469 10.4363 7.22529C10.4316 7.2159 10.4295 7.20544 10.4302 7.19498L10.4687 5.79848C10.4718 5.68343 10.4352 5.57082 10.3652 5.47948L9.5132 4.37248C9.50643 4.36443 9.5019 4.35474 9.50006 4.34438C9.49822 4.33403 9.49913 4.32337 9.5027 4.31348L9.5037 4.31398Z" fill="white"/>
</svg>
