<svg width="20" height="20" viewBox="0 0 20 20" fill="none" xmlns="http://www.w3.org/2000/svg">
<path fill-rule="evenodd" clip-rule="evenodd" d="M2.5 1.875C2.15483 1.875 1.875 2.15483 1.875 2.5V17.5C1.875 17.8452 2.15483 18.125 2.5 18.125H17.5C17.8452 18.125 18.125 17.8452 18.125 17.5V2.5C18.125 2.15483 17.8452 1.875 17.5 1.875H2.5ZM13.6996 8.24842L14.4479 7.88186L13.7148 6.38509L12.9664 6.75165C11.3366 7.54994 10.0747 8.91975 9.23883 10.0363C8.94908 10.4233 8.70458 10.7879 8.508 11.1007C8.27543 10.8992 8.04601 10.7323 7.84379 10.5989C7.62147 10.4523 7.18027 10.2233 7.0134 10.1367C7.00668 10.1332 7.00039 10.1299 6.99459 10.1269L6.22863 9.79867L5.5721 11.3306L6.33592 11.6579C6.44397 11.7141 6.75139 11.875 6.92636 11.9904C7.28369 12.226 7.69078 12.5596 7.98363 12.9779L8.79333 14.1347L9.41425 12.8675C9.46292 12.7762 9.6055 12.5093 9.704 12.3415C9.90142 12.0052 10.1943 11.541 10.573 11.0352C11.3412 10.0089 12.4128 8.87867 13.6996 8.24842Z" fill="#2970FF"/>
</svg>
