<svg width="32" height="32" viewBox="0 0 32 32" fill="none" xmlns="http://www.w3.org/2000/svg">
<path fill-rule="evenodd" clip-rule="evenodd" d="M12.2672 22.5344C9.53149 22.5344 6.94409 21.4632 5.01589 19.5185C3.07122 17.5739 2 15.0029 2 12.2672C2 9.51501 3.07122 6.94409 5.01589 4.99941C6.94409 3.05474 9.53149 2 12.2672 2C15.0029 2 17.5903 3.05474 19.535 4.99941C21.4632 6.94409 22.5344 9.51501 22.5344 12.2672C22.5344 15.0029 21.4632 17.5739 19.535 19.5185C17.5903 21.4632 15.0029 22.5344 12.2672 22.5344ZM12.2672 20.2272C10.1413 20.2272 8.13067 19.4032 6.63096 17.9035C5.13125 16.3873 4.29076 14.3932 4.29076 12.2672C4.29076 10.1248 5.13125 8.13067 6.63096 6.61448C8.13067 5.11477 10.1413 4.29076 12.2672 4.29076C14.3932 4.29076 16.4038 5.11477 17.9035 6.61448C21.0182 9.72925 21.0182 14.7887 17.9035 17.9035C16.4038 19.4032 14.3932 20.2272 12.2672 20.2272ZM21.7434 23.5068C21.6115 23.5068 21.4797 23.4573 21.3808 23.3584L19.1725 21.1501C19.5515 20.8534 19.8976 20.5568 20.2272 20.2107C20.6062 19.8481 20.9358 19.4526 21.249 19.0406L23.4738 21.2655C23.6716 21.4632 23.6716 21.7763 23.4738 21.9741C23.3749 22.0565 23.2596 22.1059 23.1277 22.1059C23.0124 22.1059 22.9135 22.073 22.8311 22.0071L22.1883 22.7981C22.2707 22.9794 22.2378 23.1936 22.0895 23.3584C21.9906 23.4573 21.8587 23.5068 21.7434 23.5068Z" fill="#2970FF"/>
<path fill-rule="evenodd" clip-rule="evenodd" d="M27.9895 30.0001C27.4292 30.0001 26.8853 29.7858 26.4898 29.3738L21.8424 24.7429C21.4469 24.3473 21.2326 23.8035 21.2326 23.2432C21.2326 22.6663 21.4469 22.1225 21.8424 21.727C22.2544 21.3314 22.7818 21.1007 23.3586 21.1007C23.9354 21.1007 24.4627 21.3314 24.8748 21.727L29.5057 26.3579C30.3297 27.1984 30.3297 28.5498 29.5057 29.3738C29.0937 29.7858 28.5663 30.0001 27.9895 30.0001ZM8.93832 15.5963C7.09252 13.7505 7.09252 10.7676 8.93832 8.92179C9.1196 8.72403 9.1196 8.4109 8.93832 8.22962C8.74055 8.03186 8.42743 8.03186 8.22966 8.22962C6.00483 10.4545 6.00483 14.0636 8.22966 16.2885C8.32855 16.3874 8.46039 16.4368 8.57575 16.4368C8.70759 16.4368 8.83943 16.3874 8.93832 16.2885C9.1196 16.1072 9.1196 15.7941 8.93832 15.5963Z" fill="#2970FF"/>
</svg>
