<svg width="32" height="32" viewBox="0 0 32 32" fill="none" xmlns="http://www.w3.org/2000/svg">
<path fill-rule="evenodd" clip-rule="evenodd" d="M11.1945 25.3394V24.1851C11.1945 24.1203 11.2286 24.0647 11.2864 24.0354C11.314 24.0211 11.345 24.0148 11.376 24.0173C11.407 24.0199 11.4366 24.0311 11.4614 24.0498L14.9351 26.5983C14.9558 26.6131 14.9729 26.6325 14.9848 26.6551C14.9966 26.6776 15.0031 26.7027 15.0035 26.7282C15.0047 26.7537 14.9999 26.7791 14.9895 26.8023C14.979 26.8256 14.9633 26.8461 14.9435 26.8622L11.4699 29.7695C11.4456 29.7903 11.4158 29.8036 11.384 29.8078C11.3523 29.8119 11.3201 29.8067 11.2912 29.7928C11.2621 29.7797 11.2374 29.7583 11.2202 29.7313C11.203 29.7043 11.1941 29.6729 11.1945 29.6409V28.5721C5.73302 28.5721 3.94169 24.5569 5.52843 21.7014C6.40612 25.1192 9.27212 25.3394 11.1945 25.3394ZM11.1698 18.44V18.6596C11.1698 19.0817 10.8244 19.427 10.4024 19.427H7.83238C7.41023 19.427 7.0649 19.0818 7.0649 18.6596V18.44H11.1698ZM10.3824 19.8904C10.3704 20.3022 10.0298 20.6353 9.61538 20.6353H8.61937C8.20488 20.6353 7.86436 20.3022 7.85228 19.8904H10.3824ZM9.09168 4.97531C11.7 4.97531 13.8144 7.08971 13.8144 9.69801C13.8144 12.3209 12.1388 12.1642 11.9117 16.0304H10.2648V11.2014H11.0047C11.4052 11.2014 11.7691 11.0378 12.0326 10.7743C12.2961 10.5108 12.4597 10.1469 12.4597 9.74643C12.4597 9.34591 12.2961 8.98202 12.0326 8.7185C11.7691 8.45498 11.4052 8.29137 11.0047 8.29137C10.2044 8.29137 9.54968 8.94618 9.54968 9.74643V10.4863H8.63369V9.74654C8.63369 9.34603 8.47008 8.98214 8.20656 8.71861C7.94303 8.45509 7.57914 8.29148 7.17868 8.29148C6.37844 8.29148 5.72368 8.94624 5.72368 9.74654C5.72368 10.5468 6.37844 11.2015 7.17868 11.2015H7.9186V16.0305H6.27175C6.04452 12.1643 4.36899 12.321 4.36899 9.69812C4.36899 7.08977 6.48339 4.97531 9.09168 4.97531ZM9.54968 16.0304V11.2015H8.63369V16.0304H9.54968ZM7.9186 10.4864V9.74654C7.9186 9.54346 7.83523 9.35855 7.70098 9.22424C7.56673 9.08994 7.38182 9.00663 7.17868 9.00663C6.77174 9.00663 6.43877 9.3396 6.43877 9.74654C6.43877 10.1535 6.77174 10.4865 7.17868 10.4865H7.9186V10.4864ZM10.2648 10.4864H11.0047C11.2078 10.4864 11.3927 10.403 11.527 10.2688C11.6612 10.1345 11.7446 9.94956 11.7446 9.74648C11.7446 9.5434 11.6612 9.35849 11.527 9.22419C11.3927 9.08988 11.2078 9.00657 11.0047 9.00657C10.5977 9.00657 10.2648 9.33954 10.2648 9.74648V10.4864ZM11.9116 16.6126V17.0904C11.9116 17.5125 11.5662 17.8579 11.1442 17.8579H7.03918C6.61719 17.8579 6.27175 17.5126 6.27175 17.0904V16.6126H11.9116ZM3.53195 6.42797C3.62561 6.48448 3.69335 6.5755 3.72057 6.68145C3.74779 6.7874 3.73233 6.8998 3.67751 6.99446C3.62268 7.08913 3.53289 7.15848 3.42745 7.1876C3.322 7.21672 3.20934 7.20327 3.11371 7.15016L2.21288 6.63004C2.1647 6.60297 2.12239 6.56661 2.08838 6.52306C2.05437 6.4795 2.02936 6.42963 2.01478 6.37633C2.0002 6.32303 1.99636 6.26736 2.00347 6.21257C2.01058 6.15777 2.0285 6.10493 2.05619 6.05711C2.08388 6.0093 2.1208 5.96746 2.16479 5.93402C2.20879 5.90059 2.25898 5.87622 2.31247 5.86234C2.36595 5.84846 2.42166 5.84534 2.47636 5.85316C2.53106 5.86099 2.58366 5.87959 2.63112 5.90791L3.53195 6.42797ZM9.50992 3.45841C9.50992 3.56934 9.46586 3.67572 9.38742 3.75415C9.30899 3.83259 9.20261 3.87665 9.09168 3.87665C8.98076 3.87665 8.87438 3.83259 8.79594 3.75415C8.71751 3.67572 8.67344 3.56934 8.67344 3.45841V2.41824C8.67344 2.30732 8.71751 2.20093 8.79594 2.1225C8.87438 2.04406 8.98076 2 9.09168 2C9.20261 2 9.30899 2.04406 9.38742 2.1225C9.46586 2.20093 9.50992 2.30732 9.50992 2.41824V3.45841ZM12.7834 4.55836C12.728 4.65344 12.6372 4.72274 12.5309 4.75112C12.4246 4.7795 12.3114 4.76466 12.216 4.70984C12.1206 4.65501 12.0508 4.56466 12.0218 4.45852C11.9928 4.35238 12.007 4.23908 12.0612 4.14336L12.5814 3.24253C12.637 3.14794 12.7277 3.07913 12.8337 3.05105C12.9398 3.02296 13.0527 3.03787 13.1478 3.09254C13.243 3.1472 13.3127 3.23721 13.3418 3.34299C13.371 3.44877 13.3572 3.56179 13.3035 3.65747L12.7834 4.55836ZM15.068 7.15016C15.0206 7.17741 14.9682 7.19505 14.914 7.20208C14.8598 7.20911 14.8047 7.20539 14.7519 7.19113C14.6991 7.17687 14.6496 7.15235 14.6063 7.11897C14.563 7.08559 14.5267 7.04401 14.4994 6.99659C14.4722 6.94917 14.4545 6.89685 14.4475 6.84262C14.4405 6.78839 14.4442 6.7333 14.4584 6.6805C14.4727 6.62771 14.4972 6.57824 14.5306 6.53491C14.564 6.49159 14.6056 6.45527 14.653 6.42802L15.5538 5.90791C15.6496 5.8529 15.7633 5.83818 15.8699 5.86699C15.9765 5.89579 16.0674 5.96576 16.1224 6.06151C16.1774 6.15728 16.1921 6.27098 16.1633 6.3776C16.1345 6.48423 16.0646 6.57505 15.9688 6.6301L15.068 7.15016ZM6.12213 4.14336C6.17438 4.23896 6.1871 4.35122 6.15758 4.45608C6.12805 4.56094 6.05861 4.65006 5.96415 4.70434C5.8697 4.75862 5.75774 4.77373 5.65227 4.74645C5.5468 4.71916 5.45622 4.65164 5.39994 4.55836L4.87988 3.65752C4.82485 3.56176 4.81013 3.44805 4.83894 3.34143C4.86775 3.2348 4.93773 3.14398 5.0335 3.08896C5.12927 3.03394 5.24298 3.01921 5.3496 3.04802C5.45623 3.07683 5.54704 3.14682 5.60207 3.24258L6.12213 4.14336ZM22.6058 20.8817C21.1684 20.8817 20.0031 22.0469 20.0031 23.4843C20.0031 24.9217 21.1684 26.0869 22.6058 26.0869C24.0432 26.0869 25.2084 24.9217 25.2084 23.4843C25.2084 22.0469 24.0432 20.8817 22.6058 20.8817ZM23.7902 18.8656C24.2271 18.9774 24.6459 19.151 25.0337 19.3813L26.5903 18.2542L27.8358 19.4998L26.7088 21.0564C26.939 21.4443 27.1126 21.863 27.2244 22.2999L29.1215 22.6036V24.3651L27.2245 24.6687C27.1127 25.1056 26.939 25.5244 26.7088 25.9122L27.8358 27.4688L26.5902 28.7144L25.0336 27.5874C24.6458 27.8175 24.227 27.9911 23.7901 28.1029L23.4864 30H21.725L21.4213 28.1031C20.9843 27.9912 20.5656 27.8176 20.1778 27.5874L18.6212 28.7144L17.3756 27.4688L18.5026 25.9122C18.2724 25.5244 18.0988 25.1056 17.987 24.6687L16.09 24.365V22.6035L17.9871 22.2999C18.0989 21.8629 18.2725 21.4442 18.5027 21.0563L17.3757 19.4997L18.6212 18.2542L20.1778 19.3811C20.5656 19.1509 20.9844 18.9773 21.4214 18.8655L21.725 16.9685H23.4865L23.7902 18.8656ZM19.9864 11.7649C22.0469 11.7649 25.1186 12.0008 26.0594 15.6641C27.7601 12.6037 25.8401 8.30015 19.9864 8.30015V7.1288C19.9864 7.06209 19.9501 7.00506 19.8897 6.97682C19.8609 6.96291 19.8286 6.9577 19.7969 6.96186C19.7651 6.96601 19.7353 6.97933 19.711 7.0002L15.9565 10.1426C15.9367 10.1587 15.9209 10.1792 15.9105 10.2025C15.9001 10.2257 15.8953 10.2511 15.8965 10.2766C15.8982 10.3298 15.922 10.375 15.9649 10.4065L19.7194 13.1611C19.7717 13.1994 19.8366 13.2047 19.8944 13.1754C19.9523 13.1461 19.9864 13.0906 19.9864 13.0258V11.7649H19.9864Z" fill="#2970FF"/>
</svg>
