<svg width="85" height="20" viewBox="0 0 85 20" fill="none" xmlns="http://www.w3.org/2000/svg">
<path d="M5.564 19.194C5.156 19.194 4.742 19.146 4.322 19.05C3.914 18.966 3.506 18.846 3.098 18.69C2.246 18.318 1.568 17.844 1.064 17.268C0.38 16.44 0.0379999 15.864 0.0379999 15.54C0.0379999 15.3 0.236 15.18 0.632 15.18C0.74 15.18 0.818 15.216 0.866 15.288C0.914 15.36 0.98 15.456 1.064 15.576C1.136 15.696 1.232 15.84 1.352 16.008C2.432 17.352 3.506 18.024 4.574 18.024C6.998 18.024 8.96 16.254 10.46 12.714C10.376 12.726 10.286 12.732 10.19 12.732C10.106 12.732 10.016 12.732 9.92 12.732C8.936 12.732 8.132 12.474 7.508 11.958C6.884 11.418 6.572 10.644 6.572 9.636C6.572 8.304 7.1 7.056 8.156 5.892C9.128 4.812 10.286 4.056 11.63 3.624C11.438 2.916 11.186 2.334 10.874 1.878L11.036 2.4C11.036 2.544 10.952 2.748 10.784 3.012C10.616 3.288 10.508 3.426 10.46 3.426C10.328 3.426 10.262 3.198 10.262 2.742V2.616C10.574 2.172 10.73 1.83 10.73 1.59C10.73 1.482 10.712 1.374 10.676 1.266C11.192 1.746 11.576 2.508 11.828 3.552C12.548 3.324 13.37 3.21 14.294 3.21C14.39 3.21 14.498 3.21 14.618 3.21C14.738 3.21 14.87 3.216 15.014 3.228L15.194 2.94C15.83 1.92 16.502 1.41 17.21 1.41C17.366 1.41 17.528 1.458 17.696 1.554C17.876 1.65 17.966 1.77 17.966 1.914C17.966 2.13 17.894 2.238 17.75 2.238C17.714 2.238 17.624 2.148 17.48 1.968C17.324 1.776 17.132 1.68 16.904 1.68C16.352 1.68 15.89 2.202 15.518 3.246C15.794 3.258 16.034 3.27 16.238 3.282C16.442 3.282 16.616 3.282 16.76 3.282C18.416 3.282 19.244 2.844 19.244 1.968C19.244 1.764 19.19 1.554 19.082 1.338C18.974 1.122 18.92 0.996 18.92 0.959999C18.92 0.923999 18.938 0.905999 18.974 0.905999C19.082 0.905999 19.178 1.056 19.262 1.356C19.346 1.596 19.388 1.794 19.388 1.95C19.388 2.118 19.364 2.268 19.316 2.4C19.004 3.312 18.2 3.768 16.904 3.768C16.832 3.768 16.676 3.762 16.436 3.75C16.196 3.726 15.866 3.714 15.446 3.714H15.374L14.726 6.072C14.39 7.296 14.09 8.37 13.826 9.294C13.562 10.218 13.322 10.998 13.106 11.634C13.85 11.13 14.372 10.5 14.672 9.744C14.756 9.564 14.798 9.402 14.798 9.258C14.798 9.174 14.774 9.114 14.726 9.078C14.69 9.042 14.672 9.018 14.672 9.006C14.672 8.91 14.738 8.862 14.87 8.862C15.062 8.862 15.158 9 15.158 9.276C15.158 9.396 15.122 9.54 15.05 9.708C14.69 10.572 14.012 11.298 13.016 11.886L12.944 12.102C12.704 12.834 12.446 13.488 12.17 14.064C11.894 14.628 11.63 15.12 11.378 15.54C9.842 17.976 7.904 19.194 5.564 19.194ZM10.946 12.372C11.318 12.336 11.66 12.264 11.972 12.156C12.176 11.484 12.434 10.638 12.746 9.618C13.07 8.598 13.448 7.416 13.88 6.072C14.048 5.544 14.21 5.076 14.366 4.668C14.534 4.26 14.678 3.924 14.798 3.66C14.006 3.588 13.496 3.552 13.268 3.552C12.74 3.552 12.272 3.612 11.864 3.732C11.96 4.14 12.032 4.56 12.08 4.992C12.128 5.424 12.152 5.868 12.152 6.324C12.152 8.208 11.75 10.224 10.946 12.372ZM10.568 12.372H10.604C10.796 11.904 10.97 11.43 11.126 10.95C11.282 10.458 11.42 9.966 11.54 9.474C11.384 8.97 11.078 8.718 10.622 8.718C10.55 8.718 10.466 8.736 10.37 8.772V8.682C10.37 8.502 10.442 8.334 10.586 8.178C10.73 8.022 10.892 7.944 11.072 7.944C11.468 7.944 11.66 8.274 11.648 8.934C11.828 8.046 11.918 7.152 11.918 6.252C11.918 5.796 11.894 5.364 11.846 4.956C11.81 4.548 11.75 4.158 11.666 3.786C10.538 4.134 9.554 4.884 8.714 6.036C8.306 6.612 7.994 7.194 7.778 7.782C7.562 8.358 7.454 8.946 7.454 9.546C7.454 10.422 7.76 11.124 8.372 11.652C8.948 12.132 9.68 12.372 10.568 12.372ZM5.474 18.924C7.358 18.924 9.074 17.688 10.622 15.216C10.838 14.868 11.054 14.46 11.27 13.992C11.486 13.524 11.69 12.996 11.882 12.408C11.714 12.456 11.54 12.504 11.36 12.552C11.18 12.6 11 12.636 10.82 12.66C9.704 15.456 8.198 17.232 6.302 17.988C5.87 18.168 5.372 18.258 4.808 18.258C3.44 18.258 2.36 17.85 1.568 17.034C2.804 18.294 4.106 18.924 5.474 18.924ZM15.4387 15.324C14.9947 15.324 14.7727 15 14.7727 14.352C14.7727 14.184 14.7907 13.998 14.8267 13.794C14.8627 13.59 14.9107 13.374 14.9707 13.146C15.0907 12.726 15.2707 12.252 15.5107 11.724C15.8707 10.98 16.1707 10.608 16.4107 10.608C16.6387 10.608 16.8247 10.734 16.9687 10.986C17.0647 10.95 17.1427 10.932 17.2027 10.932C17.5387 10.932 17.7067 11.184 17.7067 11.688C17.7067 11.904 17.6647 12.156 17.5807 12.444C17.4967 12.732 17.3527 13.092 17.1487 13.524C17.4487 13.8 17.7427 13.938 18.0307 13.938C18.2587 13.938 18.4747 13.884 18.6787 13.776C18.8827 13.656 19.1107 13.428 19.3627 13.092C19.3867 13.068 19.4227 13.056 19.4707 13.056C19.5067 13.056 19.5247 13.092 19.5247 13.164C19.5247 13.236 19.4947 13.314 19.4347 13.398C19.2787 13.602 19.0807 13.788 18.8407 13.956C18.6127 14.112 18.3247 14.19 17.9767 14.19C17.6287 14.19 17.3167 14.07 17.0407 13.83C16.5847 14.826 16.0507 15.324 15.4387 15.324ZM16.9327 13.29C17.0287 13.074 17.1007 12.852 17.1487 12.624C17.1967 12.396 17.2207 12.15 17.2207 11.886C17.2207 11.478 17.1007 11.274 16.8607 11.274C16.6327 11.274 16.5187 11.496 16.5187 11.94C16.5187 12.132 16.5607 12.366 16.6447 12.642C16.7407 12.918 16.8367 13.134 16.9327 13.29ZM15.7627 14.82C15.9307 14.82 16.1407 14.658 16.3927 14.334C16.5007 14.202 16.5907 14.07 16.6627 13.938C16.7347 13.794 16.7827 13.698 16.8067 13.65C16.6267 13.446 16.4707 13.23 16.3387 13.002C16.2067 12.774 16.1287 12.54 16.1047 12.3C15.9607 12.42 15.8107 12.732 15.6547 13.236C15.4987 13.74 15.4207 14.106 15.4207 14.334C15.4207 14.658 15.5347 14.82 15.7627 14.82ZM22.2448 15.09C21.8128 15.09 21.5968 14.82 21.5968 14.28C21.5968 13.992 21.7048 13.632 21.9208 13.2C22.1248 12.72 22.2268 12.372 22.2268 12.156C22.2268 12 22.1668 11.88 22.0468 11.796C21.9388 11.712 21.8008 11.634 21.6328 11.562C21.5128 11.502 21.3868 11.43 21.2548 11.346C21.1228 11.262 21.0148 11.178 20.9308 11.094C20.8468 11.274 20.6608 11.586 20.3728 12.03C20.0848 12.474 19.7728 12.93 19.4368 13.398C19.3888 13.458 19.3408 13.488 19.2928 13.488C19.2448 13.488 19.2208 13.446 19.2208 13.362C19.2208 13.278 19.2688 13.188 19.3648 13.092C19.4608 12.972 19.5988 12.78 19.7788 12.516C19.9588 12.24 20.1388 11.946 20.3188 11.634C20.4988 11.31 20.6368 11.028 20.7328 10.788C20.6728 10.584 20.6248 10.41 20.5888 10.266C20.5528 10.122 20.5348 9.978 20.5348 9.834C20.5348 9.582 20.6068 9.354 20.7508 9.15C20.8948 8.946 21.0808 8.844 21.3088 8.844C21.6328 8.844 21.7948 9.036 21.7948 9.42C21.7948 9.84 21.6328 10.278 21.3088 10.734C21.3568 10.806 21.4168 10.866 21.4888 10.914C21.5608 10.962 21.6748 11.016 21.8308 11.076C21.9148 11.112 21.9928 11.136 22.0648 11.148C22.1488 11.16 22.2208 11.166 22.2808 11.166C22.3768 11.166 22.4548 11.16 22.5148 11.148C22.5868 11.136 22.6468 11.13 22.6948 11.13C22.7668 11.13 22.8508 11.172 22.9468 11.256C23.0548 11.328 23.1088 11.442 23.1088 11.598C23.1088 11.682 23.1028 11.736 23.0908 11.76C23.0788 11.784 23.0428 11.886 22.9828 12.066C22.9348 12.234 22.8448 12.474 22.7128 12.786C22.4728 13.41 22.3528 13.848 22.3528 14.1C22.3528 14.436 22.4668 14.604 22.6948 14.604C22.9468 14.604 23.2468 14.454 23.5948 14.154C23.9548 13.854 24.2848 13.5 24.5848 13.092C24.6208 13.056 24.6508 13.038 24.6748 13.038C24.7228 13.038 24.7468 13.08 24.7468 13.164C24.7468 13.248 24.7168 13.326 24.6568 13.398C24.1768 14.034 23.7448 14.478 23.3608 14.73C22.9768 14.97 22.6048 15.09 22.2448 15.09ZM24.9819 15.09C24.4539 15.09 24.1899 14.796 24.1899 14.208C24.1899 13.5 24.6759 12.768 25.6479 12.012C26.5479 11.304 27.3819 10.95 28.1499 10.95C28.1859 10.95 28.2279 10.956 28.2759 10.968C28.3359 10.98 28.3839 10.986 28.4199 10.986C28.4439 10.986 28.5099 10.824 28.6179 10.5L30.0579 6.468C30.1419 6.24 30.2439 5.964 30.3639 5.64C30.4839 5.316 30.6339 4.944 30.8139 4.524C30.9219 4.32 30.9999 4.218 31.0479 4.218C31.3239 4.218 31.4619 4.338 31.4619 4.578C31.4619 4.746 31.4079 5.01 31.2999 5.37C31.2039 5.73 31.0479 6.18 30.8319 6.72L29.9679 8.898C29.7639 9.426 29.5839 9.93 29.4279 10.41C29.2839 10.878 29.1579 11.316 29.0499 11.724C28.9299 12.156 28.8699 12.678 28.8699 13.29C28.8699 14.25 29.0979 14.73 29.5539 14.73C29.8299 14.73 30.1419 14.616 30.4899 14.388C30.8499 14.16 31.2759 13.728 31.7679 13.092C31.7919 13.068 31.8279 13.026 31.8759 12.966C31.9359 12.906 31.9719 12.876 31.9839 12.876C32.0199 12.876 32.0379 12.9 32.0379 12.948C32.0379 13.02 32.0199 13.098 31.9839 13.182C31.9479 13.254 31.8999 13.326 31.8399 13.398C31.3959 14.022 30.9639 14.46 30.5439 14.712C30.1239 14.952 29.7279 15.072 29.3559 15.072C28.5039 15.072 28.0659 14.25 28.0419 12.606C27.9579 12.798 27.7959 13.02 27.5559 13.272C27.3279 13.512 27.0339 13.788 26.6739 14.1C25.9059 14.76 25.3419 15.09 24.9819 15.09ZM25.4319 14.46C25.7799 14.46 26.2179 14.196 26.7459 13.668C26.9499 13.464 27.1299 13.266 27.2859 13.074C27.4539 12.87 27.6159 12.66 27.7719 12.444C27.8919 12.24 27.9999 12.048 28.0959 11.868C28.1919 11.676 28.2699 11.49 28.3299 11.31C28.2819 11.298 28.2279 11.292 28.1679 11.292C28.1079 11.28 28.0359 11.274 27.9519 11.274C26.8599 11.274 25.9779 11.88 25.3059 13.092C25.1019 13.428 24.9999 13.734 24.9999 14.01C24.9999 14.31 25.1439 14.46 25.4319 14.46ZM31.973 15.108C31.481 15.108 31.235 14.868 31.235 14.388C31.235 13.932 31.565 13.296 32.225 12.48C32.825 11.724 33.347 11.202 33.791 10.914C34.235 10.626 34.649 10.482 35.033 10.482C35.489 10.482 35.717 10.614 35.717 10.878C35.717 10.938 35.657 11.028 35.537 11.148C35.417 11.256 35.351 11.322 35.339 11.346C35.111 11.718 34.997 12.474 34.997 13.614C34.997 14.274 35.141 14.604 35.429 14.604C35.693 14.604 35.999 14.448 36.347 14.136C36.695 13.824 37.019 13.476 37.319 13.092C37.355 13.056 37.385 13.038 37.409 13.038C37.457 13.038 37.481 13.068 37.481 13.128C37.481 13.152 37.469 13.194 37.445 13.254C37.433 13.314 37.415 13.362 37.391 13.398C36.899 14.058 36.473 14.502 36.113 14.73C35.765 14.958 35.423 15.072 35.087 15.072C34.547 15.072 34.283 14.496 34.295 13.344C34.067 13.752 33.737 14.136 33.305 14.496C32.801 14.904 32.357 15.108 31.973 15.108ZM32.459 14.622C32.663 14.622 32.879 14.538 33.107 14.37C33.815 13.806 34.277 12.75 34.493 11.202C34.457 11.202 34.433 11.196 34.421 11.184C34.181 11.184 33.863 11.328 33.467 11.616C33.131 11.844 32.861 12.09 32.657 12.354C32.177 12.978 31.937 13.518 31.937 13.974C31.937 14.406 32.111 14.622 32.459 14.622ZM37.2401 15.162C37.1561 15.162 37.0661 15.108 36.9701 15C36.8861 14.892 36.8441 14.796 36.8441 14.712V14.658L37.0061 14.352C37.1021 14.076 37.1981 13.746 37.2941 13.362C37.3901 12.966 37.4801 12.516 37.5641 12.012C37.5761 11.892 37.5941 11.766 37.6181 11.634C37.6421 11.49 37.6661 11.328 37.6901 11.148C37.7501 10.908 37.9361 10.788 38.2481 10.788C38.3441 10.788 38.3921 10.824 38.3921 10.896C38.3921 10.92 38.3801 11.004 38.3561 11.148C38.3321 11.292 38.2961 11.49 38.2481 11.742C38.2001 12.018 38.1401 12.318 38.0681 12.642C38.0081 12.966 37.9361 13.314 37.8521 13.686L38.6981 12.264C39.1181 11.556 39.4721 11.202 39.7601 11.202C39.9401 11.202 40.0361 11.31 40.0481 11.526C40.0841 12.03 40.1081 12.528 40.1201 13.02C40.1441 13.512 40.2101 13.92 40.3181 14.244C40.4381 14.568 40.6481 14.73 40.9481 14.73C41.1521 14.73 41.3501 14.688 41.5421 14.604C41.7461 14.52 41.9741 14.364 42.2261 14.136C42.4781 13.896 42.7781 13.548 43.1261 13.092C43.1381 13.068 43.1621 13.038 43.1981 13.002C43.2341 12.966 43.2761 12.948 43.3241 12.948C43.3721 12.948 43.3961 12.972 43.3961 13.02C43.3961 13.068 43.3661 13.134 43.3061 13.218C43.2581 13.302 43.2221 13.362 43.1981 13.398C42.8741 13.878 42.5081 14.28 42.1001 14.604C41.6921 14.928 41.3081 15.09 40.9481 15.09C40.4201 15.09 40.0301 14.826 39.7781 14.298C39.5381 13.758 39.3701 12.996 39.2741 12.012C39.0821 12.216 38.8541 12.522 38.5901 12.93C38.3381 13.338 38.0441 13.86 37.7081 14.496C37.6841 14.556 37.6481 14.628 37.6001 14.712C37.5521 14.784 37.4981 14.88 37.4381 15C37.3901 15.108 37.3241 15.162 37.2401 15.162ZM47.7073 17.7C47.5153 17.7 47.3353 17.634 47.1673 17.502C46.9993 17.382 46.9153 17.22 46.9153 17.016C46.9153 16.704 46.9993 16.548 47.1673 16.548C47.1913 16.548 47.3473 16.662 47.6353 16.89C47.8993 17.13 48.1753 17.25 48.4633 17.25C49.3513 17.25 50.3173 16.092 51.3613 13.776L51.1993 13.542L51.1093 13.758C51.1093 13.77 51.0973 13.788 51.0733 13.812C51.0373 13.812 51.0133 13.77 51.0013 13.686C51.0133 13.662 51.0193 13.632 51.0193 13.596L51.1093 13.398C50.6413 12.654 50.4073 11.814 50.4073 10.878C50.4073 10.746 50.4913 10.596 50.6593 10.428C50.8273 10.284 50.9293 10.17 50.9653 10.086C51.0013 10.014 51.0373 9.864 51.0733 9.636C51.0973 9.552 51.1333 9.504 51.1813 9.492C51.1933 9.492 51.1993 9.714 51.1993 10.158C51.1993 10.566 51.2233 10.956 51.2713 11.328C51.3313 11.688 51.4033 12.042 51.4873 12.39C51.7873 11.586 51.9913 10.86 52.0993 10.212C52.0753 10.26 52.0333 10.326 51.9733 10.41C51.9253 10.494 51.8533 10.536 51.7573 10.536C51.7213 10.536 51.7033 10.518 51.7033 10.482C51.7033 10.434 51.7513 10.35 51.8473 10.23C51.9433 10.098 52.0393 9.972 52.1353 9.852C52.1473 9.72 52.1533 9.594 52.1533 9.474C52.1653 9.342 52.1713 9.21 52.1713 9.078C52.1713 8.838 52.1593 8.598 52.1353 8.358C52.1233 8.106 52.0933 7.854 52.0453 7.602C51.9013 6.954 51.6433 6.408 51.2713 5.964C50.8273 5.448 50.2993 5.202 49.6873 5.226H49.6333C50.0293 5.262 50.2273 5.484 50.2273 5.892C50.2273 6.108 50.1433 6.3 49.9753 6.468C49.8313 5.928 49.5433 5.658 49.1113 5.658C49.0633 5.658 49.0153 5.664 48.9673 5.676C48.9193 5.676 48.8713 5.682 48.8233 5.694V5.676C48.7993 5.184 49.1113 4.938 49.7593 4.938C50.3713 4.938 50.9353 5.196 51.4513 5.712C51.9193 6.168 52.2193 6.732 52.3513 7.404C52.4353 7.776 52.4773 8.196 52.4773 8.664C52.4773 8.952 52.4593 9.252 52.4233 9.564C52.5193 9.468 52.6153 9.378 52.7113 9.294C52.8193 9.21 52.9213 9.132 53.0173 9.06C53.7493 6.888 54.4393 5.214 55.0873 4.038C54.1513 3.894 53.1433 3.822 52.0633 3.822C48.1633 3.822 46.2133 4.482 46.2133 5.802C46.2133 6.534 46.8853 7.17 48.2293 7.71L48.2653 7.746C48.2653 7.782 48.2053 7.806 48.0853 7.818C47.6413 7.818 47.1133 7.548 46.5013 7.008C45.8893 6.468 45.5833 5.958 45.5833 5.478C45.5833 4.434 46.5253 3.75 48.4093 3.426C48.9973 3.33 49.6033 3.258 50.2273 3.21C50.8633 3.15 51.5173 3.12 52.1893 3.12C52.7893 3.12 53.3593 3.144 53.8993 3.192C54.4393 3.228 54.9673 3.288 55.4833 3.372C56.4193 1.944 57.3973 1.23 58.4173 1.23C59.1013 1.23 59.6233 1.584 59.9833 2.292C59.9953 2.316 60.0013 2.388 60.0013 2.508C60.0013 2.76 59.9413 2.886 59.8213 2.886C59.8093 2.886 59.6353 2.664 59.2993 2.22C58.9633 1.776 58.5673 1.554 58.1113 1.554C57.2233 1.554 56.4193 2.172 55.6993 3.408C56.0833 3.468 56.4433 3.546 56.7793 3.642C57.1153 3.726 57.4333 3.816 57.7333 3.912C59.2573 4.452 60.0193 5.118 60.0193 5.91C60.0193 6.846 58.8913 7.584 56.6353 8.124C57.1993 8.172 57.7033 8.274 58.1473 8.43C58.6033 8.586 59.0053 8.79 59.3533 9.042C60.1693 9.654 60.5773 10.476 60.5773 11.508C60.5773 12.444 60.2293 13.296 59.5333 14.064C58.8853 14.772 58.0753 15.234 57.1033 15.45C56.6353 15.57 56.1433 15.63 55.6273 15.63C54.0073 15.63 52.7053 15.138 51.7213 14.154C50.6053 16.518 49.2673 17.7 47.7073 17.7ZM53.6653 8.7C54.0253 8.532 54.9193 8.268 56.3473 7.908C58.1953 7.416 59.1193 6.792 59.1193 6.036C59.1193 5.496 58.5373 5.004 57.3733 4.56C56.7853 4.356 56.1073 4.194 55.3393 4.074C55.1353 4.518 54.8893 5.124 54.6013 5.892C54.3253 6.66 54.0133 7.596 53.6653 8.7ZM55.2493 15.378C56.4373 15.378 57.4333 14.994 58.2373 14.226C59.0533 13.458 59.4613 12.48 59.4613 11.292C59.4613 9.432 58.3933 8.502 56.2573 8.502C55.2973 8.502 54.4033 8.676 53.5753 9.024C53.2393 10.056 52.9393 10.95 52.6753 11.706C52.4233 12.462 52.1953 13.08 51.9913 13.56C52.7113 14.772 53.7973 15.378 55.2493 15.378ZM51.7033 12.966L51.7213 12.912C51.7813 12.78 51.9133 12.42 52.1173 11.832C52.3213 11.232 52.5913 10.41 52.9273 9.366C52.8313 9.426 52.7353 9.492 52.6393 9.564C52.5553 9.624 52.4713 9.696 52.3873 9.78C52.3273 10.188 52.2313 10.632 52.0993 11.112C51.9673 11.592 51.7933 12.102 51.5773 12.642C51.6013 12.69 51.6193 12.744 51.6313 12.804C51.6553 12.852 51.6793 12.906 51.7033 12.966ZM63.4406 15.216C62.2286 15.216 61.6226 14.322 61.6226 12.534C61.6226 10.782 62.1986 8.88 63.3506 6.828C64.4786 4.788 65.5466 3.768 66.5546 3.768C66.9146 3.768 67.1546 4.014 67.2746 4.506V4.74C67.2746 5.604 66.6086 7.062 65.2766 9.114C64.7126 10.002 64.1786 10.776 63.6746 11.436C63.1826 12.096 62.7206 12.654 62.2886 13.11C62.4326 14.19 62.9306 14.73 63.7826 14.73C64.2986 14.73 64.7366 14.586 65.0966 14.298C65.4566 13.998 65.8406 13.596 66.2486 13.092C66.3206 13.02 66.3686 12.984 66.3926 12.984C66.4286 12.984 66.4466 13.014 66.4466 13.074C66.4466 13.158 66.4046 13.266 66.3206 13.398C65.8046 14.058 65.3186 14.526 64.8626 14.802C64.4066 15.078 63.9326 15.216 63.4406 15.216ZM62.3066 12.66C62.9546 12.024 63.8006 10.764 64.8446 8.88C65.9486 6.876 66.5006 5.496 66.5006 4.74C66.5006 4.404 66.4046 4.236 66.2126 4.236C65.4686 4.236 64.6226 5.304 63.6746 7.44C63.2306 8.496 62.8886 9.456 62.6486 10.32C62.4206 11.184 62.3066 11.964 62.3066 12.66ZM66.4437 15.108C65.9517 15.108 65.7057 14.868 65.7057 14.388C65.7057 13.932 66.0357 13.296 66.6957 12.48C67.2957 11.724 67.8177 11.202 68.2617 10.914C68.7057 10.626 69.1197 10.482 69.5037 10.482C69.9597 10.482 70.1877 10.614 70.1877 10.878C70.1877 10.938 70.1277 11.028 70.0077 11.148C69.8877 11.256 69.8217 11.322 69.8097 11.346C69.5817 11.718 69.4677 12.474 69.4677 13.614C69.4677 14.274 69.6117 14.604 69.8997 14.604C70.1637 14.604 70.4697 14.448 70.8177 14.136C71.1657 13.824 71.4897 13.476 71.7897 13.092C71.8257 13.056 71.8557 13.038 71.8797 13.038C71.9277 13.038 71.9517 13.068 71.9517 13.128C71.9517 13.152 71.9397 13.194 71.9157 13.254C71.9037 13.314 71.8857 13.362 71.8617 13.398C71.3697 14.058 70.9437 14.502 70.5837 14.73C70.2357 14.958 69.8937 15.072 69.5577 15.072C69.0177 15.072 68.7537 14.496 68.7657 13.344C68.5377 13.752 68.2077 14.136 67.7757 14.496C67.2717 14.904 66.8277 15.108 66.4437 15.108ZM66.9297 14.622C67.1337 14.622 67.3497 14.538 67.5777 14.37C68.2857 13.806 68.7477 12.75 68.9637 11.202C68.9277 11.202 68.9037 11.196 68.8917 11.184C68.6517 11.184 68.3337 11.328 67.9377 11.616C67.6017 11.844 67.3317 12.09 67.1277 12.354C66.6477 12.978 66.4077 13.518 66.4077 13.974C66.4077 14.406 66.5817 14.622 66.9297 14.622ZM75.9768 15.36C75.5208 15.36 75.1008 15.228 74.7168 14.964C74.3328 14.7 74.0568 14.256 73.8888 13.632C73.8768 13.548 73.8528 13.416 73.8168 13.236C73.7928 13.044 73.7628 12.792 73.7268 12.48C73.3668 12.804 72.9288 13.368 72.4128 14.172C72.3528 14.268 72.2748 14.388 72.1788 14.532C72.0948 14.664 71.9868 14.82 71.8548 15C71.8068 15.048 71.7408 15.072 71.6568 15.072C71.4408 15.072 71.3328 14.952 71.3328 14.712C71.3328 14.664 71.4888 14.154 71.8008 13.182C73.8888 6.762 75.0528 3.432 75.2928 3.192C75.3408 3.144 75.4188 3.12 75.5268 3.12C75.9108 3.12 76.1028 3.258 76.1028 3.534C76.1028 3.702 75.9408 4.2 75.6168 5.028C75.3408 5.724 75.0588 6.414 74.7708 7.098C74.4828 7.782 74.1948 8.466 73.9068 9.15C72.9948 11.382 72.5448 12.66 72.5568 12.984L74.4828 11.382C74.9028 11.034 75.2988 10.782 75.6708 10.626C76.0428 10.458 76.3668 10.374 76.6428 10.374C77.1948 10.374 77.4708 10.65 77.4708 11.202C77.4708 11.49 77.3388 11.76 77.0748 12.012C76.8228 12.252 76.5168 12.45 76.1568 12.606C75.7968 12.75 75.4548 12.822 75.1308 12.822C74.9628 12.822 74.8008 12.792 74.6448 12.732C74.6448 13.332 74.7828 13.842 75.0588 14.262C75.2148 14.502 75.4008 14.676 75.6168 14.784C75.8448 14.88 76.0788 14.928 76.3188 14.928C76.5588 14.928 76.8048 14.886 77.0568 14.802C77.3088 14.718 77.5368 14.616 77.7408 14.496C78.1008 14.268 78.3948 14.046 78.6228 13.83C78.8628 13.614 79.1028 13.368 79.3428 13.092C79.4028 13.032 79.4508 13.002 79.4868 13.002C79.5348 13.002 79.5588 13.032 79.5588 13.092C79.5588 13.128 79.5408 13.182 79.5048 13.254C79.4688 13.314 79.4388 13.362 79.4148 13.398C79.2468 13.614 79.0548 13.824 78.8388 14.028C78.6228 14.232 78.3648 14.436 78.0648 14.64C77.7528 14.868 77.4108 15.042 77.0388 15.162C76.6788 15.294 76.3248 15.36 75.9768 15.36ZM74.9148 12.408C75.2628 12.408 75.5988 12.312 75.9228 12.12C76.2468 11.928 76.4088 11.7 76.4088 11.436C76.4088 11.16 76.2468 11.022 75.9228 11.022C75.7188 11.022 75.5088 11.088 75.2928 11.22C75.0768 11.352 74.8728 11.508 74.6808 11.688C74.4888 11.856 74.3148 12.018 74.1588 12.174C74.3508 12.33 74.6028 12.408 74.9148 12.408ZM81.1238 15.144C80.6318 15.144 80.2058 15.006 79.8458 14.73C79.4978 14.442 79.3238 14.01 79.3238 13.434C79.3238 12.798 79.5338 12.144 79.9538 11.472C80.1698 11.124 80.4338 10.848 80.7458 10.644C81.0578 10.428 81.3338 10.32 81.5738 10.32C81.9218 10.32 82.0958 10.53 82.0958 10.95C82.0958 11.31 81.8558 11.748 81.3758 12.264C80.9318 12.72 80.5118 13.032 80.1158 13.2C80.1038 13.248 80.0918 13.302 80.0798 13.362C80.0798 13.41 80.0798 13.464 80.0798 13.524C80.0798 14.28 80.5298 14.658 81.4298 14.658C81.9458 14.658 82.4258 14.502 82.8698 14.19C83.3258 13.866 83.7218 13.5 84.0578 13.092C84.1178 13.02 84.1718 12.984 84.2198 12.984C84.2678 12.984 84.2918 13.008 84.2918 13.056C84.2918 13.104 84.2678 13.17 84.2198 13.254C84.1718 13.326 84.1358 13.374 84.1118 13.398C83.9198 13.662 83.7158 13.896 83.4998 14.1C83.2958 14.304 83.0198 14.502 82.6718 14.694C82.4198 14.85 82.1558 14.964 81.8798 15.036C81.6158 15.108 81.3638 15.144 81.1238 15.144ZM80.1878 12.822C80.3438 12.738 80.4938 12.642 80.6378 12.534C80.7938 12.414 80.9438 12.276 81.0878 12.12C81.4118 11.736 81.5738 11.4 81.5738 11.112C81.5738 10.932 81.5198 10.842 81.4118 10.842C81.3158 10.842 81.1898 10.926 81.0338 11.094C80.8898 11.25 80.7518 11.448 80.6198 11.688C80.3918 12.156 80.2478 12.534 80.1878 12.822Z" fill="url(#paint0_linear_6348_2364)"/>
<defs>
<linearGradient id="paint0_linear_6348_2364" x1="83.0519" y1="26" x2="-1.01091" y2="8.29858" gradientUnits="userSpaceOnUse">
<stop stop-color="#00294B"/>
<stop offset="1" stop-color="#3C6399"/>
</linearGradient>
</defs>
</svg>
