<svg width="32" height="32" viewBox="0 0 32 32" fill="none" xmlns="http://www.w3.org/2000/svg">
<g clip-path="url(#clip0_6348_2381)">
<path d="M31.6832 16.9024C31.2952 16.5596 30.7027 16.5964 30.3599 16.9844L30.3448 17.0014V16.3445C30.3448 12.5129 28.8526 8.91063 26.1431 6.20119C23.4339 3.49188 19.8316 2 16.0001 2C13.6856 2 11.3858 2.56444 9.34893 3.63206C7.37824 4.66506 5.64849 6.16769 4.34674 7.978C4.04449 8.39819 4.14018 8.98413 4.56062 9.28638C4.98099 9.58887 5.56693 9.49319 5.86918 9.07275C7.00149 7.49806 8.50593 6.19088 10.2196 5.29275C11.9888 4.36525 13.9876 3.875 16.0001 3.875C22.8758 3.875 28.4698 9.469 28.4698 16.3448V17.0017L28.4544 16.9846C28.1116 16.5964 27.5191 16.5598 27.1312 16.9026C26.743 17.2454 26.7064 17.8379 27.0491 18.2258L28.7044 20.0999C28.7924 20.1994 28.9006 20.2791 29.0217 20.3337C29.1428 20.3883 29.2742 20.4165 29.4071 20.4165C29.5399 20.4165 29.6713 20.3883 29.7924 20.3337C29.9135 20.2791 30.0217 20.1994 30.1097 20.0999L31.7649 18.2258C32.108 17.8377 32.0714 17.2451 31.6832 16.9024ZM27.4395 23.3994C27.0191 23.0972 26.4334 23.1926 26.1309 23.6131C24.9986 25.1875 23.4942 26.4946 21.7806 27.3931C20.0113 28.3206 18.0122 28.8108 16.0001 28.8108C9.1243 28.8108 3.5303 23.2168 3.5303 16.3411V15.6841L3.54568 15.7014C3.88849 16.0894 4.48099 16.1263 4.86893 15.7832C5.25712 15.4404 5.29374 14.8479 4.95099 14.4599L3.29568 12.5859C3.20773 12.4863 3.0996 12.4065 2.97846 12.3519C2.85732 12.2972 2.72595 12.269 2.59305 12.269C2.46016 12.269 2.32879 12.2972 2.20765 12.3519C2.08651 12.4065 1.97838 12.4863 1.89043 12.5859L0.234928 14.4599C-0.107885 14.8481 -0.0712596 15.4404 0.316928 15.7832C0.48792 15.9349 0.708685 16.0186 0.937303 16.0183C1.19662 16.0183 1.45487 15.9111 1.64018 15.7014L1.6553 15.6841V16.3411C1.6553 20.1729 3.14749 23.7749 5.85699 26.4844C8.56624 29.1939 12.1685 30.6858 16.0001 30.6858C18.3142 30.6858 20.6143 30.1213 22.6512 29.0537C24.6216 28.0208 26.3514 26.5178 27.6531 24.7078C27.9554 24.2874 27.8599 23.7016 27.4395 23.3994Z" fill="#2970FF"/>
<path d="M6.7532 18.7432C6.72128 18.862 6.71313 18.9861 6.72922 19.1081C6.7453 19.2302 6.78531 19.3478 6.84695 19.4544L8.72195 22.7022C8.84627 22.9174 9.05103 23.0745 9.29117 23.1388C9.53131 23.2032 9.78716 23.1695 10.0025 23.0451L11.3811 22.2493C11.9321 22.6797 12.5401 23.0315 13.1878 23.2947V24.8843C13.1878 25.4019 13.6075 25.8218 14.1253 25.8218H17.8753C18.3928 25.8218 18.8128 25.4019 18.8128 24.8843V23.2947C19.4605 23.0315 20.0685 22.6797 20.6194 22.2493L21.9981 23.0452C22.2134 23.1695 22.4691 23.2032 22.7093 23.139C22.8282 23.1071 22.9397 23.0521 23.0374 22.9772C23.1351 22.9022 23.2171 22.8088 23.2786 22.7022L25.1536 19.4544C25.2779 19.2391 25.3116 18.9833 25.2474 18.7432C25.1829 18.503 25.0258 18.2982 24.8105 18.1738L23.429 17.3763C23.4764 17.034 23.5003 16.6875 23.5003 16.3411C23.5003 15.9905 23.476 15.6406 23.4273 15.2945L24.8106 14.4959C25.026 14.3715 25.1831 14.1667 25.2474 13.9265C25.3117 13.6863 25.278 13.4304 25.1536 13.2151L23.2786 9.96759C23.0199 9.51934 22.4464 9.36571 21.9981 9.62453L20.6105 10.4258C20.0618 9.99865 19.4569 9.64927 18.8128 9.38753V7.7854C18.8128 7.2679 18.3931 6.8479 17.8753 6.8479H14.1253C13.6075 6.8479 13.1878 7.2679 13.1878 7.7854V9.38753C12.5437 9.64932 11.9389 9.99874 11.3904 10.4259L10.0025 9.62465C9.5542 9.36559 8.98077 9.5194 8.72195 9.96759L6.84695 13.2152C6.72262 13.4305 6.68891 13.6864 6.75324 13.9266C6.81756 14.1667 6.97465 14.3715 7.18995 14.4959L8.57327 15.2945C8.52464 15.6413 8.50025 15.991 8.50027 16.3411C8.50027 16.6875 8.5242 17.0337 8.57152 17.3763L7.19027 18.1738C7.08357 18.2354 6.99006 18.3173 6.91506 18.415C6.84007 18.5127 6.78507 18.6242 6.7532 18.7432ZM16.0003 13.5286C17.5535 13.5286 18.8128 14.7879 18.8128 16.3412C18.8128 17.8944 17.5535 19.1537 16.0003 19.1537C14.4468 19.1537 13.1878 17.8944 13.1878 16.3412C13.1878 14.7879 14.447 13.5286 16.0003 13.5286Z" fill="#2970FF"/>
</g>
<defs>
<clipPath id="clip0_6348_2381">
<rect width="32" height="32" fill="white"/>
</clipPath>
</defs>
</svg>
