<svg width="32" height="32" viewBox="0 0 32 32" fill="none" xmlns="http://www.w3.org/2000/svg">
<path d="M15.2079 30V18.323L7.87812 27.3848C10.0293 28.9396 12.553 29.8449 15.2079 30ZM16.8514 16.8221V30C20.2658 29.8006 23.4649 28.3618 25.934 25.8962C28.4037 23.4302 29.8458 20.2342 30.0456 16.8221H16.8514ZM24.2386 9.80281H26.2912V15.1786H24.2386V9.80281ZM6.13073 6.10431C3.46697 8.76675 2 12.2813 2 16.0004C2 19.7195 3.46697 23.234 6.13073 25.8965C6.28487 26.0503 6.44243 26.2007 6.60331 26.3474L15.2079 15.7095V2C11.7925 2.20005 8.59658 3.63966 6.13073 6.10431ZM16.8514 8.17022H18.899V15.1786H16.8514V8.17022ZM20.5425 4.21558H22.5951V15.1787H20.5425V4.21558ZM27.9348 12.0002H30.0696V15.1786H27.9348V12.0002Z" fill="#2970FF"/>
</svg>
