<svg width="188" height="40" viewBox="0 0 188 40" fill="none" xmlns="http://www.w3.org/2000/svg">
<g clipPath="url(#clip0_4361_741)">
<path fill-rule="evenodd" clip-rule="evenodd" d="M20.3693 4.567L23.0063 0L30.4823 4.317L27.8463 8.883C27.3833 9.684 28.0763 10.658 28.9843 10.483L34.0363 9.508L35.6713 17.985L30.6193 18.959C22.4473 20.535 16.2083 11.775 20.3693 4.567Z" fill="#3F3C3D"/>
<path fill-rule="evenodd" clip-rule="evenodd" d="M15.802 35.4333L13.165 40.0003L5.688 35.6843L8.325 31.1173C8.788 30.3163 8.095 29.3423 7.186 29.5173L2.135 30.4913L0.5 22.0153L5.552 21.0413C13.724 19.4653 19.962 28.2253 15.802 35.4333Z" fill="#3F3C3D"/>
<path fill-rule="evenodd" clip-rule="evenodd" d="M16.0305 4.567L13.3945 0L5.91747 4.317L8.55447 8.883C9.01647 9.684 8.32447 10.658 7.41547 10.483L2.36347 9.508L0.730469 17.985L5.78147 18.959C13.9545 20.535 20.1935 11.775 16.0315 4.567H16.0305Z" fill="#3F3C3D"/>
<path fill-rule="evenodd" clip-rule="evenodd" d="M20.1502 35.4333L22.7852 40.0003L30.2622 35.6843L27.6252 31.1173C27.1632 30.3163 27.8552 29.3423 28.7642 29.5173L33.8152 30.4913L35.4502 22.0153L30.3982 21.0413C22.2262 19.4653 15.9882 28.2253 20.1482 35.4333H20.1502Z" fill="#3F3C3D"/>
<path d="M163.614 30.153V21.653C163.614 20.475 163.885 19.418 164.427 18.483C164.988 17.529 165.783 16.781 166.812 16.238C167.841 15.696 169.066 15.425 170.487 15.425C171.15 15.4185 171.811 15.5033 172.451 15.677C173.05 15.827 173.592 16.042 174.078 16.322C174.583 16.584 175.013 16.902 175.369 17.276H175.425C175.806 16.8967 176.241 16.5752 176.715 16.322C177.236 16.0352 177.793 15.8183 178.371 15.677C179.021 15.5046 179.691 15.4198 180.363 15.425C181.784 15.425 183.009 15.695 184.038 16.238C185.066 16.781 185.861 17.528 186.422 18.483C186.984 19.418 187.264 20.474 187.264 21.653V30.153H182.887V21.793C182.887 21.326 182.766 20.905 182.523 20.531C182.3 20.1398 181.981 19.8116 181.597 19.577C181.192 19.3303 180.724 19.2038 180.25 19.212C179.745 19.212 179.287 19.334 178.876 19.577C178.491 19.8113 178.173 20.1396 177.95 20.531C177.723 20.9124 177.606 21.3493 177.613 21.793V30.153H173.265V21.793C173.265 21.326 173.143 20.905 172.9 20.531C172.672 20.1342 172.343 19.8049 171.946 19.577C171.541 19.3303 171.073 19.2038 170.599 19.212C170.094 19.212 169.636 19.334 169.225 19.577C168.84 19.8113 168.522 20.1396 168.299 20.531C168.073 20.9126 167.956 21.3493 167.962 21.793V30.153H163.614ZM154.103 30.49C152.626 30.49 151.344 30.21 150.26 29.648C149.194 29.068 148.371 28.292 147.791 27.32C147.211 26.329 146.921 25.234 146.921 24.037V15.761H151.27V23.925C151.27 24.43 151.391 24.898 151.634 25.328C151.877 25.739 152.205 26.076 152.616 26.338C153.046 26.581 153.533 26.703 154.075 26.703C154.599 26.703 155.066 26.581 155.478 26.338C155.908 26.076 156.245 25.739 156.488 25.328C156.731 24.898 156.853 24.43 156.853 23.925V15.761H161.201V24.037C161.201 25.234 160.92 26.329 160.359 27.32C159.798 28.292 158.985 29.069 157.919 29.648C156.871 30.209 155.599 30.49 154.103 30.49ZM132.914 30.153V26.703H139.844C140.031 26.703 140.199 26.665 140.349 26.59C140.498 26.497 140.62 26.375 140.713 26.226C140.805 26.0786 140.853 25.9085 140.853 25.735C140.853 25.5615 140.805 25.3914 140.713 25.244C140.626 25.0998 140.499 24.983 140.349 24.907C140.197 24.8131 140.022 24.7645 139.844 24.767H137.319C136.383 24.767 135.532 24.617 134.766 24.318C134.038 24.0166 133.414 23.5096 132.97 22.859C132.54 22.186 132.325 21.316 132.325 20.25C132.325 19.427 132.521 18.679 132.914 18.006C133.323 17.3351 133.891 16.7758 134.569 16.378C135.276 15.9676 136.08 15.7545 136.898 15.761H143.827V19.24H137.571C137.323 19.235 137.082 19.3256 136.898 19.493C136.816 19.5732 136.751 19.6692 136.708 19.7754C136.664 19.8815 136.643 19.9953 136.645 20.11C136.645 20.372 136.73 20.596 136.898 20.783C137.082 20.9504 137.323 21.041 137.571 21.036H140.04C141.087 21.036 141.985 21.195 142.733 21.512C143.5 21.812 144.089 22.298 144.501 22.972C144.931 23.645 145.146 24.514 145.146 25.58C145.146 26.422 144.931 27.189 144.501 27.88C144.093 28.5688 143.513 29.1395 142.817 29.536C142.125 29.948 141.34 30.153 140.461 30.153H132.914ZM123.44 15.425C124.656 15.425 125.731 15.621 126.666 16.014C127.584 16.3642 128.41 16.9208 129.079 17.641C129.761 18.3466 130.287 19.1879 130.622 20.11C130.977 21.045 131.155 22.083 131.155 23.224C131.155 24.645 130.856 25.908 130.257 27.011C129.704 28.0681 128.869 28.9516 127.845 29.564C126.816 30.181 125.619 30.49 124.254 30.49C123.674 30.49 123.122 30.415 122.598 30.266C122.102 30.1201 121.629 29.9025 121.196 29.62C120.787 29.3428 120.435 28.9906 120.158 28.582H120.073V36.242H115.725V23.223C115.725 21.633 116.043 20.258 116.679 19.099C117.296 17.9582 118.231 17.0219 119.372 16.405C120.532 15.751 121.888 15.424 123.44 15.424V15.425ZM123.44 19.184C122.767 19.184 122.178 19.352 121.673 19.689C121.186 20.007 120.812 20.456 120.55 21.036C120.289 21.596 120.158 22.233 120.158 22.943C120.158 23.654 120.289 24.29 120.55 24.851C120.812 25.412 121.186 25.861 121.673 26.198C122.178 26.516 122.767 26.675 123.44 26.675C124.113 26.675 124.693 26.515 125.179 26.198C125.668 25.8586 126.056 25.3931 126.302 24.851C126.582 24.29 126.722 23.654 126.722 22.943C126.722 22.233 126.582 21.597 126.302 21.036C126.04 20.456 125.666 20.006 125.179 19.689C124.693 19.352 124.113 19.184 123.44 19.184ZM109.117 30.153V15.761H113.494V30.153H109.117ZM111.305 14.134C110.613 14.134 110.015 13.882 109.51 13.377C109.005 12.872 108.752 12.273 108.752 11.581C108.752 10.889 109.005 10.291 109.51 9.786C110.015 9.262 110.613 9 111.305 9C111.997 9 112.596 9.262 113.101 9.786C113.606 10.291 113.858 10.889 113.858 11.581C113.858 12.273 113.606 12.871 113.101 13.377C112.596 13.882 111.997 14.134 111.305 14.134ZM99.605 30.49C98.128 30.49 96.8 30.163 95.621 29.508C94.4644 28.874 93.4966 27.9448 92.816 26.815C92.143 25.674 91.806 24.393 91.806 22.971C91.806 21.531 92.143 20.25 92.816 19.128C93.4966 17.9982 94.4644 17.069 95.621 16.435C96.8 15.761 98.128 15.425 99.605 15.425C101.083 15.425 102.401 15.761 103.561 16.435C104.713 17.0646 105.673 17.9954 106.338 19.128C107.03 20.25 107.376 21.531 107.376 22.971C107.376 24.393 107.03 25.674 106.338 26.815C105.673 27.9476 104.713 28.8784 103.561 29.508C102.383 30.163 101.064 30.49 99.605 30.49ZM99.605 26.703C100.297 26.703 100.896 26.534 101.401 26.198C101.906 25.8614 102.313 25.3965 102.579 24.851C102.86 24.29 103 23.654 103 22.943C103 22.251 102.86 21.625 102.579 21.063C102.313 20.5179 101.906 20.0533 101.401 19.717C100.896 19.38 100.297 19.212 99.605 19.212C98.913 19.212 98.305 19.38 97.782 19.717C97.2766 20.0537 96.8697 20.5185 96.603 21.064C96.3172 21.649 96.1734 22.293 96.183 22.944C96.183 23.654 96.323 24.29 96.603 24.851C96.8698 25.3964 97.2767 25.8613 97.782 26.198C98.305 26.534 98.913 26.703 99.605 26.703ZM77.674 35.849V32.117H84.855C85.136 32.117 85.37 32.024 85.557 31.837C85.6482 31.7564 85.7205 31.6568 85.7689 31.5452C85.8173 31.4335 85.8405 31.3126 85.837 31.191V28.021H85.753C85.3978 28.4341 84.9927 28.8016 84.547 29.115C84.135 29.415 83.667 29.639 83.144 29.789C82.5874 29.9454 82.0111 30.0208 81.433 30.013C80.161 30.013 79.02 29.713 78.01 29.115C77.019 28.498 76.233 27.647 75.653 26.562C75.093 25.478 74.812 24.243 74.812 22.859C74.812 21.494 75.102 20.25 75.682 19.128C76.28 18.006 77.15 17.108 78.291 16.435C79.431 15.761 80.825 15.425 82.471 15.425C84.042 15.425 85.398 15.752 86.539 16.407C87.6848 17.0289 88.6215 17.9751 89.232 19.127C89.868 20.287 90.186 21.653 90.186 23.224V31.64C90.186 32.93 89.803 33.95 89.036 34.698C88.288 35.465 87.25 35.848 85.922 35.848L77.674 35.849ZM82.499 26.366C83.172 26.366 83.752 26.216 84.239 25.917C84.7195 25.605 85.1068 25.169 85.36 24.655C85.626 24.114 85.7606 23.5178 85.753 22.915C85.753 22.242 85.623 21.625 85.361 21.064C85.099 20.503 84.725 20.063 84.238 19.745C83.752 19.408 83.172 19.24 82.498 19.24C81.844 19.24 81.264 19.399 80.759 19.717C80.273 20.035 79.899 20.465 79.637 21.007C79.376 21.55 79.245 22.157 79.245 22.831C79.245 23.486 79.375 24.084 79.637 24.627C79.899 25.15 80.273 25.571 80.76 25.889C81.264 26.207 81.844 26.366 82.499 26.366ZM65.973 30.49C64.496 30.49 63.168 30.163 61.99 29.508C60.833 28.8742 59.8648 27.945 59.184 26.815C58.511 25.674 58.174 24.393 58.174 22.971C58.174 21.531 58.511 20.25 59.184 19.128C59.8648 17.998 60.833 17.0688 61.99 16.435C63.168 15.761 64.496 15.425 65.973 15.425C67.451 15.425 68.769 15.761 69.929 16.435C71.0814 17.0647 72.0412 17.9955 72.706 19.128C73.398 20.25 73.744 21.531 73.744 22.971C73.744 24.393 73.398 25.674 72.706 26.815C72.0412 27.9475 71.0814 28.8783 69.929 29.508C68.751 30.163 67.432 30.49 65.973 30.49ZM65.973 26.703C66.665 26.703 67.263 26.534 67.769 26.198C68.2739 25.8611 68.6804 25.3963 68.947 24.851C69.227 24.29 69.367 23.654 69.367 22.943C69.367 22.251 69.227 21.625 68.947 21.063C68.6803 20.518 68.2738 20.0535 67.769 19.717C67.264 19.38 66.665 19.212 65.973 19.212C65.281 19.212 64.673 19.38 64.15 19.717C63.6446 20.0537 63.2377 20.5185 62.971 21.064C62.6853 21.649 62.5414 22.293 62.551 22.944C62.551 23.654 62.691 24.29 62.971 24.851C63.2378 25.3964 63.6447 25.8613 64.15 26.198C64.673 26.534 65.281 26.703 65.973 26.703ZM52.047 30.153C50.831 30.153 49.765 29.883 48.849 29.34C47.9581 28.8234 47.2219 28.0776 46.717 27.18C46.212 26.282 45.959 25.29 45.959 24.206V10.515H50.672V24.542C50.672 24.992 50.832 25.384 51.149 25.721C51.467 26.057 51.859 26.226 52.327 26.226H57.517V30.153H52.047Z" fill="#3F3C3D"/>
</g>
<defs>
<clipPath id="clip0_4361_741">
<rect width="187" height="40" fill="white" transform="translate(0.5)"/>
</clipPath>
</defs>
</svg>
