<svg width="188" height="40" viewBox="0 0 188 40" fill="none" xmlns="http://www.w3.org/2000/svg">
<path d="M30.4453 17.827C29.939 18.3354 29.5514 18.949 29.3099 19.624C29.0684 20.299 28.979 21.0189 29.0481 21.7324L29.024 21.7084C29.0951 22.5482 28.9816 23.3933 28.6916 24.1849C28.4016 24.9764 27.9421 25.6952 27.3452 26.2912C26.7481 26.887 26.028 27.3458 25.235 27.6352C24.4421 27.9246 23.5954 28.038 22.7542 27.967L22.7783 27.991C21.7719 27.8976 20.7612 28.1161 19.8838 28.617C19.0065 29.118 18.3052 29.8768 17.8758 30.7901C17.4463 31.7034 17.3094 32.7266 17.4839 33.7205C17.6585 34.7142 18.1357 35.6301 18.8507 36.3432C19.5657 37.0562 20.4836 37.5318 21.4793 37.705C22.475 37.8784 23.4999 37.7408 24.4145 37.3113C25.3291 36.8817 26.0886 36.1812 26.5896 35.3049C27.0906 34.4286 27.3087 33.4196 27.2142 32.415L27.2395 32.439C27.1685 31.5993 27.2819 30.7541 27.5719 29.9625C27.8618 29.171 28.3215 28.4522 28.9184 27.8562C29.5155 27.2604 30.2355 26.8016 31.0284 26.5122C31.8214 26.2228 32.668 26.1094 33.5094 26.1804L33.484 26.1564C34.306 26.2301 35.1335 26.0956 35.8896 25.7652C36.6456 25.4348 37.306 24.9192 37.8093 24.2662C38.3126 23.6133 38.6428 22.844 38.7689 22.0298C38.8951 21.2156 38.8134 20.3828 38.5313 19.6084C38.2492 18.8341 37.7758 18.1434 37.1551 17.6004C36.5344 17.0573 35.7864 16.6794 34.9804 16.5018C34.1744 16.3242 33.3365 16.3525 32.5445 16.5841C31.7524 16.8158 31.0318 17.2433 30.4493 17.827H30.4453Z" fill="#3F3C3D"/>
<path d="M20.5914 24.8483L20.566 24.8243C21.281 24.8962 22.0031 24.8086 22.6802 24.5678C23.3571 24.327 23.9721 23.9391 24.4805 23.4321C24.9887 22.925 25.3779 22.3114 25.6196 21.6358C25.8613 20.9602 25.9496 20.2395 25.8782 19.5257L25.9035 19.5497C25.8325 18.7098 25.946 17.8647 26.2359 17.0731C26.5259 16.2817 26.9855 15.5629 27.5824 14.9669C28.1795 14.371 28.8996 13.9122 29.6924 13.6229C30.4855 13.3333 31.332 13.2201 32.1734 13.291L32.148 13.267C33.1545 13.3614 34.1655 13.1435 35.0433 12.6431C35.9213 12.1428 36.6231 11.3843 37.0532 10.4711C37.4833 9.55797 37.6207 8.5346 37.4468 7.54059C37.2729 6.54657 36.796 5.63033 36.0812 4.91681C35.3664 4.20331 34.4485 3.72725 33.4527 3.55363C32.457 3.37999 31.4318 3.5172 30.517 3.94656C29.6021 4.37591 28.8424 5.07651 28.3411 5.95279C27.8398 6.82905 27.6215 7.83835 27.7161 8.84299L27.6921 8.81765C27.7633 9.65751 27.65 10.5028 27.3601 11.2944C27.0703 12.086 26.6107 12.8049 26.0137 13.401C25.4167 13.9969 24.6965 14.4557 23.9035 14.745C23.1103 15.0343 22.2636 15.1474 21.4222 15.0763L21.4463 15.1017C20.7313 15.0298 20.009 15.1174 19.3321 15.3582C18.6552 15.5989 18.0402 15.9869 17.5318 16.4939C17.0235 17.001 16.6344 17.6146 16.3926 18.2902C16.151 18.9658 16.0627 19.6865 16.1341 20.4003L16.1101 20.3763C16.1809 21.2161 16.0672 22.0611 15.7772 22.8526C15.4871 23.6439 15.0276 24.3627 14.4307 24.9586C13.8337 25.5545 13.1137 26.0131 12.3209 26.3027C11.5281 26.5922 10.6815 26.7057 9.84025 26.635L9.86429 26.659C8.85786 26.5646 7.84676 26.7825 6.96892 27.2829C6.09109 27.7833 5.38924 28.5417 4.95912 29.4549C4.529 30.3681 4.39152 31.3914 4.56547 32.3854C4.73942 33.3794 5.21633 34.2957 5.93111 35.0091C6.6459 35.7227 7.56378 36.1987 8.55957 36.3723C9.55536 36.5459 10.5806 36.4087 11.4953 35.9794C12.4101 35.5501 13.17 34.8495 13.6712 33.9733C14.1725 33.0969 14.3908 32.0877 14.2962 31.083L14.3216 31.107C14.2505 30.2671 14.364 29.4221 14.654 28.6305C14.9439 27.839 15.4035 27.1202 16.0004 26.5242C16.5975 25.9283 17.3176 25.4695 18.1105 25.1802C18.9035 24.8907 19.75 24.7774 20.5914 24.8483Z" fill="#3F3C3D"/>
<path d="M11.6404 22.1706C12.1467 21.6623 12.5343 21.0487 12.7756 20.3737C13.0168 19.6986 13.1059 18.9786 13.0362 18.2653L13.0616 18.2893C12.9905 17.4493 13.104 16.6038 13.3942 15.8121C13.6843 15.0203 14.1441 14.3014 14.7414 13.7054C15.3387 13.1094 16.0591 12.6508 16.8524 12.3615C17.6457 12.0722 18.4926 11.9593 19.3341 12.0306L19.3088 12.0066C20.3148 12.1007 21.3256 11.8827 22.203 11.3824C23.0804 10.8821 23.7818 10.1238 24.2118 9.21092C24.6416 8.29804 24.7789 7.27504 24.605 6.2814C24.4311 5.28776 23.9542 4.37187 23.2398 3.65862C22.5253 2.94536 21.6077 2.46947 20.6123 2.29584C19.6169 2.1222 18.592 2.2593 17.6776 2.68839C16.763 3.11748 16.0034 3.81771 15.5022 4.69358C15.0009 5.56944 14.7826 6.57832 14.8769 7.58262L14.8528 7.55862C14.9239 8.39842 14.8103 9.24358 14.5204 10.0351C14.2304 10.8266 13.7709 11.5454 13.1739 12.1414C12.5769 12.7373 11.8568 13.196 11.0639 13.4854C10.2709 13.7749 9.42427 13.8882 8.58297 13.8173L8.60701 13.8413C7.78497 13.7677 6.95762 13.9025 6.20163 14.233C5.44564 14.5636 4.78547 15.0793 4.28229 15.7323C3.77911 16.3853 3.44922 17.1546 3.32315 17.9688C3.1971 18.783 3.27897 19.6158 3.56116 20.3899C3.84336 21.1642 4.31678 21.8547 4.93752 22.3977C5.55827 22.9408 6.30627 23.3185 7.11221 23.4961C7.91814 23.6736 8.75594 23.6451 9.54798 23.4135C10.34 23.1818 11.0606 22.7544 11.6431 22.1706H11.6404Z" fill="#3F3C3D"/>
<path d="M53.0156 8.87305H56.9827V28.1437H53.0156V8.87305Z" fill="#3F3C3D"/>
<path d="M59.2307 21.5455C59.2252 20.1607 59.6315 18.8052 60.3982 17.6511C61.1649 16.4969 62.2575 15.5959 63.5377 15.0621C64.8178 14.5283 66.2278 14.3857 67.5892 14.6525C68.9505 14.9193 70.2019 15.5833 71.1849 16.5607C72.1679 17.5379 72.8381 18.7844 73.1109 20.1423C73.3836 21.5001 73.2464 22.9083 72.7168 24.1883C72.1872 25.4681 71.289 26.5625 70.1358 27.3324C68.9826 28.1024 67.6266 28.5135 66.2391 28.5135C65.3183 28.524 64.4045 28.3511 63.5513 28.0049C62.698 27.6588 61.9225 27.1464 61.27 26.4977C60.6174 25.8489 60.101 25.0768 59.7509 24.2265C59.4007 23.3763 59.2238 22.4648 59.2307 21.5455ZM69.2806 21.5455C69.264 20.9485 69.0715 20.3697 68.7273 19.8813C68.383 19.3931 67.9021 19.0168 67.3449 18.7999C66.7875 18.5828 66.1785 18.5345 65.5939 18.6612C65.0092 18.7879 64.4749 19.0836 64.0578 19.5117C63.6408 19.9397 63.3592 20.4811 63.2488 21.068C63.1382 21.6548 63.2032 22.2612 63.436 22.8113C63.6688 23.3615 64.0589 23.8308 64.5574 24.1608C65.056 24.4908 65.641 24.6668 66.2391 24.6668C66.6488 24.6777 67.0563 24.6037 67.4361 24.4496C67.8157 24.2955 68.1592 24.0645 68.4449 23.7713C68.7307 23.478 68.9525 23.1288 69.0962 22.7457C69.2401 22.3627 69.3029 21.954 69.2806 21.5455Z" fill="#3F3C3D"/>
<path d="M89.0574 14.9457V27.4791C89.0574 31.9137 85.5926 33.7884 82.0756 33.7884C80.8374 33.8809 79.5975 33.6312 78.4919 33.0668C77.3865 32.5023 76.458 31.6448 75.8085 30.5884L79.1932 28.6351C79.4662 29.1857 79.9012 29.64 80.4399 29.9372C80.9787 30.2343 81.5956 30.3601 82.2079 30.2977C82.5992 30.3519 82.9978 30.3175 83.3741 30.1971C83.7502 30.0767 84.0946 29.8733 84.3815 29.6023C84.6684 29.3311 84.8905 28.9991 85.0316 28.6305C85.1725 28.2621 85.2286 27.8668 85.1959 27.4737V26.2671C84.7313 26.8344 84.1401 27.2852 83.4694 27.5832C82.7988 27.8812 82.0676 28.0181 81.3343 27.9831C79.5896 27.9281 77.9348 27.1977 76.7201 25.9463C75.5054 24.6949 74.8262 23.0208 74.8262 21.2784C74.8262 19.536 75.5054 17.8619 76.7201 16.6105C77.9348 15.3591 79.5896 14.6287 81.3343 14.5737C82.0676 14.5387 82.7988 14.6756 83.4694 14.9736C84.1401 15.2716 84.7313 15.7224 85.1959 16.2897V14.9431L89.0574 14.9457ZM85.1972 21.2804C85.2239 20.6423 85.0585 20.0107 84.7226 19.4671C84.3867 18.9233 83.8954 18.4925 83.3121 18.23C82.7288 17.9673 82.0802 17.8851 81.4496 17.9936C80.819 18.1021 80.2354 18.3965 79.7738 18.8391C79.3123 19.2815 78.994 19.8516 78.8598 20.4761C78.7257 21.1007 78.7818 21.7511 79.0211 22.3435C79.2603 22.9359 79.6717 23.4433 80.2023 23.8004C80.7328 24.1575 81.3583 24.3479 81.9982 24.3471C82.415 24.3761 82.8332 24.3177 83.2261 24.1756C83.6189 24.0335 83.9776 23.8107 84.2789 23.5219C84.5802 23.2329 84.8177 22.8843 84.9759 22.4981C85.134 22.1121 85.2095 21.6973 85.1972 21.2804Z" fill="#3F3C3D"/>
<path d="M91.3049 21.5455C91.2994 20.1607 91.7056 18.8052 92.4724 17.6511C93.2391 16.4969 94.3317 15.5959 95.6119 15.0621C96.892 14.5283 98.302 14.3857 99.6634 14.6525C101.025 14.9193 102.276 15.5833 103.259 16.5607C104.242 17.5379 104.912 18.7844 105.185 20.1423C105.458 21.5001 105.321 22.9083 104.791 24.1883C104.261 25.4681 103.363 26.5625 102.21 27.3324C101.057 28.1024 99.7008 28.5135 98.3134 28.5135C97.3925 28.524 96.4786 28.3511 95.6255 28.0049C94.7723 27.6588 93.9967 27.1464 93.3442 26.4977C92.6916 25.8489 92.1752 25.0768 91.8251 24.2265C91.4749 23.3763 91.2981 22.4648 91.3049 21.5455ZM101.355 21.5455C101.338 20.9485 101.146 20.3697 100.802 19.8813C100.457 19.3931 99.9763 19.0168 99.4191 18.7999C98.8617 18.5828 98.2526 18.5345 97.6681 18.6612C97.0834 18.7879 96.5492 19.0836 96.132 19.5117C95.715 19.9397 95.4334 20.4811 95.3228 21.068C95.2122 21.6548 95.2774 22.2612 95.5102 22.8113C95.7431 23.3615 96.1331 23.8308 96.6316 24.1608C97.1302 24.4908 97.7151 24.6668 98.3134 24.6668C98.723 24.6777 99.1306 24.6037 99.5102 24.4496C99.8899 24.2955 100.233 24.0645 100.519 23.7713C100.805 23.478 101.027 23.1288 101.17 22.7457C101.314 22.3627 101.377 21.954 101.355 21.5455Z" fill="#3F3C3D"/>
<path d="M107.172 11.4073C107.172 10.9373 107.311 10.4779 107.573 10.0872C107.835 9.69649 108.206 9.39195 108.641 9.21212C109.076 9.03228 109.555 8.98523 110.017 9.07691C110.478 9.16859 110.902 9.39488 111.235 9.72717C111.568 10.0595 111.795 10.4828 111.887 10.9437C111.978 11.4046 111.931 11.8823 111.751 12.3165C111.571 12.7507 111.266 13.1217 110.874 13.3829C110.483 13.6439 110.023 13.7833 109.552 13.7833C108.923 13.777 108.321 13.5247 107.876 13.0804C107.431 12.6362 107.178 12.0355 107.172 11.4073ZM107.573 14.9446H111.541V28.1446H107.567L107.573 14.9446Z" fill="#3F3C3D"/>
<path d="M128.67 21.545C128.716 22.4174 128.589 23.2902 128.295 24.1133C128.002 24.9364 127.549 25.6934 126.961 26.341C126.374 26.9885 125.664 27.5138 124.873 27.8866C124.081 28.2593 123.224 28.4722 122.349 28.513C121.614 28.553 120.88 28.4293 120.198 28.1508C119.517 27.8721 118.906 27.4457 118.41 26.9024V33.4237H114.443V14.945H118.41V16.185C118.906 15.6421 119.517 15.216 120.198 14.9377C120.88 14.6593 121.614 14.5357 122.349 14.5757C123.224 14.6164 124.081 14.8292 124.873 15.202C125.665 15.5748 126.375 16.1001 126.962 16.7478C127.55 17.3956 128.003 18.1529 128.296 18.9762C128.589 19.7994 128.716 20.6725 128.67 21.545ZM124.703 21.545C124.687 20.9273 124.49 20.3278 124.135 19.8216C123.779 19.3154 123.283 18.925 122.706 18.6994C122.13 18.4737 121.5 18.4226 120.895 18.5528C120.29 18.6828 119.736 18.9881 119.304 19.4305C118.872 19.873 118.58 20.4328 118.465 21.0401C118.35 21.6473 118.417 22.2748 118.657 22.8442C118.898 23.4137 119.301 23.8996 119.817 24.2413C120.333 24.5829 120.938 24.7652 121.557 24.765C121.982 24.784 122.407 24.7129 122.802 24.5566C123.198 24.4005 123.556 24.1625 123.853 23.8585C124.15 23.5544 124.379 23.1912 124.526 22.7925C124.672 22.3938 124.733 21.9686 124.703 21.545Z" fill="#3F3C3D"/>
<path d="M140.912 24.1832C140.912 27.2192 138.268 28.5125 135.413 28.5125C134.259 28.6168 133.1 28.3733 132.087 27.8132C131.073 27.2532 130.251 26.4025 129.727 25.3712L133.163 23.4178C133.302 23.8945 133.601 24.3093 134.009 24.5926C134.418 24.8761 134.912 25.0112 135.407 24.9752C136.358 24.9752 136.835 24.6845 136.835 24.1578C136.835 22.7045 130.329 23.4712 130.329 18.9045C130.329 16.0258 132.763 14.5752 135.513 14.5752C136.547 14.5425 137.57 14.7873 138.477 15.284C139.384 15.7808 140.141 16.5112 140.669 17.3992L137.284 19.2205C137.136 18.8748 136.889 18.5802 136.573 18.3737C136.258 18.1672 135.89 18.0578 135.513 18.0592C134.825 18.0592 134.402 18.3258 134.402 18.7978C134.407 20.3032 140.912 19.2992 140.912 24.1832Z" fill="#3F3C3D"/>
<path d="M155.402 14.9453V28.1453H151.435V26.904C150.977 27.4517 150.396 27.8833 149.739 28.1633C149.082 28.4433 148.368 28.5637 147.655 28.5146C144.984 28.5146 142.713 26.6146 142.713 23.048V14.9453H146.68V22.468C146.647 22.7824 146.683 23.1002 146.785 23.3993C146.887 23.6985 147.054 23.9718 147.273 24.2002C147.492 24.4286 147.758 24.6066 148.053 24.722C148.347 24.8373 148.663 24.8872 148.98 24.868C150.435 24.868 151.439 24.024 151.439 22.1493V14.9493L155.402 14.9453Z" fill="#3F3C3D"/>
<path d="M178.15 20.041V28.145H174.183V20.3836C174.183 19.0636 173.549 18.2196 172.28 18.2196C170.958 18.2196 170.216 19.1436 170.216 20.701V28.145H166.251V20.3836C166.251 19.0636 165.616 18.2196 164.346 18.2196C163.023 18.2196 162.283 19.1436 162.283 20.701V28.145H158.316V14.945H162.283V16.1583C162.695 15.62 163.235 15.1931 163.853 14.9167C164.473 14.6402 165.151 14.523 165.827 14.5756C166.506 14.5424 167.182 14.6855 167.789 14.9907C168.396 15.2958 168.913 15.7528 169.291 16.317C169.73 15.7267 170.312 15.2574 170.983 14.9528C171.654 14.6483 172.391 14.5186 173.125 14.5756C176.162 14.577 178.15 16.741 178.15 20.041Z" fill="#3F3C3D"/>
<path d="M181.506 14.8637C183.132 14.8637 184.45 13.5479 184.45 11.925C184.45 10.302 183.132 8.98633 181.506 8.98633C179.881 8.98633 178.562 10.302 178.562 11.925C178.562 13.5479 179.881 14.8637 181.506 14.8637Z" fill="#3F3C3D"/>
</svg>
