<svg width="98" height="40" viewBox="0 0 98 40" fill="none" xmlns="http://www.w3.org/2000/svg">
<path d="M-3.00969 26.7517C-3.25905 27.2112 -3.56372 27.6018 -3.92382 27.9235C-4.27459 28.2452 -4.66707 28.5118 -5.10092 28.7232C-5.52566 28.9253 -5.98267 29.0769 -6.47206 29.1781C-6.95224 29.27 -7.44612 29.316 -7.95394 29.316C-8.80344 29.316 -9.57894 29.1644 -10.2807 28.8609C-10.9824 28.5577 -11.5871 28.1211 -12.0949 27.5513C-12.5935 26.9722 -12.9813 26.2645 -13.2583 25.4281C-13.5353 24.5917 -13.6738 23.6358 -13.6738 22.5605C-13.6738 21.5494 -13.5445 20.6027 -13.286 19.7204C-13.0275 18.838 -12.6536 18.0706 -12.1642 17.418C-11.6656 16.7654 -11.0562 16.2507 -10.336 15.8739C-9.61593 15.4971 -8.7941 15.3086 -7.87087 15.3086C-6.81834 15.3086 -5.88576 15.5108 -5.07326 15.9152C-4.25154 16.3197 -3.54517 16.9814 -2.95426 17.9005V17.5421C-2.95426 16.8804 -2.77427 16.384 -2.41417 16.0531C-2.04485 15.7131 -1.53703 15.5429 -0.890689 15.5429C-0.502934 15.5429 -0.175216 15.6073 0.0925846 15.736C0.360267 15.8555 0.57264 16.0393 0.729587 16.2875C0.88665 16.5265 0.997381 16.8252 1.06203 17.1837C1.13589 17.5328 1.17277 17.9327 1.17277 18.3831V27.6202C1.17277 28.7415 1.02976 29.7433 0.743526 30.6257C0.466508 31.508 0.0325432 32.2526 -0.558366 32.8592C-1.14927 33.4658 -1.90635 33.9253 -2.8297 34.2379C-3.75294 34.5595 -4.85167 34.7204 -6.12579 34.7204C-7.02137 34.7204 -7.81543 34.6791 -8.50798 34.5962C-9.19119 34.5228 -9.7821 34.4079 -10.2807 34.2517C-10.7792 34.0769 -11.1577 33.884 -11.4163 33.6726C-11.6656 33.4612 -11.7902 33.1854 -11.7902 32.8454C-11.7902 32.6524 -11.7626 32.4686 -11.7072 32.2939C-11.6517 32.1193 -11.5687 31.9631 -11.4579 31.8252C-11.3378 31.6965 -11.1855 31.5908 -11.0008 31.508C-10.807 31.4346 -10.5716 31.3978 -10.2945 31.3978C-9.99908 31.3978 -9.70363 31.4161 -9.40817 31.4529C-9.1035 31.4897 -8.78949 31.5265 -8.46638 31.5632C-8.13406 31.6092 -7.78778 31.6505 -7.42768 31.6873C-7.05837 31.724 -6.66139 31.7425 -6.23664 31.7425C-5.72882 31.7425 -5.27642 31.6919 -4.87933 31.5908C-4.48235 31.4897 -4.14542 31.3105 -3.8684 31.0531C-3.59138 30.7958 -3.37901 30.4511 -3.23128 30.0191C-3.08355 29.5962 -3.00969 29.054 -3.00969 28.3922V26.7517ZM-3.00969 22.464C-3.00969 21.7929 -3.0605 21.1818 -3.16202 20.6304C-3.25432 20.0788 -3.416 19.6101 -3.64681 19.224C-3.87762 18.8288 -4.1869 18.5255 -4.57466 18.3141C-4.96253 18.0935 -5.44719 17.9833 -6.02888 17.9833C-6.60136 17.9833 -7.0768 18.0981 -7.45534 18.3279C-7.82466 18.5577 -8.12011 18.8748 -8.3417 19.2792C-8.56329 19.6837 -8.72024 20.1569 -8.81265 20.6993C-8.89574 21.2415 -8.93722 21.8206 -8.93722 22.4364C-8.93722 23.8426 -8.68797 24.8997 -8.18936 25.6073C-7.69087 26.3151 -6.96606 26.6689 -6.01505 26.6689C-5.57187 26.6598 -5.17017 26.5769 -4.81019 26.4207C-4.44087 26.2553 -4.12225 26.0026 -3.85457 25.6625C-3.58677 25.3224 -3.37901 24.8904 -3.23128 24.3665C-3.08355 23.8426 -3.00969 23.2085 -3.00969 22.464Z" fill="#3F3C3D"/>
<path d="M2.44531 22.4642C2.44531 21.4898 2.60226 20.5708 2.91615 19.7068C3.23938 18.8336 3.71942 18.0708 4.35654 17.4182C5.00288 16.7656 5.80604 16.2463 6.76627 15.8603C7.73584 15.4742 8.87144 15.2812 10.1733 15.2812C11.4197 15.2812 12.523 15.4604 13.4833 15.8189C14.4435 16.1774 15.2514 16.6783 15.9069 17.3217C16.5625 17.9558 17.0611 18.7141 17.4026 19.5964C17.7443 20.4696 17.9151 21.4255 17.9151 22.4642C17.9151 23.4292 17.7535 24.3437 17.4304 25.2077C17.1072 26.0624 16.6225 26.8162 15.9762 27.4688C15.3298 28.1121 14.522 28.6268 13.5525 29.0129C12.5831 29.3897 11.4567 29.5781 10.1733 29.5781C8.90831 29.5781 7.79114 29.3989 6.8217 29.0404C5.86147 28.6728 5.05358 28.1718 4.39803 27.5376C3.75181 26.8943 3.26242 26.1407 2.92997 25.2767C2.60686 24.4035 2.44531 23.466 2.44531 22.4642ZM7.05712 22.4642C7.05712 23.0708 7.11255 23.6498 7.2234 24.2012C7.33414 24.7435 7.50952 25.2215 7.74966 25.6351C7.99891 26.0487 8.32201 26.3796 8.7191 26.6277C9.11608 26.8667 9.60086 26.9862 10.1733 26.9862C10.6996 26.9862 11.1566 26.876 11.5444 26.6553C11.9413 26.4348 12.2646 26.1268 12.5138 25.7316C12.7724 25.3364 12.9662 24.863 13.0955 24.3116C13.2248 23.7509 13.2894 23.1351 13.2894 22.4642C13.2894 21.8575 13.2294 21.283 13.1093 20.7408C12.9986 20.1894 12.8185 19.7068 12.5692 19.2931C12.32 18.8704 11.9968 18.5395 11.5998 18.3005C11.212 18.0524 10.7365 17.9283 10.1733 17.9283C9.61008 17.9283 9.12991 18.0477 8.73294 18.2868C8.33596 18.5257 8.01274 18.852 7.76349 19.2656C7.51425 19.6792 7.33414 20.1617 7.2234 20.7132C7.11255 21.2647 7.05712 21.8483 7.05712 22.4642Z" fill="#3F3C3D"/>
<path d="M23.8547 10.6345C23.8547 10.9379 23.7855 11.209 23.647 11.448C23.5085 11.6777 23.3285 11.8707 23.1069 12.0271C22.8853 12.1833 22.6267 12.3027 22.3312 12.3854C22.0451 12.4589 21.7497 12.4958 21.4449 12.4958C21.1218 12.4958 20.8125 12.4543 20.517 12.3716C20.2308 12.2889 19.977 12.1695 19.7554 12.0132C19.5338 11.8478 19.3583 11.6502 19.229 11.4204C19.0998 11.1906 19.0352 10.9287 19.0352 10.6345C19.0352 10.368 19.0952 10.1244 19.2152 9.90384C19.3444 9.67406 19.5152 9.47645 19.7276 9.311C19.94 9.14557 20.1939 9.01689 20.4894 8.92498C20.7848 8.83306 21.108 8.78711 21.4588 8.78711C21.7635 8.78711 22.059 8.82847 22.3452 8.91119C22.6407 8.99391 22.8991 9.11339 23.1207 9.26965C23.3423 9.4259 23.5178 9.61891 23.647 9.84869C23.7855 10.0785 23.8547 10.3404 23.8547 10.6345ZM23.647 26.6961C23.647 27.5693 23.467 28.2402 23.1069 28.7089C22.756 29.1778 22.1697 29.4121 21.348 29.4121C20.5725 29.4121 20.023 29.1778 19.6999 28.7089C19.386 28.2402 19.229 27.5693 19.229 26.6961V18.2586C19.229 17.3854 19.386 16.7145 19.6999 16.2458C20.023 15.7771 20.5725 15.5426 21.348 15.5426C22.1697 15.5426 22.756 15.7771 23.1069 16.2458C23.467 16.7145 23.647 17.3854 23.647 18.2586V26.6961Z" fill="#3F3C3D"/>
<path d="M30.0138 22.4364C30.0138 23.0522 30.0599 23.6266 30.1524 24.1598C30.2539 24.6928 30.42 25.1615 30.6509 25.566C30.891 25.9612 31.2049 26.2737 31.5926 26.5034C31.9896 26.7333 32.479 26.8481 33.0607 26.8481C33.5962 26.8481 34.044 26.7379 34.4044 26.5173C34.7732 26.2875 35.0686 25.9749 35.2908 25.5798C35.5118 25.1753 35.669 24.702 35.7612 24.1598C35.8628 23.6174 35.9136 23.0292 35.9136 22.3951C35.9136 21.8895 35.877 21.3748 35.8025 20.8509C35.7292 20.3178 35.591 19.8353 35.3877 19.4033C35.1844 18.9713 34.9031 18.6174 34.5427 18.3417C34.1822 18.066 33.7119 17.9281 33.13 17.9281C32.5483 17.9281 32.0543 18.02 31.6481 18.2039C31.251 18.3877 30.9279 18.668 30.6786 19.0448C30.4385 19.4217 30.2677 19.8951 30.1662 20.4648C30.0646 21.0255 30.0138 21.6827 30.0138 22.4364ZM30 18.2589C30.2308 17.7719 30.5263 17.3445 30.8864 16.9768C31.2464 16.6092 31.6435 16.3013 32.0774 16.0531C32.5114 15.8049 32.9638 15.6211 33.4346 15.5017C33.9152 15.3729 34.3902 15.3086 34.8606 15.3086C35.7103 15.3086 36.4773 15.4971 37.1604 15.8739C37.8435 16.2507 38.425 16.7654 38.9048 17.418C39.3941 18.0614 39.7687 18.8242 40.0275 19.7066C40.2852 20.5798 40.4152 21.5173 40.4152 22.5191C40.4152 23.5577 40.2757 24.5089 39.9992 25.3729C39.7321 26.2369 39.348 26.9814 38.8492 27.6064C38.36 28.2222 37.7691 28.7047 37.0765 29.054C36.3934 29.4033 35.6323 29.5779 34.7921 29.5779C33.758 29.5779 32.8345 29.3389 32.022 28.8609C31.2095 28.3831 30.5355 27.7121 30 26.8481V31.8114C30 32.6845 29.8199 33.3555 29.4598 33.8242C29.1089 34.2929 28.5227 34.5274 27.7009 34.5274C26.9254 34.5274 26.376 34.2929 26.0529 33.8242C25.739 33.3555 25.582 32.6845 25.582 31.8114V18.2589C25.582 17.3858 25.739 16.7148 26.0529 16.2461C26.376 15.7774 26.9254 15.5429 27.7009 15.5429C28.5227 15.5429 29.1089 15.7774 29.4598 16.2461C29.8199 16.7148 30 17.3858 30 18.2589Z" fill="#3F3C3D"/>
<path d="M45.2887 19.2381C45.2887 19.5964 45.4459 19.8768 45.7591 20.079C46.0735 20.2721 46.5072 20.4329 47.0614 20.5616C47.5874 20.681 48.1275 20.796 48.6817 20.9062C49.236 21.0165 49.7761 21.1452 50.302 21.2923C50.8279 21.4301 51.3219 21.5956 51.784 21.7885C52.2449 21.9816 52.6514 22.2251 53.0024 22.5193C53.3534 22.8042 53.63 23.1535 53.8333 23.567C54.0365 23.9715 54.1382 24.4587 54.1382 25.0284C54.1382 25.7454 53.9904 26.3842 53.695 26.9448C53.3995 27.4963 52.98 27.965 52.4352 28.3511C51.8998 28.7371 51.2581 29.0358 50.51 29.2472C49.7619 29.4587 48.9358 29.5689 48.0305 29.5781C47.1725 29.5781 46.3453 29.523 45.5511 29.4127C44.7581 29.3116 44.0514 29.1507 43.4321 28.9301C42.8235 28.7095 42.3342 28.4384 41.9643 28.1167C41.5955 27.7858 41.4112 27.3998 41.4112 26.9587C41.4112 26.5725 41.5353 26.2738 41.7846 26.0624C42.034 25.8511 42.3519 25.7454 42.7407 25.7454C42.8885 25.7454 43.0634 25.7729 43.2666 25.8281C43.4699 25.8833 43.6909 25.9522 43.9308 26.0349C44.1707 26.1176 44.4248 26.2095 44.6931 26.3107C44.9696 26.4025 45.2556 26.4852 45.5511 26.5588C45.921 26.66 46.2992 26.7427 46.6868 26.807C47.0839 26.8621 47.4905 26.8897 47.9065 26.8897C48.1641 26.8897 48.4182 26.8667 48.6675 26.8208C48.9169 26.7656 49.1391 26.6875 49.3329 26.5864C49.5362 26.4761 49.7016 26.3382 49.8316 26.1728C49.9605 26.0074 50.0384 25.8051 50.0668 25.5662C50.094 25.511 50.1176 25.4558 50.1354 25.4007C50.1543 25.3456 50.1637 25.2812 50.1637 25.2077C50.1637 24.9503 50.0432 24.7205 49.8033 24.5183C49.5728 24.3162 49.2443 24.1553 48.82 24.0358C48.1085 23.8704 47.4302 23.7188 46.7837 23.5809C46.1384 23.443 45.5381 23.296 44.9838 23.1397C44.439 22.9835 43.9403 22.8042 43.4876 22.602C43.0444 22.3998 42.6663 22.1516 42.3519 21.8575C42.0482 21.5634 41.8071 21.2095 41.6322 20.796C41.4655 20.3823 41.3828 19.8814 41.3828 19.2931C41.3828 18.659 41.5258 18.0937 41.8118 17.5974C42.1073 17.0918 42.528 16.6691 43.0728 16.329C43.6176 15.9889 44.2771 15.7316 45.0535 15.557C45.8288 15.3731 46.7057 15.2812 47.6843 15.2812C49.4381 15.2812 50.7724 15.4927 51.6871 15.9154C52.6101 16.329 53.0722 16.8712 53.0722 17.5423C53.0722 17.9191 52.9469 18.2087 52.6975 18.4108C52.4482 18.6038 52.148 18.7003 51.7982 18.7003C51.6126 18.7003 51.4188 18.6682 51.2155 18.6038C51.0217 18.5303 50.7865 18.4522 50.51 18.3695C50.2323 18.2776 49.9002 18.1995 49.5125 18.1351C49.1344 18.0616 48.6628 18.0248 48.1003 18.0248C47.6748 18.0248 47.2872 18.0431 46.9362 18.08C46.5946 18.1167 46.2992 18.181 46.0498 18.2729C45.8099 18.3649 45.6208 18.4889 45.4825 18.6452C45.3525 18.8015 45.2887 18.999 45.2887 19.2381Z" fill="#3F3C3D"/>
<path d="M59.7575 24.2976C59.7575 24.7296 59.813 25.1064 59.9241 25.4281C60.0435 25.7498 60.2054 26.021 60.4087 26.2416C60.6119 26.453 60.8471 26.6138 61.1142 26.724C61.3919 26.8252 61.6874 26.8758 62.0006 26.8758C62.3705 26.8758 62.7262 26.8206 63.0677 26.7103C63.4093 26.6 63.7095 26.4299 63.9683 26.2001C64.2354 25.9704 64.4481 25.6809 64.6053 25.3316C64.7613 24.9824 64.8405 24.5733 64.8405 24.1046V18.259C64.8405 17.3858 64.9977 16.7149 65.3108 16.2461C65.6347 15.7774 66.1842 15.543 66.9595 15.543C67.7808 15.543 68.367 15.7774 68.718 16.2461C69.0785 16.7149 69.2581 17.3858 69.2581 18.259V26.6965C69.2581 27.5697 69.0785 28.2406 68.718 28.7093C68.367 29.1781 67.7808 29.4125 66.9595 29.4125C66.1842 29.4125 65.6347 29.1781 65.3108 28.7093C64.9977 28.2406 64.8405 27.5697 64.8405 26.6965C64.6467 27.1193 64.3926 27.5053 64.0782 27.8546C63.7733 28.2039 63.414 28.5072 62.998 28.7645C62.5915 29.0127 62.14 29.2057 61.6413 29.3436C61.152 29.4814 60.6202 29.5504 60.0482 29.5504C59.4301 29.5504 58.8345 29.4446 58.2613 29.2333C57.6988 29.0127 57.2 28.691 56.7663 28.2681C56.3326 27.8363 55.9863 27.3031 55.7275 26.669C55.4687 26.0347 55.3398 25.2949 55.3398 24.4492V18.259C55.3398 17.3858 55.497 16.7149 55.8102 16.2461C56.134 15.7774 56.6824 15.543 57.4588 15.543C58.2802 15.543 58.8664 15.7774 59.2174 16.2461C59.5778 16.7149 59.7575 17.3858 59.7575 18.259V24.2976Z" fill="#3F3C3D"/>
<path d="M71.2656 18.2589C71.2656 17.3858 71.4228 16.7148 71.7372 16.2461C72.0598 15.7774 72.6094 15.5429 73.3846 15.5429C74.2072 15.5429 74.7933 15.7774 75.1443 16.2461C75.5036 16.7148 75.6844 17.3858 75.6844 18.2589C75.8688 17.8178 76.1182 17.418 76.4325 17.0595C76.7552 16.6919 77.1204 16.3794 77.5257 16.122C77.9417 15.8647 78.3896 15.6671 78.8695 15.5292C79.3493 15.3821 79.848 15.3086 80.3656 15.3086C80.8455 15.3086 81.3158 15.3729 81.7779 15.5017C82.2483 15.6211 82.6832 15.8187 83.0803 16.0945C83.4856 16.3609 83.8414 16.7011 84.1463 17.1147C84.4512 17.5282 84.6864 18.0246 84.853 18.6037C85.139 17.9879 85.4758 17.4686 85.8635 17.0458C86.2511 16.6229 86.6718 16.2828 87.1233 16.0255C87.5759 15.7681 88.0474 15.5844 88.5367 15.474C89.0354 15.3638 89.533 15.3086 90.0317 15.3086C90.6226 15.3086 91.1864 15.4144 91.7217 15.6257C92.2665 15.8371 92.7416 16.1588 93.1482 16.5908C93.5642 17.0135 93.8915 17.5513 94.1315 18.2039C94.3808 18.8472 94.5049 19.6009 94.5049 20.4648V26.6965C94.5049 27.5697 94.3253 28.2406 93.9648 28.7093C93.615 29.1781 93.0276 29.4125 92.2063 29.4125C91.431 29.4125 90.8815 29.1781 90.5588 28.7093C90.2445 28.2406 90.0873 27.5697 90.0873 26.6965V20.6579C90.0873 20.2442 90.0317 19.8766 89.9218 19.5549C89.8107 19.224 89.6535 18.9484 89.4503 18.7278C89.2565 18.498 89.026 18.3279 88.7577 18.2177C88.4906 18.0981 88.2035 18.0384 87.8997 18.0384C87.5204 18.0384 87.1611 18.0981 86.8195 18.2177C86.478 18.3371 86.1778 18.5209 85.919 18.7691C85.6696 19.0173 85.4664 19.3344 85.3092 19.7204C85.1615 20.1064 85.0882 20.5706 85.0882 21.1128V26.6965C85.0882 27.5697 84.9074 28.2406 84.5481 28.7093C84.1971 29.1781 83.6109 29.4125 82.7884 29.4125C82.0131 29.4125 81.4635 29.1781 81.1409 28.7093C80.8265 28.2406 80.6694 27.5697 80.6694 26.6965V20.9198C80.6694 19.9732 80.4708 19.2562 80.0749 18.7691C79.6861 18.282 79.1554 18.0384 78.4818 18.0384C78.0847 18.0384 77.7148 18.1027 77.3733 18.2314C77.0317 18.3601 76.7363 18.5485 76.4869 18.7967C76.2375 19.0448 76.039 19.3527 75.8913 19.7204C75.753 20.088 75.6844 20.5108 75.6844 20.9887V26.6965C75.6844 27.5697 75.5036 28.2406 75.1443 28.7093C74.7933 29.1781 74.2072 29.4125 73.3846 29.4125C72.6094 29.4125 72.0598 29.1781 71.7372 28.7093C71.4228 28.2406 71.2656 27.5697 71.2656 26.6965V18.2589Z" fill="#3F3C3D"/>
</svg>
