<svg width="193" height="24" viewBox="0 0 193 24" fill="none" xmlns="http://www.w3.org/2000/svg">
<path d="M96.112 20.6822H89.6446V3.39208H96.112V20.6822ZM90.2762 20.0506H95.4804V4.02366H90.2762V20.0506ZM105.111 20.6822H98.7735V3.39208H112.014C113.911 3.23848 115.8 3.77099 117.337 4.89271C117.999 5.49815 118.512 6.24832 118.836 7.08466C119.16 7.92101 119.286 8.82092 119.205 9.71418C119.3 11.2577 118.808 12.7801 117.829 13.9773C116.671 15.3062 114.744 15.9908 112.101 16.0148C111.435 16.0325 106.447 16.0148 105.115 16.0148L105.111 20.6822ZM99.4013 20.0506H104.479V15.3769H104.796C104.861 15.3769 111.337 15.3971 112.086 15.3769C114.548 15.3554 116.317 14.7453 117.352 13.5542C118.223 12.471 118.656 11.1001 118.565 9.71292C118.642 8.91255 118.535 8.10503 118.25 7.35301C117.965 6.60099 117.511 5.92467 116.923 5.3765C115.497 4.35347 113.753 3.87325 112.005 4.02239H99.4051L99.4013 20.0506ZM110.672 12.1306H104.436V7.42408H110.714C111.159 7.36259 111.612 7.41453 112.032 7.57506C112.452 7.73561 112.824 7.99955 113.114 8.34239C113.377 8.78063 113.502 9.28847 113.47 9.79882C113.494 10.2726 113.392 10.7443 113.173 11.1656C112.874 11.5267 112.487 11.8046 112.049 11.9728C111.611 12.1409 111.137 12.1935 110.672 12.1256V12.1306ZM105.068 11.499H110.672C111.708 11.499 112.35 11.283 112.634 10.8384C112.791 10.5152 112.861 10.1572 112.84 9.79882C112.868 9.42247 112.786 9.04615 112.605 8.71503L112.597 8.70366C112.297 8.26155 111.699 8.05566 110.714 8.05566H105.068V11.499ZM130.731 20.9373C125.06 20.9373 121.675 19.5289 120.385 16.6325C120.174 16.073 120.031 15.4904 119.958 14.8969L119.902 14.5331H126.65L126.694 14.7984C126.746 15.0677 126.861 15.3212 127.028 15.5386C127.294 15.8607 128.184 16.4013 131.134 16.4013C134.681 16.4013 134.681 15.7786 134.681 15.4439C134.681 14.8792 134.271 14.686 131.378 14.3778L130.829 14.326C129.74 14.2237 128.363 14.0936 127.734 14.0392C122.429 13.5592 120.06 11.9108 120.06 8.69608C120.06 5.31966 124.091 3.13818 130.33 3.13818C135.419 3.13818 138.698 4.47966 140.074 7.1285C140.4 7.74464 140.619 8.41186 140.722 9.10155L140.766 9.4565H134.011L133.983 9.17103C133.956 8.94793 133.861 8.73863 133.71 8.57229C133.457 8.23376 132.659 7.67418 130.181 7.67418C127.138 7.67418 126.718 8.06324 126.718 8.4826C126.718 9.04218 127.68 9.2405 130.76 9.57018C132.045 9.67503 134.11 9.88724 134.818 9.97313C139.265 10.4557 141.25 12.0637 141.25 15.1887C141.251 17.8098 139.426 20.9373 130.731 20.9373ZM120.64 15.1647C120.703 15.5813 120.812 15.9896 120.965 16.3824C122.139 19.0211 125.335 20.3058 130.731 20.3058C135.243 20.3058 140.623 19.4216 140.623 15.1887C140.623 12.4186 138.867 11.0468 134.751 10.6009C134.043 10.515 131.991 10.3041 130.709 10.198C127.424 9.84176 126.089 9.65229 126.089 8.4826C126.089 7.2725 127.528 7.04261 130.183 7.04261C132.281 7.04261 133.637 7.42155 134.211 8.18576C134.368 8.37404 134.487 8.59117 134.56 8.82492H140.035C139.925 8.33639 139.75 7.86453 139.517 7.42155C138.253 4.99755 135.168 3.76976 130.332 3.76976C124.477 3.76976 120.694 5.70366 120.694 8.69608C120.694 11.5508 122.818 12.9605 127.792 13.4102C128.424 13.4645 129.799 13.5946 130.891 13.6982L131.444 13.75C134.131 14.0329 135.315 14.2098 135.315 15.4439C135.315 16.7727 133.783 17.0329 131.137 17.0329C128.689 17.0329 127.143 16.6653 126.545 15.9416C126.361 15.7108 126.222 15.4472 126.136 15.1647H120.64ZM153.25 20.9159C146.656 20.9159 143.018 18.2493 143.018 13.4064V3.39208H149.4V13.4064C149.4 15.0674 150.886 16.0199 153.477 16.0199C155.953 16.0199 157.49 15.0258 157.49 13.4279V3.39208H163.806V13.9369C163.812 18.3719 159.961 20.9159 153.246 20.9159H153.25ZM143.65 4.02366V13.4064C143.65 19.3912 149.66 20.2843 153.25 20.2843C156.961 20.2843 163.184 19.4594 163.184 13.9369V4.02366H158.132V13.4279C158.132 15.3858 156.308 16.6514 153.487 16.6514C150.539 16.6514 148.778 15.4388 148.778 13.4064V4.02366H143.65ZM190.57 20.6822H184.547V12.8759L181.131 20.6822H175.878L172.498 12.891V20.6822H166.453V3.39208H174.404L178.534 12.9251L182.864 3.39208H190.577L190.57 20.6822ZM185.179 20.0506H189.938V4.02366H183.266L178.514 14.4813L173.984 4.02366H167.08V20.0506H171.861V9.85187L176.282 20.0544H180.703L185.171 9.86703L185.179 20.0506ZM8.14695 3.70787H2.39453V20.3664H18.2901V15.9314H8.14695V3.70787ZM29.9011 3.32892C22.5583 3.32892 18.6968 6.80892 18.6968 11.9184C18.6968 17.691 22.7503 20.619 29.9011 20.619C37.7731 20.619 41.0838 17.2237 41.0838 11.9184C41.0838 6.53103 37.3486 3.32639 29.9011 3.32639V3.32892ZM29.8796 7.65776C30.3794 7.65541 30.879 7.68452 31.3752 7.74492L24.9444 14.1757C24.6401 13.4874 24.4917 12.7402 24.5099 11.9879C24.5099 9.37439 25.8261 7.65524 29.8796 7.65524V7.65776ZM29.9011 16.3584C29.4194 16.3605 28.9382 16.3335 28.4598 16.2776L34.9019 9.83545C35.1948 10.5124 35.335 11.2455 35.3124 11.9828C35.3124 14.5256 34.0998 16.3559 29.9011 16.3559V16.3584ZM52.4813 14.0847H58.4017C58.3145 14.4956 58.1329 14.8805 57.8712 15.2089C56.6438 16.2088 55.0773 16.6954 53.4994 16.5668C52.7051 16.6518 51.902 16.565 51.1442 16.3124C50.3864 16.0599 49.6917 15.6474 49.1074 15.1028C48.5088 14.2248 48.2244 13.1703 48.3002 12.1104C48.2033 10.9998 48.5126 9.89168 49.1705 8.99166C49.9979 8.05692 51.3987 7.65397 53.4577 7.65397C54.7677 7.54551 56.0761 7.88195 57.1714 8.60892C57.5166 8.88313 57.7747 9.25176 57.9141 9.66997H63.4051C63.3651 8.98088 63.1994 8.30492 62.9162 7.67545C61.6013 5.00134 58.5444 3.40976 53.3465 3.40976C48.8257 3.40976 45.7916 4.78913 44.1154 6.86955C43.0083 8.3719 42.44 10.2036 42.5023 12.0687C42.4307 13.9761 42.9843 15.8545 44.0787 17.4182C45.7347 19.5656 48.6842 20.6216 52.2286 20.6216C54.5851 20.7859 56.9254 20.1259 58.8489 18.7546L58.9979 20.3664H63.5592V10.4986H52.4813V14.0847ZM76.5053 3.32513C69.1638 3.32513 65.3011 6.80513 65.3011 11.9146C65.3011 17.6872 69.3533 20.6152 76.5053 20.6152C84.3785 20.6152 87.6893 17.2199 87.6893 11.9146C87.6893 6.53103 83.9541 3.32639 76.5053 3.32639V3.32513ZM76.4851 7.65397C76.9718 7.65253 77.4581 7.68037 77.9415 7.73734L71.536 14.1466C71.2412 13.4659 71.0977 12.7295 71.1154 11.9879C71.1103 9.37439 72.4316 7.65397 76.4851 7.65397ZM76.5053 16.3546C76.0109 16.3568 75.5169 16.328 75.0261 16.2687L81.4897 9.80387C81.7937 10.4898 81.9393 11.2354 81.9154 11.9853C81.9179 14.5256 80.7103 16.3559 76.5053 16.3559V16.3546Z" fill="#3F3C3D"/>
</svg>
