<svg width="159" height="40" viewBox="0 0 159 40" fill="none" xmlns="http://www.w3.org/2000/svg">
<path d="M18.718 7.82422V2.82422H2.91797V37.1772H18.718V32.1772C15.4813 32.1772 12.3772 30.8942 10.0886 28.6107C7.79998 26.3272 6.51424 23.2301 6.51424 20.0007C6.51424 16.7713 7.79998 13.6741 10.0886 11.3906C12.3772 9.1071 15.4813 7.82422 18.718 7.82422Z" fill="#3F3C3D"/>
<path d="M18.7168 7.82422V32.1772C21.9534 32.1772 25.0576 30.8942 27.3462 28.6107C29.6348 26.3272 30.9205 23.2301 30.9205 20.0007C30.9205 16.7713 29.6348 13.6741 27.3462 11.3906C25.0576 9.1071 21.9534 7.82422 18.7168 7.82422Z" fill="#3F3C3D"/>
<path d="M39.7871 10.8828H43.3244V27.8828H39.7871V10.8828Z" fill="#3F3C3D"/>
<path d="M45.3052 22.0592C45.3052 20.8361 45.6692 19.6406 46.351 18.6241C47.0328 17.6076 48.0016 16.816 49.1349 16.3495C50.2681 15.8832 51.5145 15.7629 52.7163 16.0041C53.918 16.2453 55.0209 16.837 55.8852 17.7043C56.7495 18.5717 57.3364 19.6755 57.5712 20.876C57.806 22.0764 57.6784 23.3194 57.2044 24.4474C56.7304 25.5753 55.9316 26.5375 54.9089 27.2119C53.8863 27.8863 52.686 28.2426 51.4602 28.2356C50.6472 28.242 49.841 28.0863 49.0891 27.7776C48.3372 27.469 47.6545 27.0137 47.0812 26.4386C46.5079 25.8633 46.0556 25.1795 45.7506 24.4275C45.4457 23.6755 45.2943 22.8703 45.3052 22.0592ZM54.1721 22.0592C54.1582 21.5319 53.9888 21.0203 53.685 20.5887C53.3813 20.1569 52.9568 19.8241 52.4644 19.6319C51.9721 19.4396 51.434 19.3964 50.9173 19.5079C50.4005 19.6192 49.9282 19.88 49.5592 20.2579C49.1903 20.6356 48.9411 21.1135 48.843 21.6319C48.7449 22.1502 48.8021 22.6859 49.0075 23.1719C49.2129 23.6579 49.5573 24.0728 49.9978 24.3644C50.4382 24.6562 50.955 24.8119 51.4838 24.8121C51.8437 24.8192 52.2012 24.752 52.534 24.6148C52.8667 24.4777 53.1675 24.2736 53.4176 24.0153C53.6677 23.7569 53.8617 23.4497 53.9875 23.1133C54.1133 22.7767 54.1681 22.4179 54.1485 22.0592H54.1721Z" fill="#3F3C3D"/>
<path d="M71.6111 16.2361V27.3067C71.6111 31.2126 68.5455 32.8714 65.4444 32.8714C64.3506 32.9609 63.2534 32.7441 62.2765 32.2453C61.2995 31.7465 60.4815 30.9854 59.9144 30.0479L62.8976 28.3302C63.1393 28.8166 63.5238 29.2178 63.9999 29.4805C64.476 29.7432 65.021 29.8549 65.5623 29.8008C65.9072 29.8432 66.2572 29.8091 66.5872 29.7008C66.9174 29.5925 67.2193 29.4128 67.4717 29.1745C67.7241 28.9361 67.9205 28.6452 68.0471 28.3222C68.1736 27.9994 68.227 27.6526 68.2035 27.3067V26.2361C67.7919 26.7341 67.2696 27.1294 66.6781 27.3908C66.0866 27.6522 65.4422 27.7725 64.7959 27.742C63.2323 27.742 61.7328 27.1222 60.6272 26.0191C59.5215 24.916 58.9004 23.4198 58.9004 21.8596C58.9004 20.2995 59.5215 18.8034 60.6272 17.7002C61.7328 16.5971 63.2323 15.9773 64.7959 15.9773C65.4422 15.9468 66.0866 16.0671 66.6781 16.3285C67.2696 16.5899 67.7919 16.9852 68.2035 17.4832V16.3067L71.6111 16.2361ZM68.2035 21.8243C68.227 21.2615 68.0813 20.7045 67.7849 20.2249C67.4886 19.7454 67.0554 19.3653 66.5408 19.1334C66.0262 18.9015 65.454 18.8286 64.8974 18.9239C64.341 19.0192 63.8257 19.2783 63.4181 19.6681C63.0105 20.0579 62.7291 20.5605 62.61 21.1112C62.4909 21.6619 62.5396 22.2354 62.7498 22.7582C62.9602 23.2811 63.3224 23.7292 63.7899 24.0449C64.2575 24.3607 64.8091 24.5298 65.3737 24.5302C65.7421 24.5567 66.112 24.5058 66.4594 24.3808C66.8069 24.2558 67.1243 24.0594 67.3909 23.8043C67.6576 23.5494 67.8677 23.2414 68.0077 22.9003C68.1476 22.5593 68.2144 22.1927 68.2035 21.8243Z" fill="#3F3C3D"/>
<path d="M73.6039 22.0593C73.6039 20.8372 73.9673 19.6426 74.648 18.6266C75.3287 17.6106 76.2962 16.819 77.428 16.3519C78.5598 15.8847 79.8051 15.7631 81.0062 16.0024C82.2074 16.2417 83.3103 16.8311 84.1757 17.696C85.0409 18.5611 85.6295 19.6627 85.867 20.8615C86.1046 22.0605 85.9803 23.3027 85.5099 24.4311C85.0396 25.5595 84.2443 26.5233 83.2248 27.2006C82.2053 27.8779 81.0073 28.2381 79.7824 28.2358C78.9679 28.2437 78.1599 28.0892 77.406 27.7814C76.652 27.4737 75.9672 27.0188 75.3918 26.4435C74.8163 25.8682 74.3617 25.1841 74.0547 24.4313C73.7478 23.6785 73.5945 22.872 73.6039 22.0593ZM82.4708 22.0593C82.4569 21.5315 82.2871 21.0195 81.9829 20.5875C81.6787 20.1557 81.2534 19.8228 80.7604 19.631C80.2674 19.4391 79.7287 19.3966 79.2116 19.509C78.6946 19.6212 78.2222 19.8833 77.8538 20.2622C77.4853 20.6412 77.2371 21.1202 77.1404 21.6393C77.0436 22.1584 77.1024 22.6944 77.3096 23.1801C77.5168 23.666 77.8631 24.08 78.3051 24.3704C78.7471 24.6606 79.265 24.8144 79.7942 24.8122C80.1542 24.8193 80.5117 24.7521 80.8445 24.615C81.1772 24.4779 81.478 24.2738 81.7281 24.0154C81.9782 23.7571 82.1721 23.4499 82.2979 23.1134C82.4237 22.7768 82.4786 22.418 82.459 22.0593H82.4708Z" fill="#3F3C3D"/>
<path d="M87.5996 13.1176C87.5996 12.7034 87.7227 12.2985 87.9533 11.9541C88.184 11.6097 88.5118 11.3413 88.8952 11.1828C89.2788 11.0243 89.7008 10.9829 90.1079 11.0637C90.5149 11.1445 90.889 11.3439 91.1825 11.6368C91.476 11.9297 91.6759 12.3029 91.7569 12.709C91.8379 13.1152 91.7963 13.5363 91.6375 13.919C91.4786 14.3016 91.2096 14.6286 90.8644 14.8587C90.5193 15.0889 90.1136 15.2117 89.6984 15.2117C89.1436 15.2056 88.6134 14.983 88.2211 14.5916C87.8288 14.2001 87.6057 13.6711 87.5996 13.1176ZM87.9416 16.2352H91.4789V27.8823H87.9416V16.2352Z" fill="#3F3C3D"/>
<path d="M106.619 22.0581C106.658 22.8327 106.544 23.6076 106.283 24.3379C106.021 25.0683 105.617 25.7398 105.095 26.3138C104.572 26.8879 103.94 27.3531 103.237 27.6827C102.533 28.0124 101.771 28.1999 100.995 28.2346C100.336 28.2784 99.6751 28.1731 99.0627 27.9266C98.4502 27.68 97.9014 27.2987 97.4572 26.8111V32.564H93.9199V16.2346H97.4572V17.3287C97.902 16.8425 98.4512 16.463 99.0638 16.2185C99.6763 15.9739 100.336 15.8709 100.995 15.917C101.768 15.9517 102.527 16.1381 103.228 16.4656C103.929 16.793 104.559 17.2551 105.081 17.8253C105.604 18.3956 106.008 19.0629 106.272 19.7892C106.536 20.5154 106.654 21.2864 106.619 22.0581ZM103.082 22.0581C103.068 21.5117 102.892 20.9816 102.578 20.5341C102.263 20.0867 101.823 19.7418 101.313 19.5429C100.803 19.3438 100.245 19.2996 99.7096 19.4154C99.1742 19.5313 98.6852 19.8024 98.3035 20.1945C97.9218 20.5866 97.6646 21.0824 97.5643 21.6198C97.4638 22.1571 97.5246 22.712 97.7389 23.2151C97.9533 23.718 98.3116 24.1467 98.7691 24.4474C99.2266 24.7481 99.7629 24.9073 100.311 24.9052C100.686 24.9211 101.06 24.8577 101.409 24.7191C101.758 24.5805 102.074 24.3699 102.335 24.1011C102.597 23.8323 102.799 23.5112 102.927 23.1592C103.056 22.8071 103.108 22.4319 103.082 22.0581Z" fill="#3F3C3D"/>
<path d="M117.385 24.3878C117.385 27.0702 115.027 28.2113 112.527 28.2113C111.507 28.3029 110.484 28.0872 109.588 27.5923C108.693 27.0973 107.967 26.3458 107.504 25.4349L110.546 23.7172C110.667 24.137 110.928 24.5028 111.286 24.7534C111.645 25.0039 112.078 25.1241 112.515 25.0937C113.352 25.0937 113.777 24.8349 113.777 24.3643C113.777 23.0819 108.034 23.7643 108.034 19.729C108.034 17.1878 110.18 15.9172 112.609 15.9172C113.533 15.8759 114.45 16.085 115.264 16.5221C116.078 16.9591 116.758 17.6079 117.232 18.3996L114.189 19.9996C114.055 19.6961 113.835 19.4379 113.557 19.2563C113.279 19.0746 112.954 18.9773 112.621 18.9761C112.008 18.9761 111.643 19.2113 111.643 19.6231C111.643 20.9643 117.385 20.0819 117.385 24.3878Z" fill="#3F3C3D"/>
<path d="M130.202 16.2344V27.8814H126.664V26.7873C126.262 27.2717 125.752 27.6548 125.175 27.9063C124.597 28.1577 123.969 28.27 123.339 28.2344C120.981 28.2344 118.965 26.552 118.965 23.4108V16.2344H122.502V22.8814C122.474 23.1593 122.507 23.4399 122.599 23.7039C122.691 23.9678 122.838 24.2087 123.032 24.4101C123.226 24.6114 123.462 24.7684 123.723 24.8701C123.983 24.9718 124.263 25.0158 124.542 24.9991C125.815 24.9991 126.712 24.2461 126.712 22.6461V16.2344H130.202Z" fill="#3F3C3D"/>
<path d="M150.247 20.73V27.8829H146.709V21.0359C146.709 19.8594 146.155 19.13 145.035 19.13C143.915 19.13 143.207 19.9418 143.207 21.3182V27.8829H139.67V21.0359C139.67 19.8594 139.116 19.13 137.996 19.13C136.876 19.13 136.168 19.9418 136.168 21.3182V27.8829H132.631V16.2359H136.168V17.3065C136.535 16.8335 137.012 16.4589 137.561 16.2166C138.108 15.9742 138.708 15.8716 139.305 15.9182C139.902 15.887 140.499 16.0118 141.034 16.2799C141.57 16.548 142.026 16.9505 142.358 17.4476C142.748 16.9281 143.262 16.5154 143.854 16.248C144.444 15.9805 145.095 15.867 145.743 15.9182C148.502 15.9182 150.247 17.8241 150.247 20.73Z" fill="#3F3C3D"/>
<path d="M153.217 16.1648C154.65 16.1648 155.811 15.0059 155.811 13.5765C155.811 12.1471 154.65 10.9883 153.217 10.9883C151.784 10.9883 150.623 12.1471 150.623 13.5765C150.623 15.0059 151.784 16.1648 153.217 16.1648Z" fill="#3F3C3D"/>
</svg>
