<svg width="156" height="40" viewBox="0 0 156 40" fill="none" xmlns="http://www.w3.org/2000/svg">
<path d="M54.6074 25.4121H63.6688V22.9304H57.6002V11.1748H54.6074V25.4121Z" fill="#3F3C3D"/>
<path d="M69.8092 25.6206C73.0302 25.6206 75.0346 23.403 75.0346 20.1148C75.0346 16.8056 73.0302 14.595 69.8092 14.595C66.5884 14.595 64.584 16.8056 64.584 20.1148C64.584 23.403 66.5884 25.6206 69.8092 25.6206ZM69.8231 23.3265C68.337 23.3265 67.5767 21.9569 67.5767 20.0938C67.5767 18.2308 68.337 16.8544 69.8231 16.8544C71.2815 16.8544 72.0417 18.2308 72.0417 20.0938C72.0417 21.9569 71.2815 23.3265 69.8231 23.3265Z" fill="#3F3C3D"/>
<path d="M81.1476 29.639C84.1819 29.639 86.3384 28.2485 86.3384 25.5165V14.7343H83.4147V16.5278H83.3041C82.9101 15.6588 82.0462 14.5952 80.2698 14.5952C77.9405 14.5952 75.9707 16.4167 75.9707 20.0524C75.9707 23.6048 77.8853 25.2593 80.2767 25.2593C81.9701 25.2593 82.9171 24.4042 83.3041 23.5214H83.4285V25.4748C83.4285 26.9417 82.4954 27.5117 81.2167 27.5117C79.9173 27.5117 79.2607 26.9417 79.0188 26.2951L76.2956 26.6636C76.648 28.3459 78.2861 29.639 81.1476 29.639ZM81.2098 23.0347C79.7652 23.0347 78.9773 21.8808 78.9773 20.0385C78.9773 18.224 79.7515 16.9519 81.2098 16.9519C82.6406 16.9519 83.4423 18.1684 83.4423 20.0385C83.4423 21.9224 82.6267 23.0347 81.2098 23.0347Z" fill="#3F3C3D"/>
<path d="M92.8953 25.6209C96.1162 25.6209 98.1206 23.4032 98.1206 20.115C98.1206 16.8059 96.1162 14.5952 92.8953 14.5952C89.6744 14.5952 87.6699 16.8059 87.6699 20.115C87.6699 23.4032 89.6744 25.6209 92.8953 25.6209ZM92.9091 23.3267C91.4231 23.3267 90.6627 21.9572 90.6627 20.0941C90.6627 18.231 91.4231 16.8546 92.9091 16.8546C94.3675 16.8546 95.1278 18.231 95.1278 20.0941C95.1278 21.9572 94.3675 23.3267 92.9091 23.3267Z" fill="#3F3C3D"/>
<path d="M99.4505 25.412H102.395V14.734H99.4505V25.412ZM100.93 13.3575C101.807 13.3575 102.526 12.6833 102.526 11.856C102.526 11.0357 101.807 10.3613 100.93 10.3613C100.059 10.3613 99.3398 11.0357 99.3398 11.856C99.3398 12.6833 100.059 13.3575 100.93 13.3575Z" fill="#3F3C3D"/>
<path d="M104.17 29.4165H107.114V23.7021H107.204C107.612 24.5919 108.503 25.5861 110.217 25.5861C112.637 25.5861 114.523 23.6604 114.523 20.0871C114.523 16.4167 112.553 14.5952 110.224 14.5952C108.448 14.5952 107.598 15.6588 107.204 16.5278H107.072V14.7343H104.17V29.4165ZM107.052 20.0733C107.052 18.1684 107.853 16.9519 109.284 16.9519C110.743 16.9519 111.517 18.224 111.517 20.0733C111.517 21.9363 110.729 23.2294 109.284 23.2294C107.867 23.2294 107.052 21.9781 107.052 20.0733Z" fill="#3F3C3D"/>
<path d="M124.737 17.7789C124.474 15.8116 122.898 14.595 120.216 14.595C117.5 14.595 115.71 15.8602 115.716 17.9179C115.71 19.5169 116.711 20.5527 118.785 20.9698L120.624 21.3383C121.55 21.5259 121.972 21.8666 121.985 22.4018C121.972 23.0345 121.288 23.4864 120.258 23.4864C119.207 23.4864 118.509 23.0345 118.33 22.1655L115.434 22.3185C115.71 24.3623 117.437 25.6206 120.251 25.6206C123.001 25.6206 124.971 24.2093 124.978 22.103C124.971 20.5597 123.969 19.6351 121.91 19.211L119.988 18.8216C119 18.6062 118.634 18.2655 118.641 17.7511C118.634 17.1116 119.352 16.6945 120.264 16.6945C121.288 16.6945 121.896 17.2575 122.04 17.9457L124.737 17.7789Z" fill="#3F3C3D"/>
<path d="M133.056 20.8654C133.063 22.2975 132.088 23.0482 131.031 23.0482C129.918 23.0482 129.199 22.2627 129.192 21.0043V14.7339H126.248V21.5328C126.254 24.0285 127.706 25.5509 129.842 25.5509C131.439 25.5509 132.586 24.7236 133.063 23.4722H133.173V25.4118H136V14.7339H133.056V20.8654Z" fill="#3F3C3D"/>
<path d="M137.771 25.4122H140.716V19.0027C140.716 17.8209 141.463 17.0353 142.444 17.0353C143.412 17.0353 144.061 17.7027 144.061 18.7524V25.4122H146.916V18.8914C146.916 17.7861 147.546 17.0353 148.616 17.0353C149.557 17.0353 150.261 17.6262 150.261 18.815V25.4122H153.199V18.231C153.199 15.916 151.831 14.5952 149.853 14.5952C148.298 14.5952 147.089 15.3947 146.653 16.6182H146.543C146.205 15.3808 145.119 14.5952 143.66 14.5952C142.23 14.5952 141.145 15.3599 140.702 16.6182H140.578V14.7343H137.771V25.4122Z" fill="#3F3C3D"/>
<path d="M17.9605 2.05127H27.1369L23.4535 12.4044C16.9704 13.5502 12.0118 19.859 12.0118 27.4697C12.0118 30.9031 13.021 34.0715 14.7238 36.6204H2.53906L13.6783 5.31084C14.3787 3.34217 16.0746 2.05127 17.9605 2.05127Z" fill="#3F3C3D"/>
<path d="M27.1363 2.05127L24.5476 9.32743L23.7676 2.05127H27.1363Z" fill="#3F3C3D"/>
<path d="M32.944 2.05127H23.7676L27.4355 12.3607C34.0475 13.3797 39.1412 19.7559 39.1412 27.4697C39.1412 30.9031 38.1321 34.0715 36.4292 36.6204H48.3654L37.2262 5.31085C36.5258 3.34217 34.8299 2.05127 32.944 2.05127Z" fill="#3F3C3D"/>
<path d="M16.3236 35.6238C14.7554 33.3777 13.8203 30.5464 13.8203 27.4695C13.8203 20.1696 19.0838 14.252 25.5766 14.252C32.0694 14.252 37.3329 20.1696 37.3329 27.4695C37.3329 30.5464 36.3978 33.3777 34.8296 35.6238C32.2553 33.6963 29.0505 32.5532 25.5766 32.5532C22.1027 32.5532 18.8979 33.6963 16.3236 35.6238Z" fill="#3F3C3D"/>
</svg>
