<svg width="36" height="36" viewBox="0 0 36 36" fill="none" xmlns="http://www.w3.org/2000/svg">
<g clip-path="url(#clip0_6348_1879)">
<path d="M7.77734 22.4345H28.2227C29.4626 22.4345 30.4713 21.2475 30.4713 19.7884V18.6328H32.1602C34.1326 18.6328 35.7373 17.1427 35.7373 15.311V7.26405C35.7373 5.43241 34.1326 3.94228 32.1602 3.94228H30.4713V2.78662C30.4714 1.32764 29.4626 0.140625 28.2227 0.140625H7.77734C6.53738 0.140625 5.52861 1.32764 5.52861 2.78662V3.94228H0.895508C0.727675 3.94228 0.566717 4.00895 0.448042 4.12763C0.329366 4.2463 0.262695 4.40726 0.262695 4.57509C0.262695 4.74293 0.329366 4.90388 0.448042 5.02256C0.566717 5.14124 0.727675 5.20791 0.895508 5.20791H5.52868V6.36356C5.52868 7.82255 6.53745 9.00956 7.77734 9.00956H28.2227C29.4626 9.00956 30.4713 7.82255 30.4713 6.36356V5.20784H32.1602C33.4348 5.20784 34.4717 6.1302 34.4717 7.26398V15.311C34.4717 16.4448 33.4348 17.3671 32.1602 17.3671H30.4713V16.2115C30.4713 14.7525 29.4626 13.5655 28.2227 13.5655H7.77734C6.53738 13.5655 5.52868 14.7525 5.52868 16.2115V17.3672H3.83977C1.86737 17.3672 0.262695 18.8573 0.262695 20.689V28.7359C0.262695 30.5677 1.86737 32.0578 3.83977 32.0578H5.52868V33.2134C5.52868 34.6724 6.53745 35.8594 7.77734 35.8594H28.2227C29.4626 35.8594 30.4713 34.6724 30.4713 33.2134V32.0578H35.1045C35.2723 32.0578 35.4333 31.9911 35.552 31.8724C35.6707 31.7538 35.7373 31.5928 35.7373 31.425C35.7373 31.2571 35.6707 31.0962 35.552 30.9775C35.4333 30.8588 35.2723 30.7922 35.1045 30.7922H30.4713V29.6364C30.4713 28.1775 29.4626 26.9905 28.2227 26.9905H7.77734C6.53738 26.9905 5.52868 28.1775 5.52868 29.6364V30.7922H3.83977C2.56522 30.7922 1.52832 29.8697 1.52832 28.7359V20.689C1.52832 19.5552 2.56522 18.6328 3.83977 18.6328H5.52868V19.7885C5.52861 21.2475 6.53738 22.4345 7.77734 22.4345ZM29.2058 6.36349C29.2058 7.11176 28.7556 7.74387 28.2227 7.74387H7.77734C7.24445 7.74387 6.7943 7.11176 6.7943 6.36349V2.78662C6.79423 2.03836 7.24445 1.40625 7.77734 1.40625H28.2227C28.7556 1.40625 29.2057 2.03836 29.2057 2.78662V6.36349H29.2058ZM6.79423 16.2115C6.79423 15.4633 7.24445 14.8312 7.77727 14.8312H28.2226C28.7555 14.8312 29.2056 15.4633 29.2056 16.2115V19.7884C29.2056 20.5367 28.7554 21.1688 28.2226 21.1688H7.77734C7.24445 21.1688 6.7943 20.5367 6.7943 19.7884L6.79423 16.2115ZM6.79423 29.6365C6.79423 28.8883 7.24445 28.2562 7.77727 28.2562H28.2226C28.7555 28.2562 29.2056 28.8883 29.2056 29.6365V33.2134C29.2056 33.9616 28.7554 34.5938 28.2226 34.5938H7.77734C7.24445 34.5938 6.7943 33.9616 6.7943 33.2134L6.79423 29.6365ZM12.1769 2.57112H9.43475C9.26692 2.57112 9.10596 2.63779 8.98728 2.75646C8.86861 2.87514 8.80194 3.0361 8.80194 3.20393V5.94612C8.80194 6.11395 8.86861 6.27491 8.98728 6.39358C9.10596 6.51226 9.26692 6.57893 9.43475 6.57893H12.1769C12.3448 6.57893 12.5057 6.51226 12.6244 6.39358C12.7431 6.27491 12.8097 6.11395 12.8097 5.94612V3.20393C12.8097 3.0361 12.7431 2.87514 12.6244 2.75646C12.5057 2.63779 12.3448 2.57112 12.1769 2.57112ZM11.5441 5.3133H10.0676V3.83674H11.5441V5.3133ZM27.1981 4.57509C27.1981 4.6582 27.1817 4.74048 27.1499 4.81726C27.1181 4.89404 27.0715 4.9638 27.0127 5.02256C26.954 5.08132 26.8842 5.12793 26.8074 5.15974C26.7307 5.19154 26.6484 5.20791 26.5653 5.20791H15.5871C15.2376 5.20791 14.9543 4.92462 14.9543 4.57509C14.9543 4.22557 15.2376 3.94228 15.5871 3.94228H26.5653C26.7331 3.94228 26.8941 4.00895 27.0127 4.12763C27.1314 4.2463 27.1981 4.40726 27.1981 4.57509ZM9.43475 20.0039H12.1769C12.3448 20.0039 12.5057 19.9372 12.6244 19.8186C12.7431 19.6999 12.8097 19.5389 12.8097 19.3711V16.6289C12.8097 16.4611 12.7431 16.3001 12.6244 16.1814C12.5057 16.0628 12.3448 15.9961 12.1769 15.9961H9.43475C9.26692 15.9961 9.10596 16.0628 8.98728 16.1814C8.86861 16.3001 8.80194 16.4611 8.80194 16.6289V19.3711C8.80194 19.5389 8.86861 19.6999 8.98728 19.8186C9.10596 19.9372 9.26692 20.0039 9.43475 20.0039ZM10.0676 17.2617H11.5441V18.7383H10.0676V17.2617ZM14.9543 18C14.9543 17.8322 15.021 17.6712 15.1396 17.5525C15.2583 17.4339 15.4193 17.3672 15.5871 17.3672H26.5653C26.9148 17.3672 27.1981 17.6505 27.1981 18C27.1981 18.3495 26.9148 18.6328 26.5653 18.6328H15.5871C15.4193 18.6328 15.2583 18.5661 15.1396 18.4475C15.021 18.3288 14.9543 18.1678 14.9543 18ZM9.43475 33.4289H12.1769C12.3448 33.4289 12.5057 33.3622 12.6244 33.2435C12.7431 33.1249 12.8097 32.9639 12.8097 32.7961V30.0539C12.8097 29.8861 12.7431 29.7251 12.6244 29.6064C12.5057 29.4877 12.3448 29.4211 12.1769 29.4211H9.43475C9.26692 29.4211 9.10596 29.4877 8.98728 29.6064C8.86861 29.7251 8.80194 29.8861 8.80194 30.0539V32.7961C8.80194 32.9639 8.86861 33.1249 8.98728 33.2435C9.10596 33.3622 9.26692 33.4289 9.43475 33.4289ZM10.0676 30.6867H11.5441V32.1633H10.0676V30.6867ZM14.9543 31.425C14.9543 31.2572 15.021 31.0963 15.1396 30.9776C15.2583 30.8589 15.4193 30.7922 15.5871 30.7922H26.5653C26.9148 30.7922 27.1981 31.0755 27.1981 31.425C27.1981 31.7746 26.9148 32.0579 26.5653 32.0579H15.5871C15.4193 32.0579 15.2583 31.9912 15.1396 31.8725C15.021 31.7538 14.9543 31.5929 14.9543 31.425Z" fill="#2970FF"/>
</g>
<defs>
<clipPath id="clip0_6348_1879">
<rect width="36" height="36" fill="white"/>
</clipPath>
</defs>
</svg>
