<svg width="24" height="24" viewBox="0 0 24 24" fill="none" xmlns="http://www.w3.org/2000/svg">
<g clip-path="url(#clip0_6348_1980)">
<path d="M8.625 14.625V10.5C8.625 10.4005 8.58549 10.3052 8.51517 10.2348C8.44484 10.1645 8.34946 10.125 8.25 10.125H6.75C6.65054 10.125 6.55516 10.1645 6.48483 10.2348C6.41451 10.3052 6.375 10.4005 6.375 10.5V14.625H7.125V10.875H7.875V14.625H8.625ZM14.625 16.125V10.875C14.625 10.7755 14.5855 10.6802 14.5152 10.6098C14.4448 10.5395 14.3495 10.5 14.25 10.5H12.75C12.6505 10.5 12.5552 10.5395 12.4848 10.6098C12.4145 10.6802 12.375 10.7755 12.375 10.875V16.125H13.125V11.25H13.875V16.125H14.625ZM11.625 16.125V9.375C11.625 9.27554 11.5855 9.18016 11.5152 9.10983C11.4448 9.03951 11.3495 9 11.25 9H9.75C9.65054 9 9.55516 9.03951 9.48483 9.10983C9.41451 9.18016 9.375 9.27554 9.375 9.375V15.375H10.125V9.75H10.875V16.125H11.625ZM17.625 13.125V9.375C17.625 9.27554 17.5855 9.18016 17.5152 9.10983C17.4448 9.03951 17.3495 9 17.25 9H15.75C15.6505 9 15.5552 9.03951 15.4848 9.10983C15.4145 9.18016 15.375 9.27554 15.375 9.375V13.5H16.125V9.75H16.875V13.125H17.625ZM20.625 12.75V7.125C20.625 7.02554 20.5855 6.93016 20.5152 6.85983C20.4448 6.78951 20.3495 6.75 20.25 6.75H18.75C18.6505 6.75 18.5552 6.78951 18.4848 6.85983C18.4145 6.93016 18.375 7.02554 18.375 7.125V12.75H19.125V7.5H19.875V12.75H20.625Z" fill="#2970FF"/>
<path d="M6.48483 9.26517C6.55516 9.33549 6.65054 9.37499 6.75 9.37499C6.84946 9.37499 6.94484 9.33549 7.01517 9.26517L10.1107 6.16964L13.2213 9.62588C13.2553 9.66371 13.2967 9.69422 13.343 9.71553C13.3892 9.73685 13.4393 9.74853 13.4902 9.74986L13.5 9.75C13.5995 9.75 13.6948 9.71049 13.7652 9.64017L18.75 4.65534V5.625C18.75 5.72446 18.7895 5.81984 18.8598 5.89016C18.9302 5.96049 19.0255 6 19.125 6H20.625C20.7245 6 20.8198 5.96049 20.8902 5.89016C20.9605 5.81984 21 5.72446 21 5.625V1.125C21 1.02554 20.9605 0.930161 20.8902 0.859835C20.8198 0.789509 20.7245 0.75 20.625 0.75H16.125C16.0255 0.75 15.9302 0.789509 15.8598 0.859835C15.7895 0.930161 15.75 1.02554 15.75 1.125V2.625C15.75 2.72446 15.7895 2.81984 15.8598 2.89016C15.9302 2.96049 16.0255 3 16.125 3H17.0947L13.5143 6.58031L10.4037 3.12413C10.3697 3.08629 10.3283 3.05578 10.282 3.03446C10.2358 3.01315 10.1857 3.00146 10.1348 3.00012C10.084 2.99879 10.0333 3.00782 9.98605 3.02668C9.93877 3.04554 9.89582 3.07383 9.85983 3.10983L5.35983 7.60983C5.325 7.64465 5.29738 7.68599 5.27853 7.73149C5.25969 7.77699 5.24999 7.82575 5.24999 7.875C5.24999 7.92425 5.25969 7.97301 5.27853 8.01851C5.29738 8.06401 5.325 8.10535 5.35983 8.14017L6.48483 9.26517ZM10.1107 3.91964L13.2213 7.37588C13.2553 7.41371 13.2967 7.44422 13.343 7.46554C13.3892 7.48685 13.4393 7.49854 13.4902 7.49988C13.541 7.50121 13.5917 7.49218 13.6389 7.47332C13.6862 7.45446 13.7292 7.42617 13.7652 7.39017L18.2652 2.89017C18.3176 2.83773 18.3533 2.77091 18.3678 2.69816C18.3823 2.62542 18.3749 2.55002 18.3465 2.48149C18.3181 2.41297 18.27 2.3544 18.2083 2.31319C18.1467 2.27199 18.0742 2.25 18 2.25H16.5V1.5H20.25V5.25H19.5V3.75C19.5 3.67583 19.478 3.60332 19.4368 3.54165C19.3956 3.47998 19.337 3.43192 19.2685 3.40353C19.2 3.37515 19.1246 3.36772 19.0518 3.38219C18.9791 3.39666 18.9123 3.43238 18.8598 3.48483L13.5143 8.83036L10.4037 5.37413C10.3697 5.33629 10.3283 5.30579 10.282 5.28447C10.2358 5.26315 10.1857 5.25147 10.1348 5.25014C10.1316 5.25005 10.1283 5.25 10.125 5.25C10.0255 5.25 9.93016 5.28951 9.85983 5.35983L6.75 8.46966L6.1553 7.875L10.1107 3.91964ZM4.125 22.875V22.125H5.25C5.34946 22.125 5.44484 22.0855 5.51516 22.0152C5.58549 21.9448 5.625 21.8495 5.625 21.75V20.7675C7.41562 22.4112 9.77187 23.2997 12.2019 23.2478C14.632 23.1958 16.9481 22.2073 18.6668 20.4886L22.7652 16.3904C23.013 16.1426 23.1616 15.8128 23.183 15.463C23.2045 15.1133 23.0973 14.7677 22.8816 14.4915C22.666 14.2154 22.3568 14.0276 22.0122 13.9636C21.6677 13.8996 21.3117 13.9638 21.0112 14.1441C20.8832 13.946 20.7091 13.7818 20.5039 13.6655C20.2986 13.5493 20.0682 13.4845 19.8325 13.4766C19.5967 13.4688 19.3626 13.5181 19.15 13.6204C18.9374 13.7227 18.7528 13.8749 18.6119 14.0641L18.4529 14.2774C18.3716 14.215 18.2845 14.1606 18.1929 14.1147C17.9989 14.0177 17.7873 13.9609 17.5708 13.9478C17.3543 13.9346 17.1374 13.9653 16.9331 14.0381C16.7288 14.1108 16.5413 14.2241 16.3818 14.3712C16.2224 14.5182 16.0943 14.696 16.0053 14.8938L15.06 16.9945C14.862 16.9155 14.6507 16.8749 14.4375 16.875H9.9053L9.26517 16.2348C8.7954 15.7664 8.18495 15.465 7.52741 15.3768C6.86988 15.2886 6.20158 15.4186 5.625 15.7467V15.375C5.625 15.2755 5.58549 15.1802 5.51516 15.1098C5.44484 15.0395 5.34946 15 5.25 15H4.125V14.625C4.125 14.5255 4.08549 14.4302 4.01516 14.3598C3.94484 14.2895 3.84946 14.25 3.75 14.25H0.75V15H3.375V22.5H0.75V23.25H3.75C3.84946 23.25 3.94484 23.2105 4.01516 23.1402C4.08549 23.0698 4.125 22.9745 4.125 22.875ZM20.15 14.3273C20.2781 14.4043 20.3787 14.5198 20.4373 14.6573L17.4619 17.6328C17.0636 18.0316 16.614 18.3756 16.1249 18.6556L19.2132 14.5124C19.3183 14.3705 19.4726 14.2729 19.6458 14.2387C19.8191 14.2045 19.9988 14.2361 20.15 14.3273ZM16.6892 15.2016C16.7368 15.0959 16.8052 15.001 16.8903 14.9225C16.9754 14.844 17.0756 14.7834 17.1847 14.7446C17.2938 14.7057 17.4096 14.6893 17.5252 14.6963C17.6409 14.7034 17.7539 14.7337 17.8575 14.7855C17.9095 14.8116 17.9587 14.8429 18.0045 14.879L15.8935 17.711C15.8345 17.6102 15.7652 17.5158 15.6868 17.4293L16.6892 15.2016ZM8.73483 16.7652L9.48483 17.5152C9.51965 17.55 9.56099 17.5776 9.60649 17.5965C9.65199 17.6153 9.70075 17.625 9.75 17.625H14.4375C14.6861 17.625 14.9246 17.7238 15.1004 17.8996C15.2762 18.0754 15.375 18.3139 15.375 18.5625C15.375 18.8111 15.2762 19.0496 15.1004 19.2254C14.9246 19.4012 14.6861 19.5 14.4375 19.5H9.75V20.25H14.4375C14.6695 20.2501 14.8991 20.2022 15.1117 20.1093C15.3244 20.0164 15.5155 19.8805 15.6731 19.7102C16.541 19.3532 17.3293 18.8274 17.9922 18.1631L21.2651 14.8902C21.394 14.763 21.568 14.6919 21.7491 14.6925C21.9302 14.6931 22.1037 14.7653 22.2318 14.8934C22.3598 15.0215 22.432 15.195 22.4326 15.3761C22.4332 15.5572 22.3621 15.7312 22.2349 15.8601L18.1365 19.9583C16.5089 21.5857 14.3016 22.5 12 22.5C9.69834 22.5 7.49099 21.5856 5.8635 19.9582L5.625 19.7197V16.6631C6.05982 16.2829 6.62277 16.082 7.20005 16.1009C7.77732 16.1199 8.32588 16.3573 8.73483 16.7652ZM4.875 15.75V21.375H4.125V15.75H4.875Z" fill="#2970FF"/>
</g>
<defs>
<clipPath id="clip0_6348_1980">
<rect width="24" height="24" fill="white"/>
</clipPath>
</defs>
</svg>
