<svg width="24" height="24" viewBox="0 0 24 24" fill="none" xmlns="http://www.w3.org/2000/svg">
<g clip-path="url(#clip0_6348_1953)">
<path d="M10.2909 5.23621C9.56365 4.58167 8.58183 4.29076 7.60001 4.39985C5.96365 4.61803 4.69092 5.92712 4.69092 7.49076V7.56348C4.72728 8.18167 5.05455 10.1817 7.41819 10.5817C7.63637 10.618 7.81819 10.6544 8.03637 10.6544C8.83637 10.6544 9.60001 10.3635 10.2182 9.85439C10.9455 9.27258 11.3455 8.39985 11.3455 7.52712C11.3455 6.61803 10.9818 5.81803 10.2909 5.23621ZM9.74546 9.27258C9.12728 9.78167 8.32728 9.99985 7.52728 9.85439C5.74546 9.56348 5.45455 8.10894 5.41819 7.49076V7.45439C5.41819 6.25439 6.40001 5.23621 7.67274 5.09076C8.43637 4.98167 9.23637 5.23621 9.81819 5.7453C10.3273 6.21803 10.6182 6.83621 10.6182 7.49076C10.6182 8.18167 10.2909 8.83621 9.74546 9.27258Z" fill="#2970FF"/>
<path d="M12.6911 13.1999L14.1093 11.8544C14.2547 11.7453 14.2547 11.5272 14.1456 11.3817L13.1274 9.96353C13.2729 9.67262 13.4183 9.38171 13.4911 9.0908L15.3092 8.76353C15.4911 8.72716 15.6002 8.58171 15.6002 8.39989V6.50898C15.6002 6.32716 15.4547 6.18171 15.3092 6.14534L13.4547 5.81807C13.3456 5.52716 13.2365 5.23625 13.0547 4.94534L14.0729 3.52716C14.182 3.38171 14.1456 3.16353 14.0365 3.05443C14.0002 3.01807 12.6911 1.81807 12.582 1.74534C12.4729 1.67262 12.3638 1.63625 12.2183 1.67262C12.182 1.67262 12.1093 1.70898 12.0729 1.74534L10.6911 2.61807C10.6547 2.65443 10.6183 2.65443 10.582 2.6908C10.2911 2.54534 10.0002 2.43625 9.70925 2.36353L9.34561 0.654435C9.30925 0.472616 9.1638 0.363525 8.98198 0.363525H6.98198C6.80016 0.363525 6.65471 0.50898 6.61834 0.690798L6.25471 2.36353C5.92743 2.47262 5.60016 2.58171 5.30925 2.72716C4.50925 2.21807 4.07289 1.96353 3.81834 1.81807L3.74561 1.74534V1.78171C3.52743 1.67262 3.49107 1.70898 3.38198 1.74534C3.38198 1.78171 3.30925 1.81807 3.30925 1.85443L1.92743 3.12716C1.78198 3.27262 1.78198 3.4908 1.92743 3.63625C2.03652 3.78171 2.3638 4.21807 2.61834 4.58171L2.90925 5.05443C2.7638 5.34534 2.61834 5.63625 2.54561 5.92716L0.727433 6.25444C0.545614 6.2908 0.436523 6.43625 0.436523 6.61807V8.50898C0.436523 8.65444 0.509251 8.76353 0.618342 8.83625C0.691069 8.87262 0.727433 8.90898 0.80016 8.87262L2.58198 9.16353C2.65471 9.38171 2.7638 9.67262 2.98198 10.0363C2.47289 10.7635 2.18198 11.1635 2.03652 11.4181L1.9638 11.4908C1.85471 11.709 1.85471 11.7453 1.92743 11.8544C1.9638 11.9272 2.00016 11.9635 2.07289 11.9999C2.32743 12.2181 3.38198 13.1999 3.45471 13.2726C3.5638 13.3453 3.67289 13.3817 3.81834 13.3453C3.85471 13.3453 3.92743 13.309 3.9638 13.2726L5.45471 12.2908C5.74561 12.4363 6.03652 12.5453 6.32743 12.6181L6.69107 14.3272C6.72743 14.509 6.87289 14.6181 7.05471 14.6181H9.0547C9.23652 14.6181 9.38198 14.509 9.41834 14.3272L9.78198 12.6181C10.1093 12.509 10.4365 12.3999 10.7274 12.2544L12.2911 13.2363C12.3638 13.3453 12.5456 13.309 12.6911 13.1999ZM10.5456 11.5272C10.182 11.7453 9.78198 11.8908 9.34561 11.9999C9.20016 12.0363 9.09107 12.1453 9.09107 12.2908L8.72743 13.8908H7.30925L6.98198 12.2544C6.94561 12.109 6.83652 11.9999 6.72743 11.9635C6.32743 11.8544 5.92743 11.709 5.60016 11.5272C5.49107 11.4544 5.34561 11.4544 5.23652 11.5272L3.74561 12.4726C3.52743 12.3635 3.20016 12.0726 2.72743 11.6363C3.05471 11.1635 3.67289 10.2908 3.67289 10.2544C3.74561 10.1453 3.74561 9.96353 3.67289 9.85444C3.41834 9.41807 3.30925 9.16353 3.20016 8.87262L3.1638 8.72716C3.12743 8.61807 3.01834 8.50898 2.87289 8.50898L1.12743 8.21807V6.94534L2.87289 6.61807C3.01834 6.58171 3.12743 6.47262 3.1638 6.36353C3.23652 6.10898 3.38198 5.70898 3.60016 5.34534C3.74561 5.23625 3.78198 5.12716 3.60016 4.87262C3.60016 4.83625 3.5638 4.83625 3.5638 4.79989C3.49107 4.65443 3.34561 4.50898 3.20016 4.25443L2.65471 3.45443C2.83652 3.27262 3.12743 3.01807 3.52743 2.61807L3.63652 2.54534C4.10925 2.83625 5.09107 3.45443 5.12743 3.4908C5.23652 3.56353 5.38198 3.56353 5.49107 3.4908C5.85471 3.30898 6.2547 3.12716 6.69107 3.01807C6.83652 2.98171 6.94561 2.87262 6.94561 2.72716L7.30925 1.0908H8.72743L9.0547 2.72716C9.09107 2.87262 9.20016 2.98171 9.30925 3.01807C9.70925 3.12716 10.0365 3.23625 10.4002 3.41807C10.5093 3.4908 10.6911 3.52716 10.8002 3.41807L12.2911 2.47262C12.4729 2.65443 12.8002 2.94534 13.2729 3.38171L12.2911 4.76353C12.2183 4.87262 12.2183 5.05443 12.2911 5.16353C12.5093 5.52716 12.6911 5.8908 12.8002 6.25444C12.8365 6.39989 12.9456 6.47262 13.0911 6.50898L14.8365 6.79989V8.07262L13.0911 8.39989C12.9456 8.43625 12.8365 8.50898 12.8002 8.65444C12.7638 9.0908 12.582 9.45444 12.3638 9.78171C12.2911 9.8908 12.2911 10.0726 12.3638 10.1817L13.3456 11.5272L12.3638 12.4363L10.9093 11.5272C10.8002 11.4908 10.6547 11.4544 10.5456 11.5272ZM20.4729 17.2363C20.2183 15.9635 19.0547 15.0181 17.782 15.0181C16.2547 15.0181 15.0183 16.2544 15.0183 17.7817V17.8181C15.0183 18.6544 15.382 19.3817 16.0365 19.9272C16.5456 20.3272 17.1638 20.5453 17.782 20.5453C18.2911 20.5453 18.7638 20.3999 19.2365 20.1453C20.2183 19.5635 20.6911 18.3999 20.4729 17.2363ZM18.8365 19.5272C18.2547 19.8908 17.3093 20.0363 16.5093 19.3817C16.0365 18.9817 15.782 18.4363 15.782 17.8181V17.7817C15.782 16.6544 16.6911 15.7453 17.8183 15.7453C18.7638 15.7453 19.6002 16.4363 19.8183 17.3453C19.9638 18.4363 19.4183 19.1635 18.8365 19.5272Z" fill="#2970FF"/>
<path d="M23.564 16.9816C23.564 16.7998 23.4549 16.6543 23.2731 16.618L21.9276 16.3634C21.8549 16.1453 21.7821 15.9271 21.6731 15.7453L22.4003 14.618C22.5094 14.4725 22.4731 14.2907 22.364 14.1453C21.8185 13.6362 21.5276 13.3089 21.3458 13.1634C21.3458 13.1271 21.3094 13.0907 21.2731 13.0907C21.0912 12.9453 21.0549 12.9453 20.9458 12.9816C20.8731 12.9816 20.8367 13.018 20.8003 13.0543C20.6185 13.1634 20.1094 13.5271 19.7821 13.7453L19.7458 13.7816C19.564 13.6725 19.3821 13.5998 19.164 13.5634L18.9094 12.218C18.8731 12.0362 18.7276 11.9271 18.5458 11.9271H17.0185C16.8367 11.9271 16.6912 12.0725 16.6549 12.2543L16.4003 13.5634C16.1821 13.6362 15.964 13.7089 15.7821 13.818C15.4549 13.5998 14.7276 13.1271 14.6549 13.0543C14.4731 12.9453 14.2549 12.9816 14.1458 13.1271L13.5276 13.818L13.4549 13.8907L13.3821 13.9634L13.3458 13.9998L13.3094 14.0362L13.0912 14.2543C12.9821 14.3634 12.9458 14.5816 13.0549 14.7271C13.0549 14.7634 13.564 15.4907 13.8185 15.8543C13.7094 16.0725 13.6367 16.2907 13.564 16.5089L12.2549 16.7271C12.0731 16.7634 11.964 16.9089 11.964 17.0907V18.618C12.0003 18.8362 12.0367 18.8725 12.1458 18.9453C12.1821 18.9816 12.2549 18.9816 12.3276 18.9816L13.6003 19.1998C13.6731 19.3816 13.7458 19.5634 13.8549 19.818C13.6731 20.0725 13.3821 20.5089 13.2367 20.7634L13.1276 20.9453C13.0185 21.1271 13.0549 21.3453 13.2367 21.4543L14.2912 22.4725C14.4003 22.5453 14.5094 22.5816 14.6549 22.5816C14.6912 22.5816 14.764 22.5453 14.8003 22.5089L15.8912 21.7453C16.0731 21.818 16.2549 21.9271 16.4731 21.9634L16.7276 23.3089C16.764 23.4907 16.9094 23.5998 17.0912 23.5998H18.5458C18.7276 23.5998 18.8731 23.4907 18.9094 23.3089L19.164 21.9634C19.3821 21.8907 19.6003 21.818 19.7821 21.7089L20.9094 22.4725C21.0549 22.5816 21.2367 22.5453 21.3821 22.4362L22.4367 21.3453C22.5458 21.2362 22.5821 21.018 22.4731 20.8725L21.7094 19.7453C21.8185 19.5271 21.8912 19.3453 21.964 19.0907L23.2731 18.8362C23.4549 18.7998 23.564 18.6543 23.564 18.4725V16.9816ZM21.6003 18.4725C21.4549 18.5089 21.3458 18.618 21.3094 18.7271C21.2367 19.0543 21.0912 19.3453 20.9458 19.5998C20.8731 19.7089 20.8731 19.8543 20.9458 19.9998L21.6731 21.0543L21.0185 21.7089L19.964 20.9816C19.8549 20.9089 19.7094 20.9089 19.564 20.9816C19.3094 21.1271 18.9821 21.2725 18.6912 21.3453C18.5458 21.3816 18.4731 21.4907 18.4367 21.6362L18.2185 22.9089H17.3094L17.0549 21.6725C17.0185 21.5271 16.9094 21.418 16.8003 21.3816C16.5094 21.3089 16.2185 21.1998 15.964 21.0543C15.8549 20.9816 15.7094 20.9816 15.564 21.0907L14.5094 21.818L13.8549 21.1634C14.1094 20.7998 14.5458 20.1453 14.5458 20.1089C14.6185 19.9998 14.6185 19.8543 14.5458 19.7089C14.364 19.3816 14.2912 19.1634 14.2185 18.9453L14.1821 18.8362C14.1821 18.6543 14.0731 18.5453 13.9276 18.5453L12.6912 18.3271V17.418L13.9276 17.1634C14.0731 17.1271 14.1821 17.018 14.2185 16.8725C14.2549 16.6907 14.4003 16.3271 14.5458 16.0362C14.5458 15.9998 14.5821 15.9998 14.5821 15.9634C14.6185 15.8543 14.6549 15.818 14.5458 15.5998C14.5458 15.5634 14.5094 15.5634 14.4731 15.5271C14.364 15.3453 14.1821 15.0543 13.8185 14.5453L13.8549 14.5089L13.8912 14.4725L14.5094 13.8543C14.7276 14.0362 15.0912 14.2543 15.564 14.5816C15.6731 14.6543 15.8185 14.6543 15.964 14.5816C16.2185 14.4362 16.5094 14.2907 16.8367 14.218C16.9821 14.1816 17.0549 14.0725 17.0912 13.9271L17.3458 12.6907H18.2549L18.5094 13.9271C18.5458 14.0725 18.6185 14.1816 18.764 14.218C19.0549 14.2907 19.2731 14.3998 19.5276 14.5089C19.6731 14.6543 19.8185 14.618 19.964 14.5089C20.1094 14.3998 20.0003 14.4725 20.0003 14.4725C20.0731 14.4362 20.1094 14.3998 20.1821 14.3634C20.4003 14.218 20.764 13.9634 20.9821 13.7816L21.6367 14.4362L20.9458 15.4907C20.8731 15.5998 20.8731 15.7453 20.9458 15.8907C21.0912 16.1816 21.2367 16.4725 21.3094 16.7634C21.3458 16.9089 21.4549 16.9816 21.6003 17.018L22.8367 17.2362V18.1453L21.6003 18.4725ZM10.1821 21.3816C6.90942 21.3089 4.18215 18.8725 3.67306 15.7089L4.25487 16.2907C4.40033 16.4362 4.61851 16.4362 4.76396 16.2907C4.90942 16.1453 4.90942 15.9271 4.76396 15.7816L3.45487 14.5089C3.30942 14.3634 3.09124 14.3634 2.94578 14.5089L1.67306 15.818C1.5276 15.9634 1.5276 16.1816 1.67306 16.3271C1.81851 16.4725 2.03669 16.4725 2.18215 16.3271L2.90942 15.5998C3.38215 19.1998 6.40033 22.0362 10.1821 22.1453C10.4003 22.1453 10.5458 21.9634 10.5458 21.7816C10.5458 21.5271 10.4003 21.3816 10.1821 21.3816ZM23.2731 9.81798C23.1276 9.67253 22.9094 9.67253 22.764 9.81798L22.0731 10.5089C22.1821 6.87253 19.6367 3.63616 16.0367 2.90889C15.8549 2.87253 15.6367 3.01798 15.6367 3.23616C15.6003 3.41798 15.7458 3.5998 15.9276 3.63616C19.164 4.29071 21.4549 7.1998 21.3821 10.4725L20.6912 9.81798C20.5458 9.67253 20.3276 9.67253 20.1821 9.81798C20.0367 9.96343 20.0367 10.1816 20.1821 10.3271L21.4549 11.5998C21.5276 11.6725 21.6003 11.7089 21.7094 11.7089C21.8185 11.7089 21.8912 11.6725 21.964 11.5998L23.2367 10.3271C23.4185 10.1816 23.4185 9.96343 23.2731 9.81798Z" fill="#2970FF"/>
</g>
<defs>
<clipPath id="clip0_6348_1953">
<rect width="24" height="24" fill="white"/>
</clipPath>
</defs>
</svg>
