<svg width="24" height="24" viewBox="0 0 24 24" fill="none" xmlns="http://www.w3.org/2000/svg">
<path d="M18.768 8.24002C18.688 8.08003 18.568 8.00002 18.408 8.00002H13.688L18.368 0.6C18.448 0.48 18.448 0.320016 18.368 0.200016C18.288 0.0800156 18.168 0 18.008 0H11.608C11.448 0 11.328 0.0800156 11.248 0.200016L5.248 12.2C5.16798 12.32 5.16798 12.48 5.248 12.6C5.32802 12.72 5.488 12.8 5.608 12.8H9.72798L5.248 23.48C5.16798 23.64 5.248 23.84 5.40798 23.96C5.44797 24 5.52798 24 5.608 24C5.728 24 5.848 23.96 5.92802 23.88L18.728 8.67999C18.808 8.55998 18.848 8.4 18.768 8.24002ZM7.00797 21.32L10.688 12.52C10.728 12.4 10.728 12.28 10.648 12.16C10.568 12.08 10.448 12 10.328 12H6.24798L11.848 0.800016H17.288L12.568 8.19998C12.488 8.31998 12.488 8.47997 12.568 8.59997C12.648 8.71997 12.768 8.79998 12.928 8.79998H17.568L7.00797 21.32Z" fill="#2970FF"/>
</svg>
