<svg width="24" height="24" viewBox="0 0 24 24" fill="none" xmlns="http://www.w3.org/2000/svg">
<path d="M4.54702 2.53764C4.51643 2.48384 4.50836 2.42012 4.52457 2.36039C4.54079 2.30066 4.57997 2.24977 4.63357 2.21882C4.68717 2.18788 4.75083 2.17939 4.81067 2.19521C4.8705 2.21103 4.92165 2.24987 4.95295 2.30326L5.79834 3.7675C5.82893 3.8213 5.837 3.88502 5.82078 3.94475C5.80457 4.00448 5.76539 4.05537 5.71179 4.08631C5.65819 4.11726 5.59453 4.12575 5.53469 4.10993C5.47486 4.09411 5.42371 4.05526 5.39241 4.00187L4.54702 2.53764ZM2.20636 9.52028H0.515625C0.453465 9.52028 0.393851 9.54497 0.349897 9.58893C0.305943 9.63288 0.28125 9.69249 0.28125 9.75465C0.28125 9.81681 0.305943 9.87643 0.349897 9.92038C0.393851 9.96434 0.453465 9.98903 0.515625 9.98903H2.20636C2.26852 9.98903 2.32813 9.96434 2.37209 9.92038C2.41604 9.87643 2.44073 9.81681 2.44073 9.75465C2.44073 9.69249 2.41604 9.63288 2.37209 9.58893C2.32813 9.54497 2.26852 9.52028 2.20636 9.52028ZM14.8545 6.60006C14.8943 6.60006 14.9346 6.58993 14.9715 6.56861L16.4357 5.72322C16.4891 5.69192 16.528 5.64077 16.5438 5.58093C16.5596 5.5211 16.5511 5.45743 16.5202 5.40384C16.4892 5.35024 16.4383 5.31105 16.3786 5.29484C16.3189 5.27862 16.2552 5.28669 16.2014 5.31728L14.7371 6.16267C14.6924 6.18844 14.6574 6.22828 14.6376 6.27599C14.6178 6.3237 14.6144 6.37661 14.6278 6.42649C14.6411 6.47637 14.6706 6.52043 14.7117 6.55182C14.7527 6.58321 14.8029 6.60017 14.8545 6.60006ZM12.2562 4.08765C12.2829 4.10305 12.3123 4.11304 12.3428 4.11706C12.3733 4.12108 12.4043 4.11905 12.4341 4.11109C12.4638 4.10312 12.4917 4.08938 12.5161 4.07064C12.5405 4.0519 12.561 4.02853 12.5764 4.00187L13.4218 2.53764C13.4374 2.51097 13.4476 2.48148 13.4518 2.45086C13.456 2.42023 13.4541 2.38908 13.4462 2.3592C13.4383 2.32932 13.4245 2.30129 13.4058 2.27674C13.387 2.25218 13.3635 2.23159 13.3368 2.21613C13.31 2.20068 13.2804 2.19067 13.2498 2.18668C13.2191 2.1827 13.188 2.18482 13.1582 2.19292C13.1283 2.20102 13.1004 2.21493 13.076 2.23387C13.0515 2.25281 13.0311 2.27639 13.0158 2.30326L12.1704 3.7675C12.155 3.79415 12.1451 3.82358 12.141 3.85409C12.137 3.88461 12.139 3.91562 12.147 3.94535C12.155 3.97508 12.1687 4.00295 12.1875 4.02736C12.2062 4.05178 12.2296 4.07227 12.2562 4.08765ZM8.98439 3.21095C9.01517 3.21095 9.04565 3.20489 9.07408 3.19311C9.10252 3.18133 9.12836 3.16407 9.15012 3.1423C9.17188 3.12054 9.18915 3.0947 9.20093 3.06627C9.2127 3.03783 9.21877 3.00735 9.21877 2.97658V1.28589C9.21877 1.22373 9.19407 1.16411 9.15012 1.12016C9.10617 1.07621 9.04655 1.05151 8.98439 1.05151C8.92223 1.05151 8.86262 1.07621 8.81866 1.12016C8.77471 1.16411 8.75002 1.22373 8.75002 1.28589V2.97662C8.75002 3.03878 8.77471 3.0984 8.81866 3.14235C8.86262 3.18631 8.92223 3.21095 8.98439 3.21095ZM3.23161 6.16262L1.76738 5.31723C1.71357 5.28664 1.64985 5.27857 1.59013 5.29479C1.5304 5.31101 1.47951 5.35019 1.44856 5.40379C1.41761 5.45739 1.40912 5.52105 1.42494 5.58088C1.44076 5.64072 1.47961 5.69187 1.533 5.72317L2.99723 6.56856C3.02389 6.58396 3.05331 6.59396 3.08383 6.59798C3.11434 6.60201 3.14536 6.59998 3.17509 6.59201C3.20482 6.58404 3.23269 6.5703 3.25711 6.55156C3.28153 6.53281 3.30201 6.50944 3.31739 6.48278C3.33279 6.45613 3.34278 6.4267 3.3468 6.39619C3.35082 6.36567 3.34879 6.33466 3.34082 6.30493C3.33286 6.2752 3.31911 6.24733 3.30037 6.22291C3.28163 6.19849 3.25827 6.17801 3.23161 6.16262ZM23.1051 22.7841C22.9196 22.8917 22.7091 22.9483 22.4947 22.9484C22.3861 22.9483 22.2779 22.934 22.173 22.9058C21.8551 22.8206 21.5901 22.6177 21.4265 22.3344L19.7592 19.4464C19.7281 19.3926 19.7197 19.3286 19.7357 19.2686C19.751 19.2128 19.7863 19.1646 19.835 19.1334L19.2953 18.1985C18.7165 18.4036 18.1005 18.5139 17.4707 18.5139C17.002 18.5139 16.526 18.4533 16.0521 18.3264C14.2897 17.8541 12.9575 16.5699 12.3494 14.984C11.9758 15.7366 11.7939 16.5431 11.7939 17.4491V19.1535C11.7939 19.2156 11.7692 19.2752 11.7252 19.3192C11.6813 19.3631 11.6217 19.3878 11.5595 19.3878H10.6342C10.5199 20.1962 9.82378 20.8201 8.98439 20.8201C8.145 20.8201 7.44891 20.1962 7.33458 19.3878H6.40927C6.34711 19.3878 6.28749 19.3631 6.24354 19.3192C6.19958 19.2752 6.17489 19.2156 6.17489 19.1535V17.4491C6.17489 16.535 5.98997 15.722 5.60958 14.9637C5.30639 14.3592 5.00634 13.8952 4.71619 13.4465C4.4115 12.9754 4.12373 12.5304 3.89452 12.0052C3.10041 10.1859 3.21164 8.27683 4.19972 6.76745C5.20162 5.23694 6.94561 4.35911 8.98439 4.35911C10.44 4.35911 11.7441 4.80086 12.7556 5.63659C13.6258 6.35556 14.2253 7.34031 14.471 8.43836C15.7325 7.61434 17.3253 7.30858 18.8919 7.72834C21.8138 8.51129 23.5539 11.5254 22.771 14.4472C22.4735 15.5575 21.8531 16.4964 21.0386 17.1918L21.5784 18.1269C21.6889 18.0707 21.8249 18.1091 21.8875 18.2176L23.5548 21.1055C23.8936 21.6924 23.6918 22.4454 23.1051 22.7841ZM10.1591 19.3878H7.80966C7.91897 19.9365 8.40408 20.3514 8.98434 20.3514C9.56461 20.3514 10.0498 19.9365 10.159 19.3878H10.1591ZM11.3251 18.9191V17.6835H6.64359V18.9191H11.3251ZM12.1503 14.3543C11.9306 13.4794 11.9234 12.5388 12.173 11.6075C12.4883 10.4304 13.166 9.44532 14.0537 8.73948C13.6396 6.39428 11.6204 4.82786 8.98439 4.82786C7.10658 4.82786 5.50561 5.62839 4.59188 7.02414C3.69202 8.39879 3.59442 10.1459 4.32412 11.8177C4.53806 12.3078 4.803 12.7175 5.1098 13.1919C5.39297 13.6298 5.71392 14.1261 6.02859 14.7534C6.40378 15.5014 6.60848 16.3285 6.63909 17.2147H8.75002V13.0463L7.44539 11.5775C7.40413 11.531 7.38302 11.4701 7.38669 11.408C7.39037 11.346 7.41853 11.2879 7.46498 11.2466C7.51147 11.2054 7.57244 11.1843 7.63449 11.1879C7.69653 11.1916 7.75458 11.2198 7.79588 11.2662L8.98439 12.6043L10.1729 11.2662C10.2142 11.2198 10.2722 11.1916 10.3343 11.1879C10.3963 11.1843 10.4573 11.2054 10.5038 11.2466C10.5503 11.2879 10.5784 11.346 10.5821 11.408C10.5858 11.4701 10.5647 11.531 10.5234 11.5775L9.21877 13.0463V17.2147H11.3297C11.3603 16.3285 11.565 15.5014 11.9402 14.7534C12.0077 14.619 12.0777 14.4859 12.1503 14.3542V14.3543ZM22.3182 14.3259C23.0342 11.6538 21.4425 8.89731 18.7705 8.18106C18.3474 8.06739 17.9112 8.00973 17.4731 8.00954C15.258 8.00954 13.2257 9.48976 12.6257 11.7288C11.9097 14.401 13.5012 17.1576 16.1734 17.8736C18.8458 18.5896 21.6022 16.9982 22.3182 14.3259ZM19.7342 18.0213L20.2403 18.8979L21.1718 18.3602L20.6658 17.4836C20.3735 17.6927 20.0615 17.8728 19.7342 18.0213ZM23.1489 21.3399L21.5987 18.655L20.2823 19.415L21.8324 22.1C21.9334 22.2749 22.0974 22.4003 22.2942 22.453C22.4911 22.5057 22.6958 22.4792 22.8707 22.3782C23.2336 22.1687 23.3584 21.7029 23.1489 21.3399ZM21.2792 14.0475C21.0068 15.0645 20.3545 15.9144 19.4427 16.4409C18.8355 16.7915 18.1613 16.9707 17.4784 16.9707C17.1359 16.9707 16.7914 16.9257 16.4518 16.8347C14.3524 16.2722 13.1021 14.1066 13.6646 12.0073C14.2272 9.90789 16.3929 8.65769 18.4921 9.22014C20.5914 9.78269 21.8417 11.9483 21.2792 14.0476L21.2792 14.0475ZM18.3708 9.67281C18.078 9.59414 17.776 9.55423 17.4728 9.55412C15.9395 9.55412 14.5327 10.5787 14.1174 12.1285C13.8773 13.0246 14.0006 13.9605 14.4644 14.7638C14.9282 15.5672 15.6771 16.1418 16.5731 16.3819C17.4691 16.622 18.405 16.4989 19.2083 16.035C20.0117 15.5712 20.5863 14.8223 20.8265 13.9263C21.322 12.0767 20.2203 10.1687 18.3708 9.6729V9.67281ZM18.8621 11.7021L16.759 13.8053L16.1191 12.6969C16.0878 12.6435 16.0366 12.6046 15.9768 12.5888C15.917 12.573 15.8533 12.5815 15.7997 12.6124C15.7461 12.6434 15.7069 12.6943 15.6907 12.754C15.6745 12.8137 15.6826 12.8774 15.7132 12.9312L16.5058 14.3041C16.5237 14.3352 16.5486 14.3618 16.5785 14.3818C16.6084 14.4017 16.6425 14.4146 16.6781 14.4193C16.7138 14.4239 16.75 14.4204 16.7841 14.4088C16.8181 14.3973 16.849 14.378 16.8744 14.3526L19.1935 12.0335C19.2153 12.0117 19.2326 11.9859 19.2443 11.9574C19.2561 11.929 19.2622 11.8985 19.2622 11.8678C19.2622 11.837 19.2561 11.8065 19.2443 11.7781C19.2325 11.7496 19.2153 11.7238 19.1935 11.7021C19.1717 11.6803 19.1459 11.663 19.1175 11.6513C19.089 11.6395 19.0586 11.6334 19.0278 11.6334C18.997 11.6334 18.9665 11.6395 18.9381 11.6513C18.9097 11.663 18.8838 11.6804 18.8621 11.7021Z" fill="#2970FF"/>
</svg>
