<svg width="36" height="36" viewBox="0 0 36 36" fill="none" xmlns="http://www.w3.org/2000/svg">
<path d="M25.8138 25.2404L25.2684 24.0125C25.6108 23.41 25.8772 22.7674 26.0615 22.0994L27.3144 21.6171C27.4205 21.5762 27.5117 21.5042 27.5761 21.4105C27.6404 21.3168 27.6749 21.2058 27.6749 21.0921V18.6039C27.6749 18.4902 27.6404 18.3792 27.5761 18.2855C27.5117 18.1918 27.4205 18.1198 27.3144 18.079L26.062 17.5968C25.8776 16.9286 25.6111 16.2857 25.2686 15.6831L25.8138 14.4557C25.8599 14.3518 25.8735 14.2363 25.8527 14.1246C25.8319 14.0128 25.7778 13.9099 25.6974 13.8296L23.9379 12.0702C23.8575 11.9898 23.7547 11.9357 23.6429 11.9149C23.5312 11.8942 23.4158 11.9078 23.3119 11.9539L22.084 12.4992C21.4815 12.1568 20.8389 11.8903 20.1709 11.706L19.6886 10.453C19.6478 10.3469 19.5758 10.2557 19.4821 10.1914C19.3883 10.127 19.2773 10.0926 19.1637 10.0926H16.6755C16.5618 10.0926 16.4508 10.127 16.3571 10.1914C16.2634 10.2557 16.1913 10.3469 16.1505 10.453L15.6682 11.706C15.0002 11.8903 14.3576 12.1567 13.7551 12.4992L12.5272 11.9538C12.4233 11.9077 12.3078 11.8941 12.1961 11.9149C12.0843 11.9356 11.9815 11.9898 11.9011 12.0702L10.1417 13.8296C10.0614 13.91 10.0072 14.0129 9.98647 14.1246C9.96571 14.2364 9.97929 14.3518 10.0254 14.4557L10.5707 15.6833C10.2283 16.2859 9.9618 16.9286 9.77745 17.5967L8.52469 18.0789C8.4186 18.1197 8.32738 18.1917 8.26304 18.2855C8.1987 18.3792 8.16427 18.4902 8.16427 18.6038V21.0921C8.16427 21.2058 8.19872 21.3168 8.26307 21.4105C8.32743 21.5042 8.41866 21.5763 8.52476 21.6171L9.77723 22.0991C9.9616 22.7674 10.2281 23.4103 10.5706 24.013L10.0254 25.2404C9.97929 25.3442 9.96571 25.4597 9.98647 25.5714C10.0072 25.6832 10.0614 25.786 10.1417 25.8664L11.9012 27.6259C11.9815 27.7062 12.0844 27.7604 12.1962 27.7811C12.3079 27.8019 12.4233 27.7883 12.5272 27.7421L13.7551 27.1968C14.3576 27.5392 15.0003 27.8056 15.6683 27.9899L16.1505 29.2428C16.1913 29.3489 16.2634 29.4401 16.3571 29.5045C16.4508 29.5688 16.5618 29.6033 16.6755 29.6032H19.1637C19.2774 29.6032 19.3884 29.5688 19.4821 29.5044C19.5759 29.4401 19.6479 29.3489 19.6887 29.2428L20.1708 27.9904C20.839 27.806 21.4819 27.5395 22.0846 27.1969L23.312 27.7421C23.4159 27.7883 23.5313 27.8018 23.643 27.7811C23.7548 27.7603 23.8576 27.7062 23.938 27.6259L25.6975 25.8664C25.7778 25.786 25.832 25.6832 25.8527 25.5715C25.8735 25.4597 25.8599 25.3443 25.8138 25.2404ZM25.0419 21.5483C24.8625 22.3017 24.5641 23.0216 24.1577 23.6809C24.1098 23.7587 24.0816 23.847 24.0755 23.9382C24.0694 24.0293 24.0855 24.1206 24.1226 24.2041L24.6289 25.3441L23.4156 26.5573L22.2762 26.0512C22.1927 26.0141 22.1014 25.998 22.0102 26.0041C21.919 26.0102 21.8307 26.0385 21.7529 26.0864C21.0935 26.4929 20.3734 26.7915 19.6197 26.9706C19.5308 26.9918 19.4484 27.0343 19.3797 27.0944C19.3109 27.1546 19.2578 27.2306 19.225 27.3158L18.7775 28.4784H17.0618L16.6141 27.3155C16.5813 27.2302 16.5282 27.1542 16.4595 27.0941C16.3907 27.0339 16.3083 26.9915 16.2194 26.9703C15.466 26.791 14.746 26.4926 14.0868 26.0861C14.009 26.0382 13.9207 26.01 13.8295 26.0039C13.7383 25.9978 13.6471 26.014 13.5636 26.0511L12.4237 26.5573L11.2104 25.3441L11.7165 24.2047C11.7535 24.1211 11.7697 24.0298 11.7636 23.9387C11.7575 23.8475 11.7292 23.7592 11.6813 23.6814C11.2748 23.0219 10.9762 22.3018 10.797 21.5481C10.7758 21.4592 10.7333 21.3769 10.6732 21.3081C10.6131 21.2393 10.5371 21.1862 10.4518 21.1534L9.28927 20.706V18.9902L10.4521 18.5426C10.5374 18.5098 10.6133 18.4567 10.6735 18.3879C10.7336 18.3191 10.7761 18.2367 10.7972 18.1479C10.9765 17.3944 11.275 16.6744 11.6814 16.0151C11.7294 15.9373 11.7576 15.849 11.7637 15.7579C11.7698 15.6667 11.7537 15.5754 11.7166 15.4919L11.2104 14.3522L12.4237 13.1389L13.5636 13.6452C13.6471 13.6823 13.7383 13.6984 13.8295 13.6923C13.9207 13.6862 14.009 13.6579 14.0868 13.61C14.746 13.2036 15.466 12.9052 16.2194 12.7259C16.3083 12.7047 16.3906 12.6622 16.4594 12.6021C16.5282 12.5419 16.5813 12.466 16.6141 12.3807L17.0618 11.2177H18.7774L19.2251 12.3807C19.2579 12.4659 19.311 12.5419 19.3798 12.6021C19.4486 12.6622 19.5309 12.7047 19.6198 12.7259C20.3732 12.9051 21.0932 13.2036 21.7524 13.61C21.8302 13.6579 21.9185 13.6862 22.0097 13.6923C22.1008 13.6984 22.1921 13.6823 22.2756 13.6452L23.4155 13.1389L24.6289 14.3522L24.1227 15.4916C24.0856 15.5751 24.0695 15.6664 24.0756 15.7576C24.0817 15.8488 24.11 15.9371 24.1579 16.0149C24.5645 16.6743 24.863 17.3944 25.0421 18.1481C25.0633 18.237 25.1058 18.3193 25.1659 18.3881C25.2261 18.4569 25.302 18.51 25.3873 18.5428L26.5499 18.9904V20.706L25.387 21.1537C25.3017 21.1865 25.2257 21.2395 25.1655 21.3083C25.1054 21.377 25.063 21.4594 25.0419 21.5483ZM17.9196 14.1288C14.766 14.1288 12.2003 16.6944 12.2003 19.848C12.2003 23.0016 14.766 25.5672 17.9196 25.5672C21.0731 25.5672 23.6387 23.0016 23.6387 19.848C23.6387 16.6944 21.0731 14.1288 17.9196 14.1288ZM17.9196 24.4422C15.3863 24.4422 13.3253 22.3812 13.3253 19.848C13.3253 17.3148 15.3863 15.2538 17.9196 15.2538C20.4528 15.2538 22.5137 17.3148 22.5137 19.848C22.5137 22.3812 20.4528 24.4422 17.9196 24.4422ZM20.2858 16.9824C20.1116 16.9825 19.9392 17.0173 19.7785 17.0846C19.6179 17.152 19.4722 17.2506 19.3499 17.3746L17.2402 19.5054L16.4877 18.753C16.3647 18.6293 16.2185 18.5313 16.0574 18.4646C15.8962 18.3978 15.7235 18.3637 15.5491 18.3642C15.3747 18.3637 15.202 18.3978 15.0409 18.4646C14.8797 18.5313 14.7334 18.6293 14.6104 18.7529C14.093 19.2704 14.093 20.1125 14.6105 20.6301L16.3053 22.3248C16.4282 22.4484 16.5745 22.5464 16.7356 22.6131C16.8967 22.6798 17.0695 22.7139 17.2439 22.7135H17.2439C17.4183 22.714 17.591 22.6799 17.7521 22.6131C17.9132 22.5464 18.0594 22.4484 18.1824 22.3248C18.8261 21.6811 19.4752 21.0228 20.1028 20.3862C20.4789 20.0044 20.8554 19.6231 21.2324 19.2423C21.7465 18.7235 21.7436 17.8829 21.2262 17.3682C21.1034 17.2455 20.9576 17.1482 20.7971 17.082C20.6366 17.0158 20.4646 16.982 20.291 16.9824L20.2858 16.9824ZM20.4334 18.4504C20.0557 18.8319 19.6785 19.2139 19.3018 19.5963C18.6754 20.2315 18.0278 20.8884 17.3869 21.5293C17.3355 21.5807 17.2753 21.5885 17.244 21.5885C17.2127 21.5885 17.1524 21.5808 17.1008 21.5292L15.4061 19.8346C15.3682 19.7966 15.3469 19.7451 15.3469 19.6915C15.3469 19.6378 15.3682 19.5863 15.4061 19.5484C15.4249 19.5295 15.4472 19.5146 15.4717 19.5044C15.4963 19.4942 15.5226 19.489 15.5492 19.4891C15.5758 19.489 15.6021 19.4942 15.6267 19.5044C15.6512 19.5146 15.6735 19.5296 15.6923 19.5484L16.8446 20.7006C16.95 20.8061 17.0931 20.8654 17.2422 20.8654H17.2437C17.3178 20.8652 17.3911 20.8504 17.4594 20.8218C17.5278 20.7932 17.5898 20.7513 17.642 20.6987L20.1494 18.1662C20.1678 18.1476 20.1897 18.1328 20.2139 18.1227C20.238 18.1126 20.264 18.1074 20.2901 18.1074C20.3167 18.1068 20.3431 18.1117 20.3676 18.1218C20.3922 18.1319 20.4144 18.1469 20.433 18.1659C20.4706 18.2037 20.4918 18.2548 20.4919 18.3081C20.492 18.3614 20.4709 18.4126 20.4334 18.4504ZM14.4925 8.24906H21.3465C21.4254 8.24909 21.5035 8.2325 21.5756 8.20038C21.6477 8.16826 21.7122 8.12132 21.7649 8.06261C21.8177 8.00391 21.8575 7.93476 21.8818 7.85966C21.906 7.78456 21.9142 7.7052 21.9058 7.62673C21.7519 6.18841 20.8543 5.00034 19.6185 4.42399C19.9948 4.01358 20.2248 3.46711 20.2248 2.86777C20.2248 1.59666 19.1907 0.5625 17.9196 0.5625C16.6485 0.5625 15.6143 1.59666 15.6143 2.86777C15.6143 3.46711 15.8444 4.01358 16.2206 4.42399C14.9849 5.00034 14.0872 6.18841 13.9333 7.62673C13.9249 7.70519 13.9331 7.78454 13.9574 7.85963C13.9816 7.93471 14.0214 8.00385 14.0742 8.06254C14.1269 8.12124 14.1914 8.16818 14.2635 8.20031C14.3356 8.23245 14.4136 8.24906 14.4925 8.24906ZM16.7393 2.86777C16.7393 2.21695 17.2688 1.6875 17.9196 1.6875C18.5704 1.6875 19.0998 2.21695 19.0998 2.86777C19.0998 3.51858 18.5704 4.04803 17.9196 4.04803C17.2688 4.04803 16.7393 3.51858 16.7393 2.86777ZM17.9196 5.17303C19.1798 5.17303 20.2618 5.97741 20.6505 7.12406H15.1886C15.5773 5.97748 16.6594 5.17303 17.9196 5.17303ZM7.76138 29.4834C8.13762 29.073 8.36761 28.5265 8.36761 27.9272C8.36761 26.6561 7.33345 25.6219 6.06234 25.6219C4.79124 25.6219 3.75708 26.6561 3.75708 27.9272C3.75708 28.5265 3.98707 29.073 4.36331 29.4834C3.12757 30.0597 2.22989 31.2478 2.07598 32.6861C2.06754 32.7646 2.07572 32.8439 2.09998 32.919C2.12424 32.9942 2.16404 33.0633 2.2168 33.122C2.26955 33.1807 2.33408 33.2277 2.40617 33.2598C2.47827 33.2919 2.55632 33.3085 2.63524 33.3084H9.48938C9.5683 33.3085 9.64635 33.2919 9.71845 33.2598C9.79054 33.2277 9.85506 33.1807 9.90782 33.122C9.96057 33.0633 10.0004 32.9942 10.0246 32.919C10.0489 32.8439 10.0571 32.7646 10.0486 32.6861C9.89473 31.2478 8.99712 30.0597 7.76138 29.4834ZM4.88208 27.9272C4.88208 27.2764 5.41153 26.7469 6.06234 26.7469C6.71316 26.7469 7.24261 27.2764 7.24261 27.9272C7.24261 28.5777 6.71365 29.1069 6.06326 29.1074H6.06143C5.41111 29.1069 4.88208 28.5777 4.88208 27.9272ZM3.33127 32.1834C3.71981 31.0373 4.80122 30.2331 6.0608 30.2324H6.06375C7.32333 30.233 8.40459 31.0373 8.79321 32.1834H3.33127ZM31.4758 29.4834C31.8521 29.073 32.082 28.5265 32.082 27.9272C32.082 26.6561 31.0479 25.6219 29.7767 25.6219C28.5056 25.6219 27.4714 26.6561 27.4714 27.9272C27.4714 28.5265 27.7014 29.073 28.0778 29.4834C26.842 30.0598 25.9444 31.2479 25.7905 32.6861C25.782 32.7646 25.7902 32.8439 25.8145 32.919C25.8387 32.9942 25.8786 33.0633 25.9313 33.122C25.9841 33.1807 26.0486 33.2277 26.1207 33.2598C26.1928 33.2919 26.2708 33.3085 26.3498 33.3084H33.2038C33.2827 33.3084 33.3608 33.2918 33.4328 33.2597C33.5049 33.2276 33.5694 33.1806 33.6222 33.1219C33.6749 33.0632 33.7147 32.9941 33.739 32.919C33.7633 32.8439 33.7715 32.7646 33.7631 32.6861C33.6092 31.2477 32.7116 30.0597 31.4758 29.4834ZM28.5964 27.9272C28.5964 27.2764 29.1259 26.7469 29.7767 26.7469C30.4276 26.7469 30.957 27.2764 30.957 27.9272C30.957 28.5777 30.4281 29.1069 29.7777 29.1074H29.7758C29.1254 29.1069 28.5964 28.5777 28.5964 27.9272ZM27.0458 32.1834C27.4343 31.0373 28.5157 30.2331 29.7752 30.2324H29.7783C31.0378 30.233 32.1192 31.0372 32.5078 32.1834H27.0458ZM23.7836 6.63708C23.8162 6.5708 23.8616 6.5116 23.9171 6.46286C23.9726 6.41412 24.0372 6.37678 24.1071 6.35299C24.1771 6.3292 24.251 6.31941 24.3247 6.32419C24.3984 6.32898 24.4705 6.34823 24.5367 6.38086C27.0141 7.60036 29.1078 9.47925 30.5911 11.8144C32.1155 14.214 32.9213 16.9921 32.9213 19.848C32.9213 20.5982 32.8656 21.3447 32.7557 22.0814L32.9827 21.8709C33.0925 21.7719 33.2369 21.72 33.3846 21.7266C33.5324 21.7332 33.6716 21.7977 33.7721 21.9061C33.8726 22.0146 33.9264 22.1582 33.9219 22.306C33.9173 22.4538 33.8547 22.5939 33.7477 22.6959L32.2227 24.1099C32.1566 24.1711 32.0769 24.2156 31.9901 24.2395C31.9033 24.2635 31.8121 24.2663 31.724 24.2477C31.6359 24.2291 31.5536 24.1896 31.4839 24.1326C31.4142 24.0756 31.3593 24.0026 31.3237 23.92L30.5009 22.0099C30.4418 21.8729 30.4397 21.718 30.4948 21.5794C30.55 21.4408 30.658 21.3297 30.795 21.2707C30.932 21.2117 31.0869 21.2095 31.2255 21.2647C31.3641 21.3199 31.4752 21.4278 31.5342 21.5648L31.6529 21.8406C31.7482 21.1807 31.7961 20.5148 31.7965 19.8481C31.7965 14.5189 28.8244 9.74531 24.0401 7.39027C23.9738 7.35766 23.9146 7.31231 23.8658 7.25681C23.817 7.20131 23.7797 7.13674 23.7559 7.0668C23.732 6.99686 23.7222 6.92291 23.727 6.84918C23.7318 6.77545 23.751 6.70337 23.7836 6.63708ZM23.9597 32.9792C23.9879 33.0475 24.0025 33.1206 24.0025 33.1945C24.0025 33.2684 23.9879 33.3415 23.9596 33.4098C23.9314 33.478 23.8899 33.54 23.8377 33.5922C23.7854 33.6445 23.7234 33.6859 23.6552 33.7141C21.8353 34.4678 19.9055 34.8498 17.9196 34.8498C16.5595 34.8498 15.2257 34.6705 13.9354 34.3155L14.1017 34.5412C14.1898 34.6613 14.2266 34.8114 14.2041 34.9586C14.1816 35.1058 14.1017 35.238 13.9818 35.3264C13.862 35.4148 13.712 35.452 13.5647 35.43C13.4175 35.4079 13.285 35.3284 13.1963 35.2088L11.9622 33.5348C11.9088 33.4623 11.8735 33.3781 11.8594 33.2891C11.8453 33.2002 11.8527 33.1092 11.8811 33.0237C11.9094 32.9382 11.9579 32.8608 12.0224 32.798C12.0869 32.7352 12.1656 32.6887 12.2517 32.6626L14.242 32.0592C14.3844 32.0174 14.5375 32.0334 14.668 32.104C14.7986 32.1745 14.896 32.2937 14.939 32.4357C14.9821 32.5777 14.9673 32.7309 14.8979 32.8621C14.8285 32.9932 14.7101 33.0916 14.5685 33.1359L14.2456 33.2338C15.4354 33.56 16.6653 33.7248 17.9196 33.7248C19.7572 33.7248 21.5421 33.3715 23.2249 32.6746C23.3627 32.6177 23.5175 32.6178 23.6553 32.6749C23.7931 32.732 23.9026 32.8414 23.9597 32.9792ZM3.45628 23.8451C3.09895 22.5494 2.91776 21.2046 2.91776 19.848C2.91776 17.0174 3.71025 14.2604 5.20959 11.8751C6.33082 10.092 7.81366 8.56404 9.56229 7.38984L9.31458 7.37374C9.16571 7.36406 9.02679 7.29564 8.92837 7.18353C8.82995 7.07142 8.78009 6.92481 8.78977 6.77595C8.80988 6.46594 9.07812 6.23011 9.38763 6.2512L11.463 6.38627C11.5528 6.39209 11.64 6.41941 11.7171 6.46592C11.7942 6.51243 11.859 6.57678 11.9061 6.65356C11.9531 6.73033 11.9811 6.81728 11.9875 6.9071C11.994 6.99692 11.9788 7.08698 11.9432 7.1697L11.1221 9.08044C11.0787 9.18154 11.0065 9.26768 10.9146 9.32821C10.8227 9.38873 10.7151 9.42098 10.605 9.42096C10.5288 9.42095 10.4533 9.40535 10.3833 9.37512C10.3154 9.34596 10.2539 9.30372 10.2024 9.2508C10.1508 9.19789 10.1102 9.13533 10.0828 9.06671C10.0555 8.99809 10.0419 8.92475 10.0429 8.85089C10.0439 8.77702 10.0594 8.70407 10.0886 8.6362L10.2389 8.28633C6.37995 10.842 4.04276 15.1368 4.04276 19.848C4.04276 21.1035 4.21031 22.3478 4.54078 23.546C4.56385 23.6296 4.5673 23.7173 4.55085 23.8024C4.53441 23.8875 4.49853 23.9677 4.446 24.0366C4.39348 24.1056 4.32573 24.1614 4.24805 24.1999C4.17037 24.2383 4.08485 24.2583 3.99818 24.2582C3.87511 24.2581 3.75547 24.2177 3.65759 24.1431C3.55971 24.0684 3.489 23.9638 3.45628 23.8451Z" fill="#2970FF"/>
</svg>
