<svg width="36" height="36" viewBox="0 0 36 36" fill="none" xmlns="http://www.w3.org/2000/svg">
<g clip-path="url(#clip0_6348_1915)">
<path d="M23.8435 14.4297V7.49902L29.8476 10.9582L23.8435 14.4297ZM25.3507 10.1058V11.8353L26.8456 10.9706L25.3507 10.1058ZM32.2567 20.2485H33.7516V27.7475H32.2567V20.2485ZM3.75565 27.7475H2.24845V11.2547C2.24845 10.0193 3.26151 9.00629 4.4969 9.00629H16.4928V10.5011H4.50926C4.10158 10.5011 3.75565 10.8347 3.75565 11.2547V27.7475ZM33.7516 32.998H2.24845C1.01306 32.998 0 31.985 0 30.7496V28.5011H36V30.7496C36 31.985 34.987 32.998 33.7516 32.998ZM1.50721 29.996V30.7496C1.50721 31.1573 1.84077 31.5032 2.26081 31.5032H33.7639C34.1716 31.5032 34.5175 31.1696 34.5175 30.7496V29.996H1.50721Z" fill="#2970FF"/>
<path d="M17.2588 27.7475H15.7639V26.2526C15.7639 25.0172 14.7509 24.0042 13.5155 24.0042H8.25263C7.01719 24.0042 6.00418 25.0172 6.00418 26.2526V27.7475H4.50928V26.2526C4.50928 24.1895 6.18942 22.497 8.26493 22.497H13.5154C15.5786 22.497 17.2711 24.1771 17.2711 26.2526V27.7475H17.2588ZM10.884 21.7557C9.01853 21.7557 7.51133 20.2361 7.51133 18.383C7.51133 16.5298 9.01853 14.9979 10.884 14.9979C12.7495 14.9979 14.2567 16.5175 14.2567 18.3706C14.2567 20.2237 12.7372 21.7557 10.884 21.7557ZM10.884 16.5052C9.8463 16.5052 9.00617 17.3452 9.00617 18.383C9.00617 19.4208 9.84624 20.2609 10.884 20.2609C11.9218 20.2609 12.7619 19.4208 12.7619 18.383C12.7619 17.3452 11.9095 16.5052 10.884 16.5052ZM19.5072 24.313V18.7537H16.5052V3.00208H36V18.7536H25.0666L19.5072 24.313ZM18 17.2464H21.0021V20.6809L24.4365 17.2464H34.4928V4.49692H18V17.2464Z" fill="#2970FF"/>
</g>
<defs>
<clipPath id="clip0_6348_1915">
<rect width="36" height="36" fill="white"/>
</clipPath>
</defs>
</svg>
