<svg width="24" height="24" viewBox="0 0 24 24" fill="none" xmlns="http://www.w3.org/2000/svg">
<g clip-path="url(#clip0_6348_1971)">
<path d="M22.5561 2.29431L15.2934 0.295228C15.1714 0.261384 15.0448 0.333337 15.011 0.455587L14.317 2.97657C14.1183 2.8216 13.8908 2.70755 13.6477 2.64104C12.4974 2.32323 11.3178 3.12296 11.2193 4.35681C11.1583 5.11646 11.5741 5.85817 12.2538 6.20223C12.6091 6.38256 12.996 6.45006 13.3742 6.40163L12.6803 8.92238C12.6641 8.98114 12.672 9.0439 12.702 9.0969C12.7322 9.14979 12.7821 9.18858 12.8407 9.20476L15.7185 9.99695C15.7588 10.008 15.8012 10.0079 15.8414 9.99671C15.8816 9.98548 15.918 9.96355 15.9466 9.93324C15.9752 9.90286 15.995 9.86528 16.0039 9.8245C16.0128 9.78373 16.0105 9.74131 15.9971 9.70177C15.6642 8.71979 16.4576 7.69318 17.4962 7.78412C18.8247 7.89981 19.2994 9.52993 18.3418 10.3472C18.2771 10.4026 18.2483 10.489 18.2668 10.572C18.2853 10.6549 18.3481 10.7209 18.43 10.7433L21.3078 11.5355C21.3368 11.5436 21.3672 11.5459 21.3972 11.5421C21.4271 11.5384 21.456 11.5288 21.4822 11.5138C21.5352 11.4837 21.574 11.4339 21.5902 11.3752L23.5894 4.11259C23.8057 3.32626 23.3421 2.51054 22.5561 2.29431ZM23.1465 3.99057L21.2083 11.0318L18.9187 10.4016C19.8217 9.2101 19.0702 7.46031 17.5362 7.32662C16.3456 7.21998 15.338 8.2554 15.4735 9.45306L13.1842 8.82282L13.9199 6.15048C13.9311 6.10996 13.9309 6.06716 13.9194 6.02674C13.9079 5.98631 13.8856 5.94981 13.8548 5.9212C13.824 5.8926 13.786 5.87298 13.7448 5.86448C13.7037 5.85599 13.661 5.85894 13.6214 5.87302C13.2422 6.00849 12.8302 5.97981 12.4614 5.79249C11.9461 5.53163 11.6309 4.9696 11.6771 4.3936C11.753 3.44752 12.6506 2.84363 13.5257 3.08377C13.815 3.1636 14.0686 3.3271 14.2588 3.55702C14.2855 3.58948 14.3207 3.61395 14.3604 3.62771C14.4001 3.64148 14.4429 3.64403 14.484 3.63507C14.5251 3.62626 14.5629 3.60636 14.5935 3.57754C14.624 3.54871 14.6461 3.51206 14.6572 3.47157L15.3929 0.798993L22.4341 2.73704C22.976 2.8862 23.2956 3.44846 23.1465 3.99057Z" fill="#2970FF"/>
<path d="M16.9033 23.7132C17.7187 23.7132 18.3821 23.0498 18.3821 22.2343V14.7014C18.3821 14.5745 18.2793 14.4717 18.1524 14.4717H15.5378C16.1158 13.0821 14.924 11.5572 13.3848 11.8514C12.204 12.0771 11.5192 13.3531 11.9852 14.4717H9.5982V11.7126C9.59819 11.6708 9.58683 11.6299 9.56533 11.5942C9.54384 11.5584 9.51302 11.5292 9.47618 11.5096C9.43931 11.4901 9.39785 11.481 9.35622 11.4833C9.31458 11.4855 9.27434 11.499 9.23979 11.5224C8.38503 12.1009 7.18207 11.6161 6.99279 10.586C6.75279 9.27876 8.19345 8.38176 9.23979 9.09046C9.27434 9.1138 9.31458 9.12732 9.35622 9.12957C9.39785 9.13182 9.43931 9.12273 9.47618 9.10326C9.51301 9.08367 9.54383 9.05444 9.56532 9.01869C9.58681 8.98293 9.59818 8.94201 9.5982 8.90029V5.91548C9.5982 5.78854 9.49536 5.68579 9.36851 5.68579H1.83589C1.0204 5.68579 0.356934 6.34921 0.356934 7.16474V22.2343C0.356934 23.0496 1.02036 23.713 1.83589 23.713L16.9033 23.7132ZM9.60021 14.9311H12.3723C12.4143 14.9311 12.4555 14.9196 12.4914 14.8978C12.5273 14.876 12.5566 14.8448 12.576 14.8075C12.5954 14.7703 12.6042 14.7284 12.6015 14.6865C12.5987 14.6446 12.5845 14.6042 12.5604 14.5698C11.962 13.7148 12.4386 12.4997 13.4709 12.3027C14.79 12.0493 15.7009 13.515 14.9626 14.5698C14.9385 14.6042 14.9243 14.6446 14.9216 14.6865C14.9188 14.7284 14.9276 14.7703 14.947 14.8075C14.9664 14.8448 14.9957 14.876 15.0316 14.8978C15.0675 14.9196 15.1088 14.9311 15.1508 14.9311H17.9227V22.2343C17.9227 22.7965 17.4654 23.2539 16.9032 23.2539L9.60017 23.2537V20.8789C11.0166 21.4461 12.5088 20.2344 12.2187 18.7157C11.9875 17.5053 10.688 16.8694 9.60017 17.3056V14.9311H9.60021ZM0.816309 7.16474C0.816309 6.60248 1.27376 6.14512 1.83593 6.14512H9.13892V8.51985C7.75807 7.96809 6.2615 9.14704 6.54115 10.669C6.75593 11.8385 8.01293 12.5434 9.13892 12.0934V14.4677H6.36696C6.32495 14.4677 6.28374 14.4792 6.24781 14.501C6.21189 14.5227 6.18263 14.554 6.16322 14.5912C6.14382 14.6285 6.13501 14.6704 6.13776 14.7123C6.14051 14.7542 6.15471 14.7946 6.17881 14.829C6.78289 15.692 6.28146 16.8891 5.2572 17.0772C3.95187 17.317 3.04367 15.876 3.77656 14.829C3.80066 14.7946 3.81486 14.7542 3.81761 14.7123C3.82036 14.6704 3.81155 14.6285 3.79214 14.5912C3.77274 14.554 3.74348 14.5227 3.70755 14.501C3.67163 14.4792 3.63042 14.4677 3.5884 14.4677H0.816309V7.16474ZM0.816309 22.2343V14.9311H3.19114C2.65611 16.2683 3.76967 17.8505 5.35428 17.5476C6.57551 17.3142 7.19276 15.9995 6.76446 14.9311H9.13887V17.7033C9.13887 17.7453 9.15038 17.7865 9.17217 17.8224C9.19396 17.8583 9.22518 17.8876 9.26243 17.9069C9.29968 17.9265 9.34157 17.9353 9.38353 17.9326C9.42548 17.9299 9.46587 17.9156 9.50028 17.8915C10.3597 17.2895 11.5572 17.7846 11.7464 18.8131C11.9833 20.1037 10.5597 21.0346 9.50018 20.2936C9.46583 20.2694 9.42544 20.2551 9.38349 20.2524C9.34153 20.2496 9.29964 20.2585 9.26243 20.2781C9.22517 20.2975 9.19394 20.3268 9.17215 20.3627C9.15036 20.3986 9.13885 20.4398 9.13887 20.4818V23.2537H1.83589C1.27371 23.2537 0.816309 22.7963 0.816309 22.2343Z" fill="#2970FF"/>
</g>
<defs>
<clipPath id="clip0_6348_1971">
<rect width="24" height="24" fill="white"/>
</clipPath>
</defs>
</svg>
