<svg width="36" height="36" viewBox="0 0 36 36" fill="none" xmlns="http://www.w3.org/2000/svg">
<path d="M17.3196 13.7278H18.4097C18.8337 13.7442 19.2469 13.5921 19.559 13.3048C19.8712 13.0175 20.057 12.6183 20.0759 12.1945V8.87009C20.0572 8.44615 19.8714 8.04685 19.5592 7.75943C19.247 7.47201 18.8338 7.31983 18.4097 7.33615H17.3196C16.8958 7.31998 16.4827 7.47215 16.1707 7.75944C15.8586 8.04672 15.6729 8.44579 15.6541 8.86952V12.1939C15.6728 12.6178 15.8585 13.0171 16.1707 13.3046C16.4829 13.592 16.8956 13.7442 17.3196 13.7278ZM16.7791 8.86952C16.8151 8.26652 17.8967 8.50615 18.4097 8.46059C18.7034 8.46059 18.9509 8.6479 18.9509 8.86952V12.1939C18.9143 12.7975 17.8332 12.5578 17.3196 12.6028C17.0266 12.6028 16.7791 12.4161 16.7791 12.1945V8.86952ZM13.4552 11.8485C13.4477 11.3435 13.2401 10.8621 12.8781 10.5099C12.5161 10.1577 12.0292 9.96346 11.5242 9.96978C11.3174 9.976 11.1167 9.90005 10.9658 9.75857C10.8149 9.61709 10.7263 9.4216 10.7192 9.2149C10.7369 9.01353 10.8294 8.82608 10.9784 8.68953C11.1275 8.55298 11.3223 8.47724 11.5245 8.47724C11.7266 8.47724 11.9214 8.55298 12.0705 8.68953C12.2195 8.82608 12.312 9.01353 12.3297 9.2149C12.3297 9.36408 12.3889 9.50716 12.4944 9.61265C12.5999 9.71814 12.743 9.7774 12.8922 9.7774C13.0414 9.7774 13.1844 9.71814 13.2899 9.61265C13.3954 9.50716 13.4547 9.36408 13.4547 9.2149C13.4471 8.70999 13.2397 8.22867 12.8778 7.87649C12.5159 7.5243 12.0291 7.32999 11.5242 7.33615C11.2774 7.33615 11.033 7.38476 10.805 7.4792C10.577 7.57365 10.3698 7.71208 10.1953 7.88659C10.0208 8.0611 9.88236 8.26827 9.78792 8.49628C9.69347 8.72429 9.64486 8.96867 9.64486 9.21546C9.64486 9.46226 9.69347 9.70663 9.78792 9.93464C9.88236 10.1627 10.0208 10.3698 10.1953 10.5443C10.3698 10.7188 10.577 10.8573 10.805 10.9517C11.033 11.0462 11.2774 11.0948 11.5242 11.0948C11.6271 11.0885 11.7302 11.1033 11.8271 11.1384C11.9241 11.1734 12.0128 11.2279 12.0879 11.2986C12.163 11.3692 12.2228 11.4545 12.2637 11.5491C12.3046 11.6437 12.3257 11.7457 12.3257 11.8488C12.3257 11.9519 12.3046 12.0539 12.2637 12.1485C12.2228 12.2431 12.163 12.3284 12.0879 12.399C12.0128 12.4697 11.9241 12.5242 11.8271 12.5592C11.7302 12.5943 11.6271 12.6091 11.5242 12.6028C11.3176 12.6091 11.117 12.5333 10.9662 12.392C10.8154 12.2508 10.7266 12.0556 10.7192 11.8491C10.7192 11.6999 10.66 11.5568 10.5545 11.4513C10.449 11.3459 10.3059 11.2866 10.1567 11.2866C10.0076 11.2866 9.86448 11.3459 9.75899 11.4513C9.6535 11.5568 9.59424 11.6999 9.59424 11.8491C9.65949 14.3258 13.3894 14.3263 13.4547 11.8491L13.4552 11.8485ZM23.2562 13.7278C23.4054 13.7278 23.5485 13.6686 23.654 13.5631C23.7595 13.4576 23.8187 13.3145 23.8187 13.1653V10.7798H24.7154C25.1667 10.7716 25.5968 10.5866 25.9131 10.2645C26.2294 9.94246 26.4066 9.50909 26.4066 9.05768C26.4066 8.60627 26.2294 8.1729 25.9131 7.85083C25.5968 7.52877 25.1667 7.34375 24.7154 7.33559H23.2562C23.1071 7.33559 22.964 7.39485 22.8585 7.50034C22.753 7.60583 22.6937 7.7489 22.6937 7.89809V13.1653C22.6937 13.3145 22.753 13.4576 22.8585 13.5631C22.964 13.6686 23.1071 13.7278 23.2562 13.7278ZM23.8187 8.46059H24.7154C24.8682 8.46872 25.0122 8.53517 25.1175 8.64626C25.2228 8.75734 25.2815 8.9046 25.2815 9.05768C25.2815 9.21077 25.2228 9.35802 25.1175 9.46911C25.0122 9.58019 24.8682 9.64664 24.7154 9.65477H23.8187V8.46059Z" fill="#2970FF"/>
<path d="M27.4782 2.25H8.52197C8.07456 2.25045 7.64559 2.42838 7.32922 2.74475C7.01285 3.06112 6.83492 3.49008 6.83447 3.9375V32.0625C6.83492 32.5099 7.01285 32.9389 7.32922 33.2552C7.64559 33.5716 8.07456 33.7496 8.52197 33.75H23.3911C23.6145 33.7493 23.8355 33.7046 24.0416 33.6184C24.2477 33.5322 24.4347 33.4063 24.592 33.2477L28.6792 29.1077C28.992 28.7925 29.167 28.366 29.1657 27.9219V3.9375C29.1653 3.49008 28.9873 3.06112 28.671 2.74475C28.3546 2.42838 27.9256 2.25045 27.4782 2.25ZM7.95947 32.0625V3.9375C7.95962 3.78836 8.01893 3.64537 8.12439 3.53992C8.22985 3.43446 8.37283 3.37515 8.52197 3.375H27.4782C27.6274 3.37515 27.7703 3.43446 27.8758 3.53992C27.9813 3.64537 28.0406 3.78836 28.0407 3.9375V27.3139H24.5161C24.0687 27.3143 23.6397 27.4923 23.3233 27.8086C23.007 28.125 22.829 28.554 22.8286 29.0014V32.625H8.52197C8.37283 32.6249 8.22985 32.5655 8.12439 32.4601C8.01893 32.3546 7.95962 32.2116 7.95947 32.0625ZM23.9536 32.2931V29.0014C23.9537 28.8522 24.0131 28.7092 24.1185 28.6038C24.224 28.4983 24.367 28.439 24.5161 28.4389H27.7583L23.9536 32.2931Z" fill="#2970FF"/>
<path d="M10.6875 18.1676C10.6875 18.3168 10.7468 18.4599 10.8523 18.5654C10.9577 18.6708 11.1008 18.7301 11.25 18.7301H14.1401C14.2893 18.7301 14.4324 18.6708 14.5379 18.5654C14.6434 18.4599 14.7026 18.3168 14.7026 18.1676C14.7026 18.0184 14.6434 17.8753 14.5379 17.7699C14.4324 17.6644 14.2893 17.6051 14.1401 17.6051H11.25C11.1008 17.6051 10.9577 17.6644 10.8523 17.7699C10.7468 17.8753 10.6875 18.0184 10.6875 18.1676ZM24.75 17.6051H16.4548C16.3056 17.6051 16.1626 17.6644 16.0571 17.7699C15.9516 17.8753 15.8923 18.0184 15.8923 18.1676C15.8923 18.3168 15.9516 18.4599 16.0571 18.5654C16.1626 18.6708 16.3056 18.7301 16.4548 18.7301H24.75C24.8992 18.7301 25.0423 18.6708 25.1477 18.5654C25.2532 18.4599 25.3125 18.3168 25.3125 18.1676C25.3125 18.0184 25.2532 17.8753 25.1477 17.7699C25.0423 17.6644 24.8992 17.6051 24.75 17.6051ZM24.5498 21.411H11.25C11.1008 21.411 10.9577 21.4702 10.8523 21.5757C10.7468 21.6812 10.6875 21.8243 10.6875 21.9735C10.6875 22.1227 10.7468 22.2657 10.8523 22.3712C10.9577 22.4767 11.1008 22.536 11.25 22.536H24.5498C24.6989 22.536 24.842 22.4767 24.9475 22.3712C25.053 22.2657 25.1123 22.1227 25.1123 21.9735C25.1123 21.8243 25.053 21.6812 24.9475 21.5757C24.842 21.4702 24.6989 21.411 24.5498 21.411ZM15.1639 25.2169H11.25C11.1008 25.2169 10.9577 25.2761 10.8523 25.3816C10.7468 25.4871 10.6875 25.6302 10.6875 25.7794C10.6875 25.9285 10.7468 26.0716 10.8523 26.1771C10.9577 26.2826 11.1008 26.3419 11.25 26.3419H15.1639C15.3131 26.3419 15.4561 26.2826 15.5616 26.1771C15.6671 26.0716 15.7264 25.9285 15.7264 25.7794C15.7264 25.6302 15.6671 25.4871 15.5616 25.3816C15.4561 25.2761 15.3131 25.2169 15.1639 25.2169ZM21.8419 25.2169H17.2631C17.1139 25.2169 16.9709 25.2761 16.8654 25.3816C16.7599 25.4871 16.7006 25.6302 16.7006 25.7794C16.7006 25.9285 16.7599 26.0716 16.8654 26.1771C16.9709 26.2826 17.1139 26.3419 17.2631 26.3419H21.8413C21.9905 26.3419 22.1336 26.2826 22.2391 26.1771C22.3445 26.0716 22.4038 25.9285 22.4038 25.7794C22.4038 25.6302 22.3445 25.4871 22.2391 25.3816C22.1336 25.2761 21.9905 25.2169 21.8413 25.2169H21.8419Z" fill="#2970FF"/>
</svg>
