<svg width="36" height="36" viewBox="0 0 36 36" fill="none" xmlns="http://www.w3.org/2000/svg">
<g clip-path="url(#clip0_6348_1887)">
<path d="M20.2826 3.77966H19.5342V19.1227L8.60693 30.0499L9.13082 30.5738C12.0497 33.5676 16.0164 35.2141 20.2077 35.2141C28.8896 35.2141 35.9998 28.1788 35.9998 19.4969C35.9998 10.815 28.9645 3.77966 20.2826 3.77966ZM20.2077 33.7173C16.6901 33.7173 13.3221 32.445 10.7026 30.0499L20.9562 19.7963V5.27652C28.4406 5.65074 34.4281 11.9377 34.4281 19.4969C34.4281 27.3556 28.0664 33.7173 20.2077 33.7173Z" fill="#2970FF"/>
<path d="M0.0747973 20.3202L0.149671 21.0686C0.449012 24.6611 2.09562 28.104 4.64032 30.6487L5.16421 31.1726L17.8129 18.5239L0.0747973 20.3202ZM1.6466 21.6674L13.6965 20.4699L5.16428 29.0021C3.29313 26.9814 2.09562 24.3618 1.6466 21.6674ZM15.7172 0.785889C7.03535 0.785889 0 7.82124 0 16.5032C0 17.0271 0 17.5511 0.0748733 18.0749L0.149747 18.8234L16.4657 17.1768V0.785889H15.7172ZM14.9688 15.8296L1.49686 17.1768V16.5031C1.49686 8.86901 7.48437 2.65696 14.9688 2.28275V15.8296Z" fill="#2970FF"/>
</g>
<defs>
<clipPath id="clip0_6348_1887">
<rect width="36" height="36" fill="white"/>
</clipPath>
</defs>
</svg>
