<svg width="1305" height="406" viewBox="0 0 1305 406" fill="none" xmlns="http://www.w3.org/2000/svg">
<path d="M385.266 -393.953C10.1562 -209.423 -33.7949 290.114 18.517 471.258C42.6862 555.956 242.381 628.299 361.882 514.224C423.427 454.776 471.436 370.183 494.577 330.571C549.71 233.972 648.481 103.799 784.903 1.17249C892.224 -79.4654 868.658 -58.1974 824.226 20.9841C786.863 85.7923 746.02 160.154 743.444 208.763C741.937 223.6 745.938 236.532 755.433 246.97C783.945 279.465 859.836 280.076 914.75 253.937C1039.25 195.992 1093.07 122.514 1202.72 62.5443C1263.02 29.1764 1402.2 -34.4372 1411.59 51.7865C1413.8 67.1291 1410.46 82.6002 1414.4 93.166L1432.9 92.7377C1427.13 83.3982 1482.79 -70.6433 1242.37 16.6291C1097.39 69.1281 1034.32 142.821 932.096 203.802C873.674 238.311 846.327 256.114 848.902 207.505C847.847 161.941 888.731 89.3539 926.121 25.7292C968.814 -48.6755 1004.38 -111.074 943.11 -119.72C809.4 -139.714 599.486 65.857 561.561 106.404C487.479 183.903 430.044 261.018 387.338 334.831C369.527 364.846 332.027 423.737 301.679 471.805C267.81 527.652 231.337 550.995 207.182 466.889C158.775 294.535 229.183 -181.339 587.824 -357.791L385.266 -393.953Z" fill="url(#paint0_linear_6348_2043)" fill-opacity="0.3"/>
<defs>
<linearGradient id="paint0_linear_6348_2043" x1="-5.93613" y1="49.9108" x2="1190.76" y2="-654.466" gradientUnits="userSpaceOnUse">
<stop stop-color="#2970FF" stop-opacity="0.1"/>
<stop offset="1" stop-color="white"/>
</linearGradient>
</defs>
</svg>
